<svg width="547" height="711" viewBox="0 0 547 711" fill="none" xmlns="http://www.w3.org/2000/svg">
<g filter="url(#filter0_dii_307_13)">
<rect width="329" height="493" rx="20" transform="matrix(-1 0 0 1 488 88.9999)" fill="url(#paint0_linear_307_13)"/>
</g>
<path d="M248.951 442H250.255L254.151 431.431H252.767L249.662 440.293H249.544L246.439 431.431H245.055L248.951 442ZM255.873 442H257.147V434.104H255.873V442ZM256.517 432.581C256.761 432.581 256.969 432.495 257.14 432.325C257.311 432.149 257.396 431.941 257.396 431.702C257.396 431.458 257.311 431.25 257.14 431.079C256.969 430.909 256.761 430.823 256.517 430.823C256.278 430.823 256.07 430.909 255.895 431.079C255.724 431.25 255.638 431.458 255.638 431.702C255.638 431.941 255.724 432.149 255.895 432.325C256.07 432.495 256.278 432.581 256.517 432.581ZM262.772 442.139C263.236 442.139 263.653 442.08 264.024 441.963C264.4 441.841 264.725 441.68 264.999 441.48C265.272 441.275 265.494 441.048 265.665 440.799C265.841 440.545 265.963 440.284 266.031 440.015L266.046 439.956H264.771L264.742 440.022C264.674 440.179 264.554 440.332 264.383 440.484C264.212 440.635 263.995 440.76 263.731 440.857C263.468 440.955 263.158 441.004 262.801 441.004C262.323 441.004 261.908 440.899 261.556 440.689C261.205 440.474 260.934 440.169 260.743 439.773C260.553 439.373 260.458 438.892 260.458 438.33V437.825C260.458 437.234 260.555 436.736 260.75 436.331C260.946 435.926 261.209 435.62 261.542 435.415C261.878 435.205 262.259 435.1 262.684 435.1C263.109 435.1 263.485 435.201 263.812 435.401C264.139 435.596 264.396 435.894 264.581 436.294C264.767 436.695 264.859 437.205 264.859 437.825V438.33L265.489 437.4H259.813V438.418H266.141V437.92C266.141 437.134 266.002 436.446 265.724 435.855C265.45 435.259 265.055 434.795 264.537 434.463C264.024 434.131 263.409 433.965 262.691 433.965C261.979 433.965 261.356 434.139 260.824 434.485C260.292 434.832 259.879 435.313 259.586 435.928C259.298 436.543 259.154 437.259 259.154 438.074V438.081C259.154 438.907 259.298 439.624 259.586 440.235C259.879 440.84 260.294 441.309 260.831 441.641C261.373 441.973 262.02 442.139 262.772 442.139ZM269.642 442H270.917L272.674 435.891H272.792L274.557 442H275.838L278.05 434.104H276.783L275.23 440.418H275.113L273.348 434.104H272.14L270.375 440.418H270.257L268.705 434.104H267.43L269.642 442ZM284.115 442H285.345V433.929H285.99L284.518 431.724L288.766 442H289.879L294.134 431.724L292.655 433.929H293.299V442H294.53V431.431H292.999L289.381 440.249H289.264L285.646 431.431H284.115V442ZM297.738 444.768C298.207 444.768 298.6 444.7 298.917 444.563C299.239 444.432 299.518 444.2 299.752 443.868C299.991 443.536 300.221 443.074 300.44 442.483L303.524 434.104H302.184L299.759 441.399L300.265 440.601H299.664L300.169 441.399L297.738 434.104H296.375L299.298 442.007L299.151 442.476C299.01 442.93 298.822 443.25 298.587 443.435C298.358 443.621 298.062 443.714 297.701 443.714C297.613 443.714 297.523 443.711 297.43 443.706C297.337 443.702 297.252 443.692 297.174 443.677V444.724C297.262 444.739 297.357 444.749 297.459 444.754C297.562 444.764 297.655 444.768 297.738 444.768ZM314.935 444.637H316.209V434.104H314.935V435.423H314.847C314.681 435.125 314.469 434.866 314.21 434.646C313.956 434.427 313.67 434.258 313.353 434.141C313.041 434.024 312.706 433.965 312.35 433.965C311.681 433.965 311.097 434.134 310.599 434.471C310.101 434.807 309.715 435.281 309.442 435.891C309.168 436.502 309.032 437.22 309.032 438.045V438.059C309.032 438.88 309.168 439.598 309.442 440.213C309.715 440.823 310.101 441.297 310.599 441.634C311.097 441.971 311.681 442.139 312.35 442.139C312.726 442.139 313.072 442.088 313.39 441.985C313.712 441.878 313.995 441.726 314.239 441.531C314.483 441.331 314.676 441.092 314.818 440.813H314.935V444.637ZM312.65 441.011C312.167 441.011 311.751 440.894 311.405 440.66C311.063 440.42 310.799 440.081 310.614 439.641C310.428 439.197 310.335 438.67 310.335 438.059V438.045C310.335 437.43 310.426 436.902 310.606 436.463C310.792 436.023 311.058 435.686 311.405 435.452C311.751 435.213 312.164 435.093 312.643 435.093C313.121 435.093 313.534 435.213 313.88 435.452C314.227 435.691 314.496 436.033 314.686 436.477C314.876 436.917 314.972 437.439 314.972 438.045V438.059C314.972 438.66 314.876 439.182 314.686 439.627C314.496 440.066 314.227 440.408 313.88 440.652C313.534 440.891 313.124 441.011 312.65 441.011ZM320.736 442.139C321.092 442.139 321.419 442.09 321.717 441.993C322.015 441.89 322.281 441.741 322.516 441.546C322.755 441.35 322.958 441.114 323.124 440.835H323.241V442H324.515V436.595C324.515 436.048 324.398 435.579 324.164 435.188C323.934 434.793 323.595 434.49 323.146 434.28C322.701 434.07 322.157 433.965 321.512 433.965C320.951 433.965 320.45 434.053 320.011 434.229C319.571 434.4 319.212 434.641 318.934 434.954C318.661 435.262 318.49 435.623 318.421 436.038L318.414 436.082H319.688L319.696 436.06C319.798 435.752 320.001 435.516 320.304 435.349C320.606 435.179 320.995 435.093 321.468 435.093C322.059 435.093 322.501 435.223 322.794 435.481C323.092 435.735 323.241 436.106 323.241 436.595V439.056C323.241 439.432 323.143 439.768 322.948 440.066C322.757 440.364 322.494 440.601 322.157 440.777C321.82 440.948 321.434 441.033 321 441.033C320.541 441.033 320.16 440.923 319.857 440.703C319.554 440.479 319.403 440.166 319.403 439.766V439.751C319.403 439.361 319.54 439.058 319.813 438.843C320.091 438.628 320.531 438.504 321.131 438.47L323.878 438.294V437.276L320.978 437.452C320.06 437.505 319.349 437.732 318.846 438.133C318.348 438.528 318.099 439.078 318.099 439.781V439.795C318.099 440.274 318.214 440.689 318.443 441.04C318.678 441.392 318.993 441.663 319.388 441.853C319.789 442.044 320.238 442.139 320.736 442.139ZM329.488 442.139C330.069 442.139 330.555 442.024 330.946 441.795C331.341 441.565 331.637 441.241 331.832 440.821H331.949V442H333.224V434.104H331.949V438.777C331.949 439.236 331.869 439.634 331.708 439.971C331.546 440.303 331.307 440.559 330.99 440.74C330.672 440.921 330.282 441.011 329.818 441.011C329.188 441.011 328.734 440.838 328.456 440.491C328.182 440.144 328.045 439.617 328.045 438.909V434.104H326.771V439.217C326.771 439.837 326.871 440.367 327.071 440.806C327.276 441.241 327.582 441.573 327.987 441.802C328.392 442.027 328.893 442.139 329.488 442.139ZM337.772 442.139C338.128 442.139 338.456 442.09 338.753 441.993C339.051 441.89 339.317 441.741 339.552 441.546C339.791 441.35 339.994 441.114 340.16 440.835H340.277V442H341.551V436.595C341.551 436.048 341.434 435.579 341.2 435.188C340.97 434.793 340.631 434.49 340.182 434.28C339.737 434.07 339.193 433.965 338.548 433.965C337.987 433.965 337.486 434.053 337.047 434.229C336.607 434.4 336.249 434.641 335.97 434.954C335.697 435.262 335.526 435.623 335.458 436.038L335.45 436.082H336.725L336.732 436.06C336.834 435.752 337.037 435.516 337.34 435.349C337.643 435.179 338.031 435.093 338.504 435.093C339.095 435.093 339.537 435.223 339.83 435.481C340.128 435.735 340.277 436.106 340.277 436.595V439.056C340.277 439.432 340.179 439.768 339.984 440.066C339.793 440.364 339.53 440.601 339.193 440.777C338.856 440.948 338.47 441.033 338.036 441.033C337.577 441.033 337.196 440.923 336.893 440.703C336.59 440.479 336.439 440.166 336.439 439.766V439.751C336.439 439.361 336.576 439.058 336.849 438.843C337.127 438.628 337.567 438.504 338.167 438.47L340.914 438.294V437.276L338.014 437.452C337.096 437.505 336.385 437.732 335.882 438.133C335.384 438.528 335.135 439.078 335.135 439.781V439.795C335.135 440.274 335.25 440.689 335.479 441.04C335.714 441.392 336.029 441.663 336.424 441.853C336.825 442.044 337.274 442.139 337.772 442.139ZM343.954 442H345.228V430.97H343.954V442ZM347.704 442H348.978V434.104H347.704V442ZM348.348 432.581C348.592 432.581 348.8 432.495 348.971 432.325C349.142 432.149 349.227 431.941 349.227 431.702C349.227 431.458 349.142 431.25 348.971 431.079C348.8 430.909 348.592 430.823 348.348 430.823C348.109 430.823 347.901 430.909 347.726 431.079C347.555 431.25 347.469 431.458 347.469 431.702C347.469 431.941 347.555 432.149 347.726 432.325C347.901 432.495 348.109 432.581 348.348 432.581ZM351.908 442H353.182V435.159H354.977V434.104H353.182V433.262C353.182 432.828 353.28 432.5 353.475 432.281C353.675 432.061 354.002 431.951 354.457 431.951C354.569 431.951 354.676 431.953 354.779 431.958C354.881 431.963 354.972 431.973 355.05 431.988V430.97C354.918 430.945 354.781 430.928 354.64 430.918C354.503 430.904 354.356 430.896 354.2 430.896C353.453 430.896 352.884 431.089 352.494 431.475C352.103 431.856 351.908 432.439 351.908 433.225V434.104H350.597V435.159H351.908V442ZM359.62 442.058C359.747 442.058 359.872 442.051 359.994 442.036C360.116 442.022 360.238 442.005 360.36 441.985V440.901C360.243 440.911 360.143 440.918 360.06 440.923C359.981 440.928 359.886 440.931 359.774 440.931C359.364 440.931 359.071 440.83 358.895 440.63C358.719 440.425 358.631 440.091 358.631 439.627V435.159H360.36V434.104H358.631V432.061H357.313V434.104H356.068V435.159H357.313V439.949C357.313 440.701 357.494 441.241 357.855 441.568C358.221 441.895 358.81 442.058 359.62 442.058ZM362.293 442H363.568V434.104H362.293V442ZM362.938 432.581C363.182 432.581 363.39 432.495 363.561 432.325C363.731 432.149 363.817 431.941 363.817 431.702C363.817 431.458 363.731 431.25 363.561 431.079C363.39 430.909 363.182 430.823 362.938 430.823C362.699 430.823 362.491 430.909 362.315 431.079C362.145 431.25 362.059 431.458 362.059 431.702C362.059 431.941 362.145 432.149 362.315 432.325C362.491 432.495 362.699 432.581 362.938 432.581ZM369.2 442.139C369.835 442.139 370.377 442.034 370.826 441.824C371.275 441.614 371.637 441.326 371.91 440.96C372.184 440.589 372.374 440.166 372.481 439.693L372.496 439.612L371.236 439.62L371.222 439.663C371.075 440.103 370.833 440.437 370.497 440.667C370.16 440.896 369.725 441.011 369.193 441.011C368.724 441.011 368.316 440.889 367.97 440.645C367.623 440.401 367.354 440.057 367.164 439.612C366.974 439.163 366.878 438.636 366.878 438.03V438.016C366.878 437.42 366.971 436.905 367.157 436.47C367.347 436.031 367.616 435.691 367.962 435.452C368.309 435.213 368.719 435.093 369.193 435.093C369.759 435.093 370.216 435.23 370.562 435.503C370.909 435.777 371.131 436.109 371.229 436.499L371.236 436.521H372.503L372.496 436.477C372.418 436.009 372.24 435.586 371.961 435.21C371.683 434.829 371.312 434.527 370.848 434.302C370.384 434.078 369.833 433.965 369.193 433.965C368.456 433.965 367.816 434.134 367.274 434.471C366.732 434.803 366.312 435.271 366.014 435.877C365.721 436.482 365.575 437.195 365.575 438.016V438.03C365.575 438.865 365.724 439.59 366.021 440.205C366.319 440.821 366.739 441.297 367.281 441.634C367.823 441.971 368.463 442.139 369.2 442.139ZM376.532 442.139C376.888 442.139 377.215 442.09 377.513 441.993C377.811 441.89 378.077 441.741 378.312 441.546C378.551 441.35 378.753 441.114 378.919 440.835H379.037V442H380.311V436.595C380.311 436.048 380.194 435.579 379.959 435.188C379.73 434.793 379.391 434.49 378.941 434.28C378.497 434.07 377.953 433.965 377.308 433.965C376.747 433.965 376.246 434.053 375.807 434.229C375.367 434.4 375.008 434.641 374.73 434.954C374.457 435.262 374.286 435.623 374.217 436.038L374.21 436.082H375.484L375.492 436.06C375.594 435.752 375.797 435.516 376.1 435.349C376.402 435.179 376.791 435.093 377.264 435.093C377.855 435.093 378.297 435.223 378.59 435.481C378.888 435.735 379.037 436.106 379.037 436.595V439.056C379.037 439.432 378.939 439.768 378.744 440.066C378.553 440.364 378.29 440.601 377.953 440.777C377.616 440.948 377.23 441.033 376.795 441.033C376.336 441.033 375.956 440.923 375.653 440.703C375.35 440.479 375.199 440.166 375.199 439.766V439.751C375.199 439.361 375.335 439.058 375.609 438.843C375.887 438.628 376.327 438.504 376.927 438.47L379.674 438.294V437.276L376.773 437.452C375.855 437.505 375.145 437.732 374.642 438.133C374.144 438.528 373.895 439.078 373.895 439.781V439.795C373.895 440.274 374.01 440.689 374.239 441.04C374.474 441.392 374.789 441.663 375.184 441.853C375.584 442.044 376.034 442.139 376.532 442.139ZM385.445 442.058C385.572 442.058 385.697 442.051 385.819 442.036C385.941 442.022 386.063 442.005 386.185 441.985V440.901C386.068 440.911 385.968 440.918 385.885 440.923C385.807 440.928 385.711 440.931 385.599 440.931C385.189 440.931 384.896 440.83 384.72 440.63C384.544 440.425 384.457 440.091 384.457 439.627V435.159H386.185V434.104H384.457V432.061H383.138V434.104H381.893V435.159H383.138V439.949C383.138 440.701 383.319 441.241 383.68 441.568C384.046 441.895 384.635 442.058 385.445 442.058ZM388.119 442H389.393V434.104H388.119V442ZM388.763 432.581C389.007 432.581 389.215 432.495 389.386 432.325C389.557 432.149 389.642 431.941 389.642 431.702C389.642 431.458 389.557 431.25 389.386 431.079C389.215 430.909 389.007 430.823 388.763 430.823C388.524 430.823 388.316 430.909 388.141 431.079C387.97 431.25 387.884 431.458 387.884 431.702C387.884 431.941 387.97 432.149 388.141 432.325C388.316 432.495 388.524 432.581 388.763 432.581ZM395.04 442.139C395.792 442.139 396.439 441.975 396.981 441.648C397.523 441.316 397.94 440.845 398.233 440.235C398.531 439.624 398.68 438.899 398.68 438.059V438.045C398.68 437.2 398.531 436.473 398.233 435.862C397.94 435.252 397.523 434.783 396.981 434.456C396.439 434.129 395.792 433.965 395.04 433.965C394.293 433.965 393.646 434.129 393.099 434.456C392.557 434.783 392.137 435.252 391.839 435.862C391.546 436.473 391.4 437.2 391.4 438.045V438.059C391.4 438.899 391.546 439.624 391.839 440.235C392.137 440.845 392.557 441.316 393.099 441.648C393.646 441.975 394.293 442.139 395.04 442.139ZM395.04 441.011C394.542 441.011 394.12 440.894 393.773 440.66C393.426 440.425 393.16 440.088 392.975 439.649C392.794 439.209 392.704 438.68 392.704 438.059V438.045C392.704 437.42 392.794 436.888 392.975 436.448C393.16 436.009 393.426 435.674 393.773 435.445C394.12 435.21 394.542 435.093 395.04 435.093C395.538 435.093 395.96 435.21 396.307 435.445C396.654 435.674 396.917 436.009 397.098 436.448C397.284 436.888 397.376 437.42 397.376 438.045V438.059C397.376 438.68 397.284 439.209 397.098 439.649C396.917 440.088 396.654 440.425 396.307 440.66C395.96 440.894 395.538 441.011 395.04 441.011ZM400.658 442H401.932V437.327C401.932 436.863 402.015 436.465 402.181 436.133C402.352 435.801 402.591 435.545 402.899 435.364C403.207 435.183 403.57 435.093 403.99 435.093C404.62 435.093 405.084 435.266 405.382 435.613C405.685 435.955 405.836 436.482 405.836 437.195V442H407.11V436.888C407.11 435.95 406.871 435.23 406.393 434.727C405.919 434.219 405.238 433.965 404.349 433.965C403.768 433.965 403.29 434.082 402.914 434.317C402.538 434.546 402.25 434.871 402.049 435.291H401.932V434.104H400.658V442ZM300.865 460.139C301.222 460.139 301.549 460.09 301.847 459.993C302.145 459.89 302.411 459.741 302.645 459.546C302.884 459.35 303.087 459.114 303.253 458.835H303.37V460H304.645V454.595C304.645 454.048 304.527 453.579 304.293 453.188C304.063 452.793 303.724 452.49 303.275 452.28C302.831 452.07 302.286 451.965 301.642 451.965C301.08 451.965 300.58 452.053 300.14 452.229C299.701 452.4 299.342 452.641 299.063 452.954C298.79 453.262 298.619 453.623 298.551 454.038L298.543 454.082H299.818L299.825 454.06C299.928 453.752 300.13 453.516 300.433 453.349C300.736 453.179 301.124 453.093 301.598 453.093C302.188 453.093 302.63 453.223 302.923 453.481C303.221 453.735 303.37 454.106 303.37 454.595V457.056C303.37 457.432 303.272 457.768 303.077 458.066C302.887 458.364 302.623 458.601 302.286 458.777C301.949 458.948 301.563 459.033 301.129 459.033C300.67 459.033 300.289 458.923 299.986 458.703C299.684 458.479 299.532 458.166 299.532 457.766V457.751C299.532 457.361 299.669 457.058 299.942 456.843C300.221 456.628 300.66 456.504 301.261 456.47L304.007 456.294V455.276L301.107 455.452C300.189 455.505 299.479 455.732 298.976 456.133C298.478 456.528 298.229 457.078 298.229 457.781V457.795C298.229 458.274 298.343 458.689 298.573 459.04C298.807 459.392 299.122 459.663 299.518 459.853C299.918 460.044 300.367 460.139 300.865 460.139ZM306.974 460H308.248V455.327C308.248 454.863 308.331 454.465 308.497 454.133C308.668 453.801 308.907 453.545 309.215 453.364C309.522 453.183 309.886 453.093 310.306 453.093C310.936 453.093 311.4 453.266 311.698 453.613C312 453.955 312.152 454.482 312.152 455.195V460H313.426V454.888C313.426 453.95 313.187 453.23 312.708 452.727C312.235 452.219 311.554 451.965 310.665 451.965C310.084 451.965 309.605 452.082 309.229 452.317C308.854 452.546 308.565 452.871 308.365 453.291H308.248V452.104H306.974V460ZM318.648 460.139C319.2 460.139 319.688 460.017 320.113 459.773C320.538 459.524 320.87 459.18 321.109 458.74H321.227V460H322.501V448.97H321.227V453.349H321.109C320.895 452.93 320.565 452.595 320.121 452.346C319.681 452.092 319.19 451.965 318.648 451.965C317.979 451.965 317.396 452.134 316.898 452.471C316.405 452.807 316.021 453.281 315.748 453.891C315.475 454.502 315.338 455.22 315.338 456.045V456.059C315.338 456.88 315.475 457.598 315.748 458.213C316.021 458.823 316.407 459.297 316.905 459.634C317.403 459.971 317.984 460.139 318.648 460.139ZM318.941 459.011C318.463 459.011 318.05 458.894 317.704 458.66C317.362 458.42 317.098 458.081 316.913 457.641C316.732 457.197 316.642 456.67 316.642 456.059V456.045C316.642 455.43 316.732 454.902 316.913 454.463C317.098 454.023 317.362 453.686 317.704 453.452C318.05 453.213 318.463 453.093 318.941 453.093C319.42 453.093 319.833 453.213 320.179 453.452C320.526 453.691 320.792 454.031 320.978 454.47C321.163 454.91 321.256 455.434 321.256 456.045V456.059C321.256 456.665 321.163 457.19 320.978 457.634C320.792 458.074 320.526 458.413 320.179 458.652C319.833 458.891 319.42 459.011 318.941 459.011ZM331.876 460.139C332.477 460.139 333.014 460.039 333.487 459.839C333.966 459.639 334.344 459.36 334.623 459.004C334.901 458.642 335.04 458.227 335.04 457.759V457.744C335.04 457.178 334.857 456.726 334.491 456.389C334.129 456.052 333.578 455.793 332.835 455.613L331.62 455.32C331.156 455.207 330.819 455.063 330.609 454.888C330.399 454.712 330.294 454.49 330.294 454.221V454.206C330.294 453.972 330.365 453.767 330.506 453.591C330.648 453.415 330.841 453.279 331.085 453.181C331.329 453.078 331.607 453.027 331.92 453.027C332.398 453.027 332.787 453.125 333.084 453.32C333.382 453.516 333.573 453.769 333.656 454.082H334.908C334.85 453.652 334.688 453.279 334.425 452.961C334.166 452.644 333.822 452.4 333.392 452.229C332.967 452.053 332.479 451.965 331.927 451.965C331.371 451.965 330.87 452.065 330.426 452.266C329.981 452.466 329.63 452.739 329.371 453.086C329.117 453.432 328.99 453.826 328.99 454.265V454.272C328.99 454.839 329.164 455.293 329.51 455.635C329.857 455.972 330.399 456.228 331.136 456.404L332.359 456.697C332.848 456.814 333.199 456.968 333.414 457.158C333.629 457.344 333.736 457.571 333.736 457.839V457.854C333.736 458.093 333.658 458.306 333.502 458.491C333.346 458.672 333.131 458.816 332.857 458.923C332.589 459.026 332.276 459.077 331.92 459.077C331.417 459.077 331.009 458.977 330.697 458.777C330.384 458.577 330.174 458.313 330.067 457.986H328.763C328.812 458.42 328.971 458.799 329.239 459.121C329.513 459.443 329.874 459.695 330.323 459.875C330.772 460.051 331.29 460.139 331.876 460.139ZM337.091 460H338.365V448.97H337.091V460ZM342.064 460H343.668L339.918 455.32L338.98 456.133L342.064 460ZM338.204 457.158L339.383 456.023L339.691 455.723L343.441 452.104H341.896L338.482 455.554H338.146L338.204 457.158ZM345.191 460H346.466V452.104H345.191V460ZM345.836 450.581C346.08 450.581 346.288 450.495 346.458 450.325C346.629 450.149 346.715 449.941 346.715 449.702C346.715 449.458 346.629 449.25 346.458 449.079C346.288 448.909 346.08 448.823 345.836 448.823C345.597 448.823 345.389 448.909 345.213 449.079C345.042 449.25 344.957 449.458 344.957 449.702C344.957 449.941 345.042 450.149 345.213 450.325C345.389 450.495 345.597 450.581 345.836 450.581ZM348.941 460H350.216V448.97H348.941V460ZM352.735 460H354.01V448.97H352.735V460Z" fill="black"/>
<path d="M253.527 413H258.566V402.453H263.761C263.8 402.453 263.839 402.453 263.878 402.453C263.931 402.453 263.976 402.453 264.015 402.453L269.562 413H275.304L269.152 401.691C270.779 401.092 272.069 400.077 273.019 398.644C273.983 397.212 274.464 395.545 274.464 393.644V393.605C274.464 391.795 274.074 390.233 273.292 388.918C272.511 387.603 271.398 386.594 269.953 385.891C268.507 385.174 266.782 384.816 264.777 384.816H253.527V413ZM258.566 398.469V388.879H264.152C265.74 388.879 266.997 389.308 267.921 390.168C268.846 391.014 269.308 392.173 269.308 393.644V393.683C269.308 395.194 268.865 396.372 267.98 397.219C267.095 398.052 265.851 398.469 264.25 398.469H258.566ZM287.023 413.41C288.364 413.41 289.562 413.234 290.617 412.883C291.671 412.518 292.583 412.03 293.351 411.418C294.119 410.806 294.731 410.122 295.187 409.367C295.643 408.599 295.955 407.818 296.125 407.023L296.164 406.808H291.632L291.593 406.945C291.437 407.414 291.157 407.85 290.753 408.254C290.363 408.657 289.861 408.989 289.25 409.25C288.638 409.497 287.928 409.621 287.121 409.621C286.04 409.621 285.109 409.387 284.328 408.918C283.546 408.436 282.941 407.752 282.511 406.867C282.095 405.969 281.886 404.888 281.886 403.625V401.75C281.886 400.448 282.095 399.341 282.511 398.43C282.941 397.518 283.527 396.835 284.269 396.379C285.024 395.91 285.884 395.676 286.847 395.676C287.798 395.676 288.638 395.904 289.367 396.359C290.096 396.802 290.669 397.473 291.085 398.371C291.502 399.269 291.71 400.396 291.71 401.75V403.625L294.054 400.598H279.464V403.84H296.378V402.277C296.378 400.194 295.988 398.371 295.207 396.808C294.438 395.246 293.332 394.035 291.886 393.176C290.454 392.303 288.755 391.867 286.789 391.867C284.809 391.867 283.091 392.316 281.632 393.215C280.187 394.113 279.061 395.376 278.253 397.004C277.459 398.618 277.062 400.513 277.062 402.687V402.707C277.062 404.894 277.459 406.789 278.253 408.391C279.048 409.992 280.187 411.229 281.671 412.101C283.169 412.974 284.953 413.41 287.023 413.41ZM307.57 413.41C309.263 413.41 310.76 413.143 312.062 412.609C313.377 412.062 314.406 411.301 315.148 410.324C315.89 409.335 316.261 408.189 316.261 406.887V406.867C316.261 405.37 315.806 404.178 314.894 403.293C313.983 402.394 312.453 401.704 310.304 401.223L306.867 400.461C305.799 400.213 305.037 399.888 304.582 399.484C304.139 399.081 303.917 398.586 303.917 398V397.98C303.917 397.473 304.054 397.03 304.328 396.652C304.614 396.275 305.018 395.982 305.539 395.773C306.072 395.565 306.697 395.461 307.414 395.461C308.546 395.461 309.438 395.734 310.089 396.281C310.74 396.815 311.118 397.499 311.222 398.332L311.242 398.488H315.773L315.753 398.273C315.701 397.075 315.337 395.995 314.66 395.031C313.996 394.068 313.052 393.299 311.828 392.726C310.604 392.154 309.132 391.867 307.414 391.867C305.76 391.867 304.308 392.134 303.058 392.668C301.808 393.202 300.838 393.944 300.148 394.894C299.458 395.845 299.113 396.952 299.113 398.215V398.234C299.113 399.771 299.608 401.027 300.597 402.004C301.6 402.98 303.091 403.683 305.07 404.113L308.507 404.875C309.588 405.122 310.337 405.441 310.753 405.832C311.17 406.21 311.378 406.704 311.378 407.316V407.336C311.378 407.844 311.222 408.286 310.91 408.664C310.61 409.042 310.181 409.328 309.621 409.523C309.061 409.719 308.384 409.816 307.589 409.816C306.352 409.816 305.389 409.569 304.699 409.074C304.022 408.579 303.592 407.883 303.41 406.984L303.371 406.808H298.585L298.605 406.984C298.761 408.26 299.197 409.387 299.914 410.363C300.643 411.327 301.645 412.075 302.921 412.609C304.21 413.143 305.76 413.41 307.57 413.41ZM326.417 413.41C327.993 413.41 329.308 413.078 330.363 412.414C331.417 411.75 332.212 410.864 332.746 409.758H332.843V413H337.707V392.297H332.843V404.289C332.843 405.292 332.654 406.17 332.277 406.926C331.899 407.681 331.365 408.273 330.675 408.703C329.998 409.12 329.197 409.328 328.273 409.328C326.88 409.328 325.838 408.931 325.148 408.137C324.458 407.329 324.113 406.19 324.113 404.719V392.297H319.269V405.695C319.269 407.284 319.549 408.657 320.109 409.816C320.669 410.975 321.476 411.867 322.531 412.492C323.598 413.104 324.894 413.41 326.417 413.41ZM341.71 413H346.554V400.324C346.554 399.478 346.723 398.729 347.062 398.078C347.414 397.427 347.889 396.913 348.488 396.535C349.087 396.157 349.777 395.969 350.558 395.969C351.691 395.969 352.583 396.307 353.234 396.984C353.898 397.648 354.23 398.566 354.23 399.738V413H358.957V400.207C358.957 399.374 359.119 398.638 359.445 398C359.783 397.362 360.246 396.867 360.832 396.516C361.431 396.151 362.121 395.969 362.902 395.969C364.1 395.969 365.018 396.32 365.656 397.023C366.294 397.726 366.613 398.716 366.613 399.992V413H371.476V398.801C371.476 397.407 371.19 396.196 370.617 395.168C370.057 394.126 369.269 393.319 368.253 392.746C367.251 392.16 366.066 391.867 364.699 391.867C363.709 391.867 362.785 392.043 361.925 392.394C361.079 392.733 360.337 393.215 359.699 393.84C359.074 394.452 358.592 395.187 358.253 396.047H358.156C357.908 395.161 357.511 394.413 356.964 393.801C356.431 393.176 355.779 392.7 355.011 392.375C354.243 392.036 353.377 391.867 352.414 391.867C351.046 391.867 349.855 392.212 348.839 392.902C347.824 393.579 347.101 394.484 346.671 395.617H346.554V392.297H341.71V413ZM384.484 413.41C385.825 413.41 387.023 413.234 388.078 412.883C389.132 412.518 390.044 412.03 390.812 411.418C391.58 410.806 392.192 410.122 392.648 409.367C393.104 408.599 393.416 407.818 393.585 407.023L393.625 406.808H389.093L389.054 406.945C388.898 407.414 388.618 407.85 388.214 408.254C387.824 408.657 387.322 408.989 386.71 409.25C386.098 409.497 385.389 409.621 384.582 409.621C383.501 409.621 382.57 409.387 381.789 408.918C381.007 408.436 380.402 407.752 379.972 406.867C379.556 405.969 379.347 404.888 379.347 403.625V401.75C379.347 400.448 379.556 399.341 379.972 398.43C380.402 397.518 380.988 396.835 381.73 396.379C382.485 395.91 383.345 395.676 384.308 395.676C385.259 395.676 386.098 395.904 386.828 396.359C387.557 396.802 388.13 397.473 388.546 398.371C388.963 399.269 389.171 400.396 389.171 401.75V403.625L391.515 400.598H376.925V403.84H393.839V402.277C393.839 400.194 393.449 398.371 392.667 396.808C391.899 395.246 390.792 394.035 389.347 393.176C387.915 392.303 386.216 391.867 384.25 391.867C382.27 391.867 380.552 392.316 379.093 393.215C377.648 394.113 376.522 395.376 375.714 397.004C374.92 398.618 374.523 400.513 374.523 402.687V402.707C374.523 404.894 374.92 406.789 375.714 408.391C376.509 409.992 377.648 411.229 379.132 412.101C380.63 412.974 382.414 413.41 384.484 413.41Z" fill="black"/>
<defs>
<filter id="filter0_dii_307_13" x="0.34639" y="0.903553" width="545.8" height="709.8" filterUnits="userSpaceOnUse" color-interpolation-filters="sRGB">
<feFlood flood-opacity="0" result="BackgroundImageFix"/>
<feColorMatrix in="SourceAlpha" type="matrix" values="0 0 0 0 0 0 0 0 0 0 0 0 0 0 0 0 0 0 127 0" result="hardAlpha"/>
<feOffset dx="-50.2534" dy="20.3037"/>
<feGaussianBlur stdDeviation="54.2"/>
<feColorMatrix type="matrix" values="0 0 0 0 0.185833 0 0 0 0 0.179639 0 0 0 0 0.174219 0 0 0 0.2015 0"/>
<feBlend mode="normal" in2="BackgroundImageFix" result="effect1_dropShadow_307_13"/>
<feBlend mode="normal" in="SourceGraphic" in2="effect1_dropShadow_307_13" result="shape"/>
<feColorMatrix in="SourceAlpha" type="matrix" values="0 0 0 0 0 0 0 0 0 0 0 0 0 0 0 0 0 0 127 0" result="hardAlpha"/>
<feOffset dx="-14.406" dy="5.82039"/>
<feGaussianBlur stdDeviation="7.76867"/>
<feComposite in2="hardAlpha" operator="arithmetic" k2="-1" k3="1"/>
<feColorMatrix type="matrix" values="0 0 0 0 1 0 0 0 0 1 0 0 0 0 0.991305 0 0 0 1 0"/>
<feBlend mode="normal" in2="shape" result="effect2_innerShadow_307_13"/>
<feColorMatrix in="SourceAlpha" type="matrix" values="0 0 0 0 0 0 0 0 0 0 0 0 0 0 0 0 0 0 127 0" result="hardAlpha"/>
<feOffset dx="14.406" dy="-5.82039"/>
<feGaussianBlur stdDeviation="7.76867"/>
<feComposite in2="hardAlpha" operator="arithmetic" k2="-1" k3="1"/>
<feColorMatrix type="matrix" values="0 0 0 0 0.768885 0 0 0 0 0.743256 0 0 0 0 0.72083 0 0 0 1 0"/>
<feBlend mode="normal" in2="effect2_innerShadow_307_13" result="effect3_innerShadow_307_13"/>
</filter>
<linearGradient id="paint0_linear_307_13" x1="344.454" y1="57.3175" x2="13.6638" y2="146.507" gradientUnits="userSpaceOnUse">
<stop stop-color="#FFFDF5"/>
<stop offset="1" stop-color="#CCC5BF"/>
</linearGradient>
</defs>
</svg>
