<svg width="126" height="32" viewBox="0 0 126 32" fill="none" xmlns="http://www.w3.org/2000/svg">
<path d="M18.9087 21H25.3247V19.8135H20.2271V10.4312H18.9087V21ZM30.1294 21.1392C30.5933 21.1392 31.0107 21.0806 31.3818 20.9634C31.7578 20.8413 32.0825 20.6802 32.356 20.48C32.6294 20.2749 32.8516 20.0479 33.0225 19.7988C33.1982 19.5449 33.3203 19.2837 33.3887 19.0151L33.4033 18.9565H32.1289L32.0996 19.0225C32.0312 19.1787 31.9116 19.3325 31.7407 19.4839C31.5698 19.6353 31.3525 19.7598 31.0889 19.8574C30.8252 19.9551 30.5151 20.0039 30.1587 20.0039C29.6802 20.0039 29.2651 19.8989 28.9136 19.689C28.562 19.4741 28.291 19.1689 28.1006 18.7734C27.9102 18.373 27.8149 17.8921 27.8149 17.3306V16.8252C27.8149 16.2344 27.9126 15.7363 28.1079 15.3311C28.3032 14.9258 28.5669 14.6206 28.8989 14.4155C29.2358 14.2056 29.6167 14.1006 30.0415 14.1006C30.4663 14.1006 30.8423 14.2007 31.1694 14.4009C31.4966 14.5962 31.7529 14.894 31.9385 15.2944C32.124 15.6948 32.2168 16.2051 32.2168 16.8252V17.3306L32.8467 16.4004H27.1704V17.4185H33.4985V16.9204C33.4985 16.1343 33.3594 15.4458 33.0811 14.855C32.8076 14.2593 32.4121 13.7954 31.8945 13.4634C31.3818 13.1313 30.7666 12.9653 30.0488 12.9653C29.3359 12.9653 28.7134 13.1387 28.1812 13.4854C27.6489 13.832 27.2363 14.313 26.9434 14.9282C26.6553 15.5435 26.5112 16.2588 26.5112 17.0742V17.0815C26.5112 17.9067 26.6553 18.6245 26.9434 19.2349C27.2363 19.8403 27.6514 20.3091 28.1885 20.6411C28.7305 20.9731 29.3774 21.1392 30.1294 21.1392ZM37.644 21.1392C38.0005 21.1392 38.3276 21.0903 38.6255 20.9927C38.9233 20.8901 39.1895 20.7412 39.4238 20.5459C39.6631 20.3506 39.8657 20.1138 40.0317 19.8354H40.1489V21H41.4233V15.5947C41.4233 15.0479 41.3062 14.5791 41.0718 14.1885C40.8423 13.793 40.5029 13.4902 40.0537 13.2803C39.6094 13.0703 39.0649 12.9653 38.4204 12.9653C37.8589 12.9653 37.3584 13.0532 36.9189 13.229C36.4795 13.3999 36.1206 13.6416 35.8423 13.9541C35.5688 14.2617 35.3979 14.623 35.3296 15.0381L35.3223 15.082H36.5967L36.604 15.0601C36.7065 14.7524 36.9092 14.5156 37.2119 14.3496C37.5146 14.1787 37.9028 14.0933 38.3765 14.0933C38.9673 14.0933 39.4092 14.2227 39.7021 14.4814C40 14.7354 40.1489 15.1064 40.1489 15.5947V18.0557C40.1489 18.4316 40.0513 18.7686 39.856 19.0664C39.6655 19.3643 39.4019 19.6011 39.0649 19.7769C38.728 19.9478 38.3423 20.0332 37.9077 20.0332C37.4487 20.0332 37.0679 19.9233 36.7651 19.7036C36.4624 19.479 36.311 19.1665 36.311 18.7661V18.7515C36.311 18.3608 36.4478 18.0581 36.7212 17.8433C36.9995 17.6284 37.439 17.5039 38.0396 17.4697L40.7861 17.2939V16.2759L37.8857 16.4517C36.9678 16.5054 36.2573 16.7324 35.7544 17.1328C35.2563 17.5283 35.0073 18.0776 35.0073 18.7808V18.7954C35.0073 19.2739 35.1221 19.689 35.3516 20.0405C35.5859 20.3921 35.9009 20.6631 36.2964 20.8535C36.6968 21.0439 37.146 21.1392 37.644 21.1392ZM43.7524 21H45.0269V16.1074C45.0269 15.7217 45.1147 15.3848 45.2905 15.0967C45.4712 14.8086 45.7178 14.584 46.0303 14.4229C46.3428 14.2617 46.7017 14.1812 47.1069 14.1812C47.2485 14.1812 47.3804 14.1885 47.5024 14.2031C47.6294 14.2129 47.7588 14.23 47.8906 14.2544V13.0166C47.8271 13.0068 47.7344 12.9971 47.6123 12.9873C47.4951 12.9727 47.3755 12.9653 47.2534 12.9653C46.7212 12.9653 46.2744 13.0801 45.9131 13.3096C45.5518 13.5391 45.2954 13.8613 45.144 14.2764H45.0269V13.1045H43.7524V21ZM49.6118 21H50.8862V16.3271C50.8862 15.8633 50.9692 15.4653 51.1353 15.1333C51.3062 14.8013 51.5454 14.5449 51.853 14.3643C52.1606 14.1836 52.5244 14.0933 52.9443 14.0933C53.5742 14.0933 54.0381 14.2666 54.3359 14.6133C54.6387 14.9551 54.79 15.4824 54.79 16.1953V21H56.0645V15.8877C56.0645 14.9502 55.8252 14.23 55.3467 13.7271C54.873 13.2192 54.1919 12.9653 53.3032 12.9653C52.7222 12.9653 52.2437 13.0825 51.8677 13.3169C51.4917 13.5464 51.2036 13.8711 51.0034 14.291H50.8862V13.1045H49.6118V21ZM62.7515 21H63.9819V12.9287H64.6265L63.1543 10.7241L67.4023 21H68.5156L72.771 10.7241L71.2915 12.9287H71.936V21H73.1665V10.4312H71.6357L68.0176 19.2495H67.9004L64.2822 10.4312H62.7515V21ZM78.9453 21.1392C79.6973 21.1392 80.3442 20.9756 80.8862 20.6484C81.4282 20.3164 81.8457 19.8452 82.1387 19.2349C82.4365 18.6245 82.5854 17.8994 82.5854 17.0596V17.0449C82.5854 16.2002 82.4365 15.4727 82.1387 14.8623C81.8457 14.252 81.4282 13.7832 80.8862 13.4561C80.3442 13.1289 79.6973 12.9653 78.9453 12.9653C78.1982 12.9653 77.5513 13.1289 77.0044 13.4561C76.4624 13.7832 76.0425 14.252 75.7446 14.8623C75.4517 15.4727 75.3052 16.2002 75.3052 17.0449V17.0596C75.3052 17.8994 75.4517 18.6245 75.7446 19.2349C76.0425 19.8452 76.4624 20.3164 77.0044 20.6484C77.5513 20.9756 78.1982 21.1392 78.9453 21.1392ZM78.9453 20.0112C78.4473 20.0112 78.0249 19.894 77.6782 19.6597C77.3315 19.4253 77.0654 19.0884 76.8799 18.6489C76.6992 18.2095 76.6089 17.6797 76.6089 17.0596V17.0449C76.6089 16.4199 76.6992 15.8877 76.8799 15.4482C77.0654 15.0088 77.3315 14.6743 77.6782 14.4448C78.0249 14.2104 78.4473 14.0933 78.9453 14.0933C79.4434 14.0933 79.8657 14.2104 80.2124 14.4448C80.5591 14.6743 80.8228 15.0088 81.0034 15.4482C81.189 15.8877 81.2817 16.4199 81.2817 17.0449V17.0596C81.2817 17.6797 81.189 18.2095 81.0034 18.6489C80.8228 19.0884 80.5591 19.4253 80.2124 19.6597C79.8657 19.894 79.4434 20.0112 78.9453 20.0112ZM84.563 21H85.8374V16.1074C85.8374 15.7217 85.9253 15.3848 86.1011 15.0967C86.2817 14.8086 86.5283 14.584 86.8408 14.4229C87.1533 14.2617 87.5122 14.1812 87.9175 14.1812C88.0591 14.1812 88.1909 14.1885 88.313 14.2031C88.4399 14.2129 88.5693 14.23 88.7012 14.2544V13.0166C88.6377 13.0068 88.5449 12.9971 88.4229 12.9873C88.3057 12.9727 88.186 12.9653 88.064 12.9653C87.5317 12.9653 87.085 13.0801 86.7236 13.3096C86.3623 13.5391 86.106 13.8613 85.9546 14.2764H85.8374V13.1045H84.563V21ZM93.2788 21.1392C93.7427 21.1392 94.1602 21.0806 94.5312 20.9634C94.9072 20.8413 95.2319 20.6802 95.5054 20.48C95.7788 20.2749 96.001 20.0479 96.1719 19.7988C96.3477 19.5449 96.4697 19.2837 96.5381 19.0151L96.5527 18.9565H95.2783L95.249 19.0225C95.1807 19.1787 95.061 19.3325 94.8901 19.4839C94.7192 19.6353 94.502 19.7598 94.2383 19.8574C93.9746 19.9551 93.6646 20.0039 93.3081 20.0039C92.8296 20.0039 92.4146 19.8989 92.063 19.689C91.7114 19.4741 91.4404 19.1689 91.25 18.7734C91.0596 18.373 90.9644 17.8921 90.9644 17.3306V16.8252C90.9644 16.2344 91.062 15.7363 91.2573 15.3311C91.4526 14.9258 91.7163 14.6206 92.0483 14.4155C92.3853 14.2056 92.7661 14.1006 93.1909 14.1006C93.6157 14.1006 93.9917 14.2007 94.3188 14.4009C94.646 14.5962 94.9023 14.894 95.0879 15.2944C95.2734 15.6948 95.3662 16.2051 95.3662 16.8252V17.3306L95.9961 16.4004H90.3198V17.4185H96.6479V16.9204C96.6479 16.1343 96.5088 15.4458 96.2305 14.855C95.957 14.2593 95.5615 13.7954 95.0439 13.4634C94.5312 13.1313 93.916 12.9653 93.1982 12.9653C92.4854 12.9653 91.8628 13.1387 91.3306 13.4854C90.7983 13.832 90.3857 14.313 90.0928 14.9282C89.8047 15.5435 89.6606 16.2588 89.6606 17.0742V17.0815C89.6606 17.9067 89.8047 18.6245 90.0928 19.2349C90.3857 19.8403 90.8008 20.3091 91.3379 20.6411C91.8799 20.9731 92.5269 21.1392 93.2788 21.1392Z" fill="black"/>
<path d="M109.03 16.5303C109.323 16.2374 109.323 15.7626 109.03 15.4697L104.257 10.6967C103.964 10.4038 103.49 10.4038 103.197 10.6967C102.904 10.9896 102.904 11.4645 103.197 11.7574L107.439 16L103.197 20.2426C102.904 20.5355 102.904 21.0104 103.197 21.3033C103.49 21.5962 103.964 21.5962 104.257 21.3033L109.03 16.5303ZM107.5 16.75H108.5V15.25H107.5V16.75Z" fill="black"/>
<rect x="0.5" y="0.5" width="125" height="31" rx="9.5" stroke="black"/>
</svg>
