<svg width="547" height="711" viewBox="0 0 547 711" fill="none" xmlns="http://www.w3.org/2000/svg">
<g filter="url(#filter0_dii_304_13)">
<rect width="329" height="493" rx="20" transform="matrix(-1 0 0 1 488 89)" fill="url(#paint0_linear_304_13)"/>
</g>
<path d="M218.234 442H219.552V437.452L223.302 431.431H221.801L218.952 436.126H218.834L215.985 431.431H214.484L218.234 437.452V442ZM226.994 442.139C227.746 442.139 228.393 441.976 228.935 441.648C229.477 441.316 229.894 440.845 230.187 440.235C230.485 439.625 230.634 438.899 230.634 438.06V438.045C230.634 437.2 230.485 436.473 230.187 435.862C229.894 435.252 229.477 434.783 228.935 434.456C228.393 434.129 227.746 433.965 226.994 433.965C226.247 433.965 225.6 434.129 225.053 434.456C224.511 434.783 224.091 435.252 223.793 435.862C223.5 436.473 223.354 437.2 223.354 438.045V438.06C223.354 438.899 223.5 439.625 223.793 440.235C224.091 440.845 224.511 441.316 225.053 441.648C225.6 441.976 226.247 442.139 226.994 442.139ZM226.994 441.011C226.496 441.011 226.073 440.894 225.727 440.66C225.38 440.425 225.114 440.088 224.928 439.649C224.748 439.209 224.657 438.68 224.657 438.06V438.045C224.657 437.42 224.748 436.888 224.928 436.448C225.114 436.009 225.38 435.674 225.727 435.445C226.073 435.21 226.496 435.093 226.994 435.093C227.492 435.093 227.914 435.21 228.261 435.445C228.607 435.674 228.871 436.009 229.052 436.448C229.237 436.888 229.33 437.42 229.33 438.045V438.06C229.33 438.68 229.237 439.209 229.052 439.649C228.871 440.088 228.607 440.425 228.261 440.66C227.914 440.894 227.492 441.011 226.994 441.011ZM235.255 442.139C235.836 442.139 236.322 442.024 236.713 441.795C237.108 441.565 237.404 441.241 237.599 440.821H237.716V442H238.991V434.104H237.716V438.777C237.716 439.236 237.636 439.634 237.475 439.971C237.313 440.303 237.074 440.56 236.757 440.74C236.439 440.921 236.049 441.011 235.585 441.011C234.955 441.011 234.501 440.838 234.223 440.491C233.949 440.145 233.812 439.617 233.812 438.909V434.104H232.538V439.217C232.538 439.837 232.638 440.367 232.838 440.806C233.043 441.241 233.349 441.573 233.754 441.802C234.159 442.027 234.66 442.139 235.255 442.139ZM247.113 442H248.388L250.146 435.892H250.263L252.028 442H253.31L255.521 434.104H254.254L252.702 440.418H252.584L250.819 434.104H249.611L247.846 440.418H247.729L246.176 434.104H244.901L247.113 442ZM257.235 442H258.51V434.104H257.235V442ZM257.88 432.581C258.124 432.581 258.332 432.496 258.502 432.325C258.673 432.149 258.759 431.941 258.759 431.702C258.759 431.458 258.673 431.25 258.502 431.08C258.332 430.909 258.124 430.823 257.88 430.823C257.641 430.823 257.433 430.909 257.257 431.08C257.086 431.25 257.001 431.458 257.001 431.702C257.001 431.941 257.086 432.149 257.257 432.325C257.433 432.496 257.641 432.581 257.88 432.581ZM260.985 442H262.26V430.97H260.985V442ZM269.452 442H270.727V435.159H272.521V434.104H270.727V433.262C270.727 432.828 270.824 432.5 271.02 432.281C271.22 432.061 271.547 431.951 272.001 431.951C272.113 431.951 272.221 431.954 272.323 431.958C272.426 431.963 272.516 431.973 272.594 431.988V430.97C272.462 430.945 272.326 430.928 272.184 430.918C272.047 430.904 271.901 430.896 271.745 430.896C270.998 430.896 270.429 431.089 270.038 431.475C269.647 431.856 269.452 432.439 269.452 433.226V434.104H268.141V435.159H269.452V442ZM274.389 442H275.663V434.104H274.389V442ZM275.033 432.581C275.277 432.581 275.485 432.496 275.656 432.325C275.827 432.149 275.912 431.941 275.912 431.702C275.912 431.458 275.827 431.25 275.656 431.08C275.485 430.909 275.277 430.823 275.033 430.823C274.794 430.823 274.586 430.909 274.411 431.08C274.24 431.25 274.154 431.458 274.154 431.702C274.154 431.941 274.24 432.149 274.411 432.325C274.586 432.496 274.794 432.581 275.033 432.581ZM278.065 442H279.34V437.327C279.34 436.863 279.423 436.465 279.589 436.133C279.76 435.801 279.999 435.545 280.307 435.364C280.614 435.184 280.978 435.093 281.398 435.093C282.028 435.093 282.492 435.267 282.79 435.613C283.092 435.955 283.244 436.482 283.244 437.195V442H284.518V436.888C284.518 435.95 284.279 435.23 283.8 434.727C283.327 434.219 282.646 433.965 281.757 433.965C281.176 433.965 280.697 434.083 280.321 434.317C279.945 434.546 279.657 434.871 279.457 435.291H279.34V434.104H278.065V442ZM289.74 442.139C290.292 442.139 290.78 442.017 291.205 441.773C291.63 441.524 291.962 441.18 292.201 440.74H292.318V442H293.593V430.97H292.318V435.35H292.201C291.986 434.93 291.657 434.595 291.212 434.346C290.773 434.092 290.282 433.965 289.74 433.965C289.071 433.965 288.488 434.134 287.99 434.471C287.497 434.808 287.113 435.281 286.84 435.892C286.566 436.502 286.43 437.22 286.43 438.045V438.06C286.43 438.88 286.566 439.598 286.84 440.213C287.113 440.823 287.499 441.297 287.997 441.634C288.495 441.971 289.076 442.139 289.74 442.139ZM290.033 441.011C289.555 441.011 289.142 440.894 288.795 440.66C288.454 440.42 288.19 440.081 288.004 439.642C287.824 439.197 287.733 438.67 287.733 438.06V438.045C287.733 437.43 287.824 436.902 288.004 436.463C288.19 436.023 288.454 435.687 288.795 435.452C289.142 435.213 289.555 435.093 290.033 435.093C290.512 435.093 290.924 435.213 291.271 435.452C291.618 435.691 291.884 436.031 292.069 436.47C292.255 436.91 292.348 437.435 292.348 438.045V438.06C292.348 438.665 292.255 439.19 292.069 439.634C291.884 440.074 291.618 440.413 291.271 440.652C290.924 440.892 290.512 441.011 290.033 441.011ZM302.968 442.139C303.568 442.139 304.105 442.039 304.579 441.839C305.058 441.639 305.436 441.36 305.714 441.004C305.993 440.643 306.132 440.228 306.132 439.759V439.744C306.132 439.178 305.949 438.726 305.583 438.389C305.221 438.052 304.669 437.793 303.927 437.613L302.711 437.32C302.248 437.208 301.911 437.063 301.701 436.888C301.491 436.712 301.386 436.49 301.386 436.221V436.207C301.386 435.972 301.457 435.767 301.598 435.591C301.74 435.416 301.933 435.279 302.177 435.181C302.421 435.079 302.699 435.027 303.012 435.027C303.49 435.027 303.878 435.125 304.176 435.32C304.474 435.516 304.665 435.77 304.748 436.082H306C305.941 435.652 305.78 435.279 305.517 434.961C305.258 434.644 304.914 434.4 304.484 434.229C304.059 434.053 303.571 433.965 303.019 433.965C302.462 433.965 301.962 434.065 301.518 434.266C301.073 434.466 300.722 434.739 300.463 435.086C300.209 435.433 300.082 435.826 300.082 436.265V436.272C300.082 436.839 300.255 437.293 300.602 437.635C300.949 437.972 301.491 438.228 302.228 438.404L303.451 438.697C303.939 438.814 304.291 438.968 304.506 439.158C304.721 439.344 304.828 439.571 304.828 439.839V439.854C304.828 440.093 304.75 440.306 304.594 440.491C304.438 440.672 304.223 440.816 303.949 440.923C303.681 441.026 303.368 441.077 303.012 441.077C302.509 441.077 302.101 440.977 301.789 440.777C301.476 440.577 301.266 440.313 301.159 439.986H299.855C299.904 440.42 300.062 440.799 300.331 441.121C300.604 441.443 300.966 441.695 301.415 441.875C301.864 442.051 302.382 442.139 302.968 442.139ZM311.354 442.139C312.106 442.139 312.753 441.976 313.295 441.648C313.837 441.316 314.254 440.845 314.547 440.235C314.845 439.625 314.994 438.899 314.994 438.06V438.045C314.994 437.2 314.845 436.473 314.547 435.862C314.254 435.252 313.837 434.783 313.295 434.456C312.753 434.129 312.106 433.965 311.354 433.965C310.607 433.965 309.96 434.129 309.413 434.456C308.871 434.783 308.451 435.252 308.153 435.862C307.86 436.473 307.714 437.2 307.714 438.045V438.06C307.714 438.899 307.86 439.625 308.153 440.235C308.451 440.845 308.871 441.316 309.413 441.648C309.96 441.976 310.607 442.139 311.354 442.139ZM311.354 441.011C310.856 441.011 310.434 440.894 310.087 440.66C309.74 440.425 309.474 440.088 309.289 439.649C309.108 439.209 309.018 438.68 309.018 438.06V438.045C309.018 437.42 309.108 436.888 309.289 436.448C309.474 436.009 309.74 435.674 310.087 435.445C310.434 435.21 310.856 435.093 311.354 435.093C311.852 435.093 312.274 435.21 312.621 435.445C312.968 435.674 313.231 436.009 313.412 436.448C313.598 436.888 313.69 437.42 313.69 438.045V438.06C313.69 438.68 313.598 439.209 313.412 439.649C313.231 440.088 312.968 440.425 312.621 440.66C312.274 440.894 311.852 441.011 311.354 441.011ZM316.972 442H318.246V437.107C318.246 436.736 318.324 436.399 318.48 436.097C318.642 435.789 318.859 435.545 319.132 435.364C319.411 435.184 319.721 435.093 320.062 435.093C320.561 435.093 320.958 435.235 321.256 435.518C321.554 435.796 321.703 436.17 321.703 436.639V442H322.978V436.924C322.978 436.587 323.053 436.282 323.205 436.009C323.356 435.73 323.568 435.508 323.842 435.342C324.115 435.176 324.435 435.093 324.801 435.093C325.358 435.093 325.771 435.24 326.039 435.533C326.312 435.821 326.449 436.255 326.449 436.836V442H327.724V436.543C327.724 435.992 327.626 435.525 327.431 435.145C327.235 434.759 326.95 434.466 326.574 434.266C326.203 434.065 325.749 433.965 325.211 433.965C324.85 433.965 324.511 434.024 324.193 434.141C323.881 434.253 323.605 434.415 323.366 434.625C323.126 434.83 322.936 435.071 322.794 435.35H322.677C322.555 435.076 322.392 434.837 322.187 434.632C321.981 434.422 321.737 434.258 321.454 434.141C321.171 434.024 320.851 433.965 320.495 433.965C319.977 433.965 319.535 434.083 319.169 434.317C318.808 434.551 318.539 434.881 318.363 435.306H318.246V434.104H316.972V442ZM333.246 442.139C333.71 442.139 334.127 442.081 334.499 441.963C334.875 441.841 335.199 441.68 335.473 441.48C335.746 441.275 335.968 441.048 336.139 440.799C336.315 440.545 336.437 440.284 336.505 440.015L336.52 439.957H335.246L335.216 440.022C335.148 440.179 335.028 440.333 334.857 440.484C334.687 440.635 334.469 440.76 334.206 440.857C333.942 440.955 333.632 441.004 333.275 441.004C332.797 441.004 332.382 440.899 332.03 440.689C331.679 440.474 331.408 440.169 331.217 439.773C331.027 439.373 330.932 438.892 330.932 438.331V437.825C330.932 437.234 331.029 436.736 331.225 436.331C331.42 435.926 331.684 435.621 332.016 435.416C332.353 435.206 332.733 435.101 333.158 435.101C333.583 435.101 333.959 435.201 334.286 435.401C334.613 435.596 334.87 435.894 335.055 436.294C335.241 436.695 335.333 437.205 335.333 437.825V438.331L335.963 437.4H330.287V438.418H336.615V437.92C336.615 437.134 336.476 436.446 336.198 435.855C335.924 435.259 335.529 434.795 335.011 434.463C334.499 434.131 333.883 433.965 333.166 433.965C332.453 433.965 331.83 434.139 331.298 434.485C330.766 434.832 330.353 435.313 330.06 435.928C329.772 436.543 329.628 437.259 329.628 438.074V438.082C329.628 438.907 329.772 439.625 330.06 440.235C330.353 440.84 330.768 441.309 331.305 441.641C331.847 441.973 332.494 442.139 333.246 442.139ZM346.056 442.139C346.808 442.139 347.455 441.976 347.997 441.648C348.539 441.316 348.957 440.845 349.25 440.235C349.547 439.625 349.696 438.899 349.696 438.06V438.045C349.696 437.2 349.547 436.473 349.25 435.862C348.957 435.252 348.539 434.783 347.997 434.456C347.455 434.129 346.808 433.965 346.056 433.965C345.309 433.965 344.662 434.129 344.115 434.456C343.573 434.783 343.153 435.252 342.855 435.862C342.562 436.473 342.416 437.2 342.416 438.045V438.06C342.416 438.899 342.562 439.625 342.855 440.235C343.153 440.845 343.573 441.316 344.115 441.648C344.662 441.976 345.309 442.139 346.056 442.139ZM346.056 441.011C345.558 441.011 345.136 440.894 344.789 440.66C344.442 440.425 344.176 440.088 343.991 439.649C343.81 439.209 343.72 438.68 343.72 438.06V438.045C343.72 437.42 343.81 436.888 343.991 436.448C344.176 436.009 344.442 435.674 344.789 435.445C345.136 435.21 345.558 435.093 346.056 435.093C346.554 435.093 346.977 435.21 347.323 435.445C347.67 435.674 347.934 436.009 348.114 436.448C348.3 436.888 348.393 437.42 348.393 438.045V438.06C348.393 438.68 348.3 439.209 348.114 439.649C347.934 440.088 347.67 440.425 347.323 440.66C346.977 440.894 346.554 441.011 346.056 441.011ZM352.201 442H353.476V435.159H355.27V434.104H353.476V433.262C353.476 432.828 353.573 432.5 353.769 432.281C353.969 432.061 354.296 431.951 354.75 431.951C354.862 431.951 354.97 431.954 355.072 431.958C355.175 431.963 355.265 431.973 355.343 431.988V430.97C355.211 430.945 355.075 430.928 354.933 430.918C354.796 430.904 354.65 430.896 354.494 430.896C353.747 430.896 353.178 431.089 352.787 431.475C352.396 431.856 352.201 432.439 352.201 433.226V434.104H350.89V435.159H352.201V442ZM364.132 442.059C364.259 442.059 364.384 442.051 364.506 442.037C364.628 442.022 364.75 442.005 364.872 441.985V440.901C364.755 440.911 364.655 440.918 364.572 440.923C364.494 440.928 364.398 440.931 364.286 440.931C363.876 440.931 363.583 440.831 363.407 440.63C363.231 440.425 363.144 440.091 363.144 439.627V435.159H364.872V434.104H363.144V432.061H361.825V434.104H360.58V435.159H361.825V439.949C361.825 440.701 362.006 441.241 362.367 441.568C362.733 441.895 363.322 442.059 364.132 442.059ZM366.85 442H368.124V437.327C368.124 436.863 368.207 436.465 368.373 436.133C368.544 435.801 368.783 435.545 369.091 435.364C369.398 435.184 369.762 435.093 370.182 435.093C370.812 435.093 371.276 435.267 371.574 435.613C371.876 435.955 372.028 436.482 372.028 437.195V442H373.302V436.888C373.302 436.263 373.195 435.733 372.98 435.298C372.765 434.864 372.453 434.534 372.042 434.31C371.632 434.08 371.132 433.965 370.541 433.965C369.96 433.965 369.481 434.083 369.105 434.317C368.729 434.546 368.441 434.871 368.241 435.291H368.124V430.97H366.85V442ZM378.832 442.139C379.296 442.139 379.713 442.081 380.084 441.963C380.46 441.841 380.785 441.68 381.059 441.48C381.332 441.275 381.554 441.048 381.725 440.799C381.901 440.545 382.023 440.284 382.091 440.015L382.106 439.957H380.832L380.802 440.022C380.734 440.179 380.614 440.333 380.443 440.484C380.272 440.635 380.055 440.76 379.792 440.857C379.528 440.955 379.218 441.004 378.861 441.004C378.383 441.004 377.968 440.899 377.616 440.689C377.265 440.474 376.994 440.169 376.803 439.773C376.613 439.373 376.518 438.892 376.518 438.331V437.825C376.518 437.234 376.615 436.736 376.811 436.331C377.006 435.926 377.27 435.621 377.602 435.416C377.938 435.206 378.319 435.101 378.744 435.101C379.169 435.101 379.545 435.201 379.872 435.401C380.199 435.596 380.456 435.894 380.641 436.294C380.827 436.695 380.919 437.205 380.919 437.825V438.331L381.549 437.4H375.873V438.418H382.201V437.92C382.201 437.134 382.062 436.446 381.784 435.855C381.51 435.259 381.115 434.795 380.597 434.463C380.084 434.131 379.469 433.965 378.751 433.965C378.039 433.965 377.416 434.139 376.884 434.485C376.352 434.832 375.939 435.313 375.646 435.928C375.358 436.543 375.214 437.259 375.214 438.074V438.082C375.214 438.907 375.358 439.625 375.646 440.235C375.939 440.84 376.354 441.309 376.891 441.641C377.433 441.973 378.08 442.139 378.832 442.139ZM391.62 442.139C392.084 442.139 392.501 442.081 392.873 441.963C393.249 441.841 393.573 441.68 393.847 441.48C394.12 441.275 394.342 441.048 394.513 440.799C394.689 440.545 394.811 440.284 394.879 440.015L394.894 439.957H393.62L393.59 440.022C393.522 440.179 393.402 440.333 393.231 440.484C393.061 440.635 392.843 440.76 392.58 440.857C392.316 440.955 392.006 441.004 391.649 441.004C391.171 441.004 390.756 440.899 390.404 440.689C390.053 440.474 389.782 440.169 389.591 439.773C389.401 439.373 389.306 438.892 389.306 438.331V437.825C389.306 437.234 389.403 436.736 389.599 436.331C389.794 435.926 390.058 435.621 390.39 435.416C390.727 435.206 391.107 435.101 391.532 435.101C391.957 435.101 392.333 435.201 392.66 435.401C392.987 435.596 393.244 435.894 393.429 436.294C393.615 436.695 393.708 437.205 393.708 437.825V438.331L394.337 437.4H388.661V438.418H394.989V437.92C394.989 437.134 394.85 436.446 394.572 435.855C394.298 435.259 393.903 434.795 393.385 434.463C392.873 434.131 392.257 433.965 391.54 433.965C390.827 433.965 390.204 434.139 389.672 434.485C389.14 434.832 388.727 435.313 388.434 435.928C388.146 436.543 388.002 437.259 388.002 438.074V438.082C388.002 438.907 388.146 439.625 388.434 440.235C388.727 440.84 389.142 441.309 389.679 441.641C390.221 441.973 390.868 442.139 391.62 442.139ZM399.677 442.139C400.277 442.139 400.814 442.039 401.288 441.839C401.767 441.639 402.145 441.36 402.423 441.004C402.702 440.643 402.841 440.228 402.841 439.759V439.744C402.841 439.178 402.658 438.726 402.292 438.389C401.93 438.052 401.378 437.793 400.636 437.613L399.42 437.32C398.957 437.208 398.62 437.063 398.41 436.888C398.2 436.712 398.095 436.49 398.095 436.221V436.207C398.095 435.972 398.166 435.767 398.307 435.591C398.449 435.416 398.642 435.279 398.886 435.181C399.13 435.079 399.408 435.027 399.721 435.027C400.199 435.027 400.587 435.125 400.885 435.32C401.183 435.516 401.374 435.77 401.457 436.082H402.709C402.65 435.652 402.489 435.279 402.226 434.961C401.967 434.644 401.623 434.4 401.193 434.229C400.768 434.053 400.28 433.965 399.728 433.965C399.171 433.965 398.671 434.065 398.227 434.266C397.782 434.466 397.431 434.739 397.172 435.086C396.918 435.433 396.791 435.826 396.791 436.265V436.272C396.791 436.839 396.964 437.293 397.311 437.635C397.658 437.972 398.2 438.228 398.937 438.404L400.16 438.697C400.648 438.814 401 438.968 401.215 439.158C401.43 439.344 401.537 439.571 401.537 439.839V439.854C401.537 440.093 401.459 440.306 401.303 440.491C401.146 440.672 400.932 440.816 400.658 440.923C400.39 441.026 400.077 441.077 399.721 441.077C399.218 441.077 398.81 440.977 398.498 440.777C398.185 440.577 397.975 440.313 397.868 439.986H396.564C396.613 440.42 396.771 440.799 397.04 441.121C397.313 441.443 397.675 441.695 398.124 441.875C398.573 442.051 399.091 442.139 399.677 442.139ZM407.382 442.139C407.982 442.139 408.52 442.039 408.993 441.839C409.472 441.639 409.85 441.36 410.128 441.004C410.407 440.643 410.546 440.228 410.546 439.759V439.744C410.546 439.178 410.363 438.726 409.997 438.389C409.635 438.052 409.083 437.793 408.341 437.613L407.125 437.32C406.662 437.208 406.325 437.063 406.115 436.888C405.905 436.712 405.8 436.49 405.8 436.221V436.207C405.8 435.972 405.871 435.767 406.012 435.591C406.154 435.416 406.347 435.279 406.591 435.181C406.835 435.079 407.113 435.027 407.426 435.027C407.904 435.027 408.292 435.125 408.59 435.32C408.888 435.516 409.079 435.77 409.162 436.082H410.414C410.355 435.652 410.194 435.279 409.931 434.961C409.672 434.644 409.328 434.4 408.898 434.229C408.473 434.053 407.985 433.965 407.433 433.965C406.876 433.965 406.376 434.065 405.932 434.266C405.487 434.466 405.136 434.739 404.877 435.086C404.623 435.433 404.496 435.826 404.496 436.265V436.272C404.496 436.839 404.669 437.293 405.016 437.635C405.363 437.972 405.905 438.228 406.642 438.404L407.865 438.697C408.354 438.814 408.705 438.968 408.92 439.158C409.135 439.344 409.242 439.571 409.242 439.839V439.854C409.242 440.093 409.164 440.306 409.008 440.491C408.852 440.672 408.637 440.816 408.363 440.923C408.095 441.026 407.782 441.077 407.426 441.077C406.923 441.077 406.515 440.977 406.203 440.777C405.89 440.577 405.68 440.313 405.573 439.986H404.269C404.318 440.42 404.477 440.799 404.745 441.121C405.019 441.443 405.38 441.695 405.829 441.875C406.278 442.051 406.796 442.139 407.382 442.139ZM414.691 442.139C415.048 442.139 415.375 442.09 415.673 441.993C415.971 441.89 416.237 441.741 416.471 441.546C416.71 441.351 416.913 441.114 417.079 440.835H417.196V442H418.471V436.595C418.471 436.048 418.354 435.579 418.119 435.188C417.89 434.793 417.55 434.49 417.101 434.28C416.657 434.07 416.112 433.965 415.468 433.965C414.906 433.965 414.406 434.053 413.966 434.229C413.527 434.4 413.168 434.642 412.89 434.954C412.616 435.262 412.445 435.623 412.377 436.038L412.37 436.082H413.644L413.651 436.06C413.754 435.752 413.957 435.516 414.259 435.35C414.562 435.179 414.95 435.093 415.424 435.093C416.015 435.093 416.457 435.223 416.75 435.481C417.047 435.735 417.196 436.106 417.196 436.595V439.056C417.196 439.432 417.099 439.769 416.903 440.066C416.713 440.364 416.449 440.601 416.112 440.777C415.775 440.948 415.39 441.033 414.955 441.033C414.496 441.033 414.115 440.923 413.812 440.704C413.51 440.479 413.358 440.167 413.358 439.766V439.751C413.358 439.361 413.495 439.058 413.769 438.843C414.047 438.628 414.486 438.504 415.087 438.47L417.833 438.294V437.276L414.933 437.452C414.015 437.505 413.305 437.732 412.802 438.133C412.304 438.528 412.055 439.078 412.055 439.781V439.795C412.055 440.274 412.169 440.689 412.399 441.041C412.633 441.392 412.948 441.663 413.344 441.854C413.744 442.044 414.193 442.139 414.691 442.139ZM421.181 444.769C421.649 444.769 422.042 444.7 422.36 444.563C422.682 444.432 422.96 444.2 423.195 443.868C423.434 443.536 423.664 443.074 423.883 442.483L426.967 434.104H425.626L423.202 441.399L423.708 440.601H423.107L423.612 441.399L421.181 434.104H419.818L422.741 442.007L422.594 442.476C422.453 442.93 422.265 443.25 422.03 443.436C421.801 443.621 421.505 443.714 421.144 443.714C421.056 443.714 420.966 443.711 420.873 443.707C420.78 443.702 420.695 443.692 420.617 443.677V444.725C420.705 444.739 420.8 444.749 420.902 444.754C421.005 444.764 421.098 444.769 421.181 444.769ZM431.142 442.139C431.742 442.139 432.279 442.039 432.753 441.839C433.231 441.639 433.61 441.36 433.888 441.004C434.167 440.643 434.306 440.228 434.306 439.759V439.744C434.306 439.178 434.123 438.726 433.756 438.389C433.395 438.052 432.843 437.793 432.101 437.613L430.885 437.32C430.421 437.208 430.084 437.063 429.875 436.888C429.665 436.712 429.56 436.49 429.56 436.221V436.207C429.56 435.972 429.63 435.767 429.772 435.591C429.914 435.416 430.106 435.279 430.351 435.181C430.595 435.079 430.873 435.027 431.186 435.027C431.664 435.027 432.052 435.125 432.35 435.32C432.648 435.516 432.838 435.77 432.921 436.082H434.174C434.115 435.652 433.954 435.279 433.69 434.961C433.432 434.644 433.087 434.4 432.658 434.229C432.233 434.053 431.745 433.965 431.193 433.965C430.636 433.965 430.136 434.065 429.691 434.266C429.247 434.466 428.896 434.739 428.637 435.086C428.383 435.433 428.256 435.826 428.256 436.265V436.272C428.256 436.839 428.429 437.293 428.776 437.635C429.123 437.972 429.665 438.228 430.402 438.404L431.625 438.697C432.113 438.814 432.465 438.968 432.68 439.158C432.895 439.344 433.002 439.571 433.002 439.839V439.854C433.002 440.093 432.924 440.306 432.768 440.491C432.611 440.672 432.396 440.816 432.123 440.923C431.854 441.026 431.542 441.077 431.186 441.077C430.683 441.077 430.275 440.977 429.962 440.777C429.65 440.577 429.44 440.313 429.333 439.986H428.029C428.078 440.42 428.236 440.799 428.505 441.121C428.778 441.443 429.14 441.695 429.589 441.875C430.038 442.051 430.556 442.139 431.142 442.139ZM440.531 442H441.806V434.104H440.531V442ZM441.176 432.581C441.42 432.581 441.627 432.496 441.798 432.325C441.969 432.149 442.055 431.941 442.055 431.702C442.055 431.458 441.969 431.25 441.798 431.08C441.627 430.909 441.42 430.823 441.176 430.823C440.937 430.823 440.729 430.909 440.553 431.08C440.382 431.25 440.297 431.458 440.297 431.702C440.297 431.941 440.382 432.149 440.553 432.325C440.729 432.496 440.937 432.581 441.176 432.581ZM231.732 460H233.007V455.327C233.007 454.863 233.09 454.465 233.256 454.133C233.427 453.801 233.666 453.545 233.974 453.364C234.281 453.184 234.645 453.093 235.065 453.093C235.695 453.093 236.159 453.267 236.457 453.613C236.759 453.955 236.911 454.482 236.911 455.195V460H238.185V454.888C238.185 454.263 238.078 453.733 237.863 453.298C237.648 452.864 237.335 452.534 236.925 452.31C236.515 452.08 236.015 451.965 235.424 451.965C234.843 451.965 234.364 452.083 233.988 452.317C233.612 452.546 233.324 452.871 233.124 453.291H233.007V448.97H231.732V460ZM242.66 460.139C243.017 460.139 243.344 460.09 243.642 459.993C243.939 459.89 244.206 459.741 244.44 459.546C244.679 459.351 244.882 459.114 245.048 458.835H245.165V460H246.439V454.595C246.439 454.048 246.322 453.579 246.088 453.188C245.858 452.793 245.519 452.49 245.07 452.28C244.625 452.07 244.081 451.965 243.437 451.965C242.875 451.965 242.375 452.053 241.935 452.229C241.496 452.4 241.137 452.642 240.858 452.954C240.585 453.262 240.414 453.623 240.346 454.038L240.338 454.082H241.613L241.62 454.06C241.723 453.752 241.925 453.516 242.228 453.35C242.531 453.179 242.919 453.093 243.393 453.093C243.983 453.093 244.425 453.223 244.718 453.481C245.016 453.735 245.165 454.106 245.165 454.595V457.056C245.165 457.432 245.067 457.769 244.872 458.066C244.682 458.364 244.418 458.601 244.081 458.777C243.744 458.948 243.358 459.033 242.924 459.033C242.465 459.033 242.084 458.923 241.781 458.704C241.479 458.479 241.327 458.167 241.327 457.766V457.751C241.327 457.361 241.464 457.058 241.737 456.843C242.016 456.628 242.455 456.504 243.056 456.47L245.802 456.294V455.276L242.902 455.452C241.984 455.505 241.273 455.732 240.771 456.133C240.272 456.528 240.023 457.078 240.023 457.781V457.795C240.023 458.274 240.138 458.689 240.368 459.041C240.602 459.392 240.917 459.663 241.312 459.854C241.713 460.044 242.162 460.139 242.66 460.139ZM250.709 460H251.999L254.921 452.104H253.573L251.413 458.608H251.295L249.135 452.104H247.787L250.709 460ZM259.535 460.139C259.999 460.139 260.417 460.081 260.788 459.963C261.164 459.841 261.488 459.68 261.762 459.48C262.035 459.275 262.257 459.048 262.428 458.799C262.604 458.545 262.726 458.284 262.794 458.015L262.809 457.957H261.535L261.505 458.022C261.437 458.179 261.317 458.333 261.146 458.484C260.976 458.635 260.758 458.76 260.495 458.857C260.231 458.955 259.921 459.004 259.564 459.004C259.086 459.004 258.671 458.899 258.319 458.689C257.968 458.474 257.697 458.169 257.506 457.773C257.316 457.373 257.221 456.892 257.221 456.331V455.825C257.221 455.234 257.318 454.736 257.514 454.331C257.709 453.926 257.973 453.621 258.305 453.416C258.642 453.206 259.022 453.101 259.447 453.101C259.872 453.101 260.248 453.201 260.575 453.401C260.902 453.596 261.159 453.894 261.344 454.294C261.53 454.695 261.623 455.205 261.623 455.825V456.331L262.252 455.4H256.576V456.418H262.904V455.92C262.904 455.134 262.765 454.446 262.487 453.855C262.213 453.259 261.818 452.795 261.3 452.463C260.788 452.131 260.172 451.965 259.455 451.965C258.742 451.965 258.119 452.139 257.587 452.485C257.055 452.832 256.642 453.313 256.349 453.928C256.061 454.543 255.917 455.259 255.917 456.074V456.082C255.917 456.907 256.061 457.625 256.349 458.235C256.642 458.84 257.057 459.309 257.594 459.641C258.136 459.973 258.783 460.139 259.535 460.139ZM270.624 460H271.898L273.656 453.892H273.773L275.539 460H276.82L279.032 452.104H277.765L276.212 458.418H276.095L274.33 452.104H273.122L271.356 458.418H271.239L269.687 452.104H268.412L270.624 460ZM280.717 460H281.991V455.107C281.991 454.722 282.079 454.385 282.255 454.097C282.436 453.809 282.682 453.584 282.995 453.423C283.307 453.262 283.666 453.181 284.071 453.181C284.213 453.181 284.345 453.188 284.467 453.203C284.594 453.213 284.723 453.23 284.855 453.254V452.017C284.792 452.007 284.699 451.997 284.577 451.987C284.459 451.973 284.34 451.965 284.218 451.965C283.686 451.965 283.239 452.08 282.877 452.31C282.516 452.539 282.26 452.861 282.108 453.276H281.991V452.104H280.717V460ZM286.459 460H287.733V452.104H286.459V460ZM287.104 450.581C287.348 450.581 287.555 450.496 287.726 450.325C287.897 450.149 287.982 449.941 287.982 449.702C287.982 449.458 287.897 449.25 287.726 449.08C287.555 448.909 287.348 448.823 287.104 448.823C286.864 448.823 286.657 448.909 286.481 449.08C286.31 449.25 286.225 449.458 286.225 449.702C286.225 449.941 286.31 450.149 286.481 450.325C286.657 450.496 286.864 450.581 287.104 450.581ZM292.941 460.059C293.068 460.059 293.192 460.051 293.314 460.037C293.437 460.022 293.559 460.005 293.681 459.985V458.901C293.563 458.911 293.463 458.918 293.38 458.923C293.302 458.928 293.207 458.931 293.095 458.931C292.685 458.931 292.392 458.831 292.216 458.63C292.04 458.425 291.952 458.091 291.952 457.627V453.159H293.681V452.104H291.952V450.061H290.634V452.104H289.389V453.159H290.634V457.949C290.634 458.701 290.814 459.241 291.176 459.568C291.542 459.895 292.13 460.059 292.941 460.059ZM298.705 460.139C299.169 460.139 299.586 460.081 299.958 459.963C300.333 459.841 300.658 459.68 300.932 459.48C301.205 459.275 301.427 459.048 301.598 458.799C301.774 458.545 301.896 458.284 301.964 458.015L301.979 457.957H300.705L300.675 458.022C300.607 458.179 300.487 458.333 300.316 458.484C300.146 458.635 299.928 458.76 299.665 458.857C299.401 458.955 299.091 459.004 298.734 459.004C298.256 459.004 297.841 458.899 297.489 458.689C297.138 458.474 296.867 458.169 296.676 457.773C296.486 457.373 296.391 456.892 296.391 456.331V455.825C296.391 455.234 296.488 454.736 296.684 454.331C296.879 453.926 297.143 453.621 297.475 453.416C297.812 453.206 298.192 453.101 298.617 453.101C299.042 453.101 299.418 453.201 299.745 453.401C300.072 453.596 300.329 453.894 300.514 454.294C300.7 454.695 300.792 455.205 300.792 455.825V456.331L301.422 455.4H295.746V456.418H302.074V455.92C302.074 455.134 301.935 454.446 301.657 453.855C301.383 453.259 300.988 452.795 300.47 452.463C299.958 452.131 299.342 451.965 298.625 451.965C297.912 451.965 297.289 452.139 296.757 452.485C296.225 452.832 295.812 453.313 295.519 453.928C295.231 454.543 295.087 455.259 295.087 456.074V456.082C295.087 456.907 295.231 457.625 295.519 458.235C295.812 458.84 296.227 459.309 296.764 459.641C297.306 459.973 297.953 460.139 298.705 460.139ZM304.052 460H305.326V455.327C305.326 454.863 305.409 454.465 305.575 454.133C305.746 453.801 305.985 453.545 306.293 453.364C306.601 453.184 306.964 453.093 307.384 453.093C308.014 453.093 308.478 453.267 308.776 453.613C309.079 453.955 309.23 454.482 309.23 455.195V460H310.504V454.888C310.504 453.95 310.265 453.23 309.787 452.727C309.313 452.219 308.632 451.965 307.743 451.965C307.162 451.965 306.684 452.083 306.308 452.317C305.932 452.546 305.644 452.871 305.443 453.291H305.326V452.104H304.052V460ZM320.275 460.139C321.027 460.139 321.674 459.976 322.216 459.648C322.758 459.316 323.175 458.845 323.468 458.235C323.766 457.625 323.915 456.899 323.915 456.06V456.045C323.915 455.2 323.766 454.473 323.468 453.862C323.175 453.252 322.758 452.783 322.216 452.456C321.674 452.129 321.027 451.965 320.275 451.965C319.528 451.965 318.881 452.129 318.334 452.456C317.792 452.783 317.372 453.252 317.074 453.862C316.781 454.473 316.635 455.2 316.635 456.045V456.06C316.635 456.899 316.781 457.625 317.074 458.235C317.372 458.845 317.792 459.316 318.334 459.648C318.881 459.976 319.528 460.139 320.275 460.139ZM320.275 459.011C319.777 459.011 319.354 458.894 319.008 458.66C318.661 458.425 318.395 458.088 318.209 457.649C318.029 457.209 317.938 456.68 317.938 456.06V456.045C317.938 455.42 318.029 454.888 318.209 454.448C318.395 454.009 318.661 453.674 319.008 453.445C319.354 453.21 319.777 453.093 320.275 453.093C320.773 453.093 321.195 453.21 321.542 453.445C321.889 453.674 322.152 454.009 322.333 454.448C322.519 454.888 322.611 455.42 322.611 456.045V456.06C322.611 456.68 322.519 457.209 322.333 457.649C322.152 458.088 321.889 458.425 321.542 458.66C321.195 458.894 320.773 459.011 320.275 459.011ZM326.42 460H327.694V453.159H329.489V452.104H327.694V451.262C327.694 450.828 327.792 450.5 327.987 450.281C328.188 450.061 328.515 449.951 328.969 449.951C329.081 449.951 329.188 449.954 329.291 449.958C329.394 449.963 329.484 449.973 329.562 449.988V448.97C329.43 448.945 329.293 448.928 329.152 448.918C329.015 448.904 328.869 448.896 328.712 448.896C327.965 448.896 327.396 449.089 327.006 449.475C326.615 449.856 326.42 450.439 326.42 451.226V452.104H325.109V453.159H326.42V460ZM335.546 460H336.82V455.107C336.82 454.736 336.898 454.399 337.055 454.097C337.216 453.789 337.433 453.545 337.707 453.364C337.985 453.184 338.295 453.093 338.637 453.093C339.135 453.093 339.533 453.235 339.831 453.518C340.128 453.796 340.277 454.17 340.277 454.639V460H341.552V454.924C341.552 454.587 341.627 454.282 341.779 454.009C341.93 453.73 342.143 453.508 342.416 453.342C342.689 453.176 343.009 453.093 343.375 453.093C343.932 453.093 344.345 453.24 344.613 453.533C344.887 453.821 345.023 454.255 345.023 454.836V460H346.298V454.543C346.298 453.992 346.2 453.525 346.005 453.145C345.81 452.759 345.524 452.466 345.148 452.266C344.777 452.065 344.323 451.965 343.786 451.965C343.424 451.965 343.085 452.024 342.768 452.141C342.455 452.253 342.179 452.415 341.94 452.625C341.701 452.83 341.51 453.071 341.369 453.35H341.251C341.129 453.076 340.966 452.837 340.761 452.632C340.556 452.422 340.312 452.258 340.028 452.141C339.745 452.024 339.425 451.965 339.069 451.965C338.551 451.965 338.109 452.083 337.743 452.317C337.382 452.551 337.113 452.881 336.938 453.306H336.82V452.104H335.546V460ZM351.242 460.139C351.823 460.139 352.309 460.024 352.699 459.795C353.095 459.565 353.39 459.241 353.585 458.821H353.703V460H354.977V452.104H353.703V456.777C353.703 457.236 353.622 457.634 353.461 457.971C353.3 458.303 353.061 458.56 352.743 458.74C352.426 458.921 352.035 459.011 351.571 459.011C350.941 459.011 350.487 458.838 350.209 458.491C349.936 458.145 349.799 457.617 349.799 456.909V452.104H348.524V457.217C348.524 457.837 348.625 458.367 348.825 458.806C349.03 459.241 349.335 459.573 349.74 459.802C350.146 460.027 350.646 460.139 351.242 460.139ZM360.163 460.059C360.29 460.059 360.414 460.051 360.536 460.037C360.658 460.022 360.78 460.005 360.902 459.985V458.901C360.785 458.911 360.685 458.918 360.602 458.923C360.524 458.928 360.429 458.931 360.316 458.931C359.906 458.931 359.613 458.831 359.438 458.63C359.262 458.425 359.174 458.091 359.174 457.627V453.159H360.902V452.104H359.174V450.061H357.855V452.104H356.61V453.159H357.855V457.949C357.855 458.701 358.036 459.241 358.397 459.568C358.764 459.895 359.352 460.059 360.163 460.059ZM362.836 460H364.11V452.104H362.836V460ZM363.48 450.581C363.725 450.581 363.932 450.496 364.103 450.325C364.274 450.149 364.359 449.941 364.359 449.702C364.359 449.458 364.274 449.25 364.103 449.08C363.932 448.909 363.725 448.823 363.48 448.823C363.241 448.823 363.034 448.909 362.858 449.08C362.687 449.25 362.602 449.458 362.602 449.702C362.602 449.941 362.687 450.149 362.858 450.325C363.034 450.496 363.241 450.581 363.48 450.581ZM366.513 462.637H367.787V458.755H367.904C368.051 459.038 368.246 459.282 368.49 459.487C368.739 459.692 369.022 459.854 369.34 459.971C369.662 460.083 370.004 460.139 370.365 460.139C371.034 460.139 371.615 459.971 372.108 459.634C372.606 459.297 372.992 458.823 373.266 458.213C373.539 457.603 373.676 456.885 373.676 456.06V456.045C373.676 455.225 373.539 454.509 373.266 453.899C372.992 453.289 372.606 452.815 372.108 452.478C371.615 452.136 371.034 451.965 370.365 451.965C369.999 451.965 369.66 452.021 369.347 452.134C369.035 452.246 368.756 452.407 368.512 452.617C368.268 452.822 368.065 453.071 367.904 453.364H367.787V452.104H366.513V462.637ZM370.072 459.011C369.594 459.011 369.181 458.892 368.834 458.652C368.488 458.413 368.222 458.074 368.036 457.634C367.851 457.19 367.758 456.665 367.758 456.06V456.045C367.758 455.435 367.851 454.91 368.036 454.47C368.222 454.031 368.488 453.691 368.834 453.452C369.181 453.213 369.594 453.093 370.072 453.093C370.556 453.093 370.968 453.213 371.31 453.452C371.652 453.687 371.913 454.023 372.094 454.463C372.279 454.902 372.372 455.43 372.372 456.045V456.06C372.372 456.67 372.279 457.197 372.094 457.642C371.913 458.081 371.652 458.42 371.31 458.66C370.968 458.894 370.556 459.011 370.072 459.011ZM375.741 460H377.016V448.97H375.741V460ZM382.685 460.139C383.148 460.139 383.566 460.081 383.937 459.963C384.313 459.841 384.638 459.68 384.911 459.48C385.185 459.275 385.407 459.048 385.578 458.799C385.753 458.545 385.875 458.284 385.944 458.015L385.958 457.957H384.684L384.655 458.022C384.586 458.179 384.467 458.333 384.296 458.484C384.125 458.635 383.908 458.76 383.644 458.857C383.38 458.955 383.07 459.004 382.714 459.004C382.235 459.004 381.82 458.899 381.469 458.689C381.117 458.474 380.846 458.169 380.656 457.773C380.465 457.373 380.37 456.892 380.37 456.331V455.825C380.37 455.234 380.468 454.736 380.663 454.331C380.858 453.926 381.122 453.621 381.454 453.416C381.791 453.206 382.172 453.101 382.597 453.101C383.021 453.101 383.397 453.201 383.725 453.401C384.052 453.596 384.308 453.894 384.494 454.294C384.679 454.695 384.772 455.205 384.772 455.825V456.331L385.402 455.4H379.726V456.418H386.054V455.92C386.054 455.134 385.915 454.446 385.636 453.855C385.363 453.259 384.967 452.795 384.45 452.463C383.937 452.131 383.322 451.965 382.604 451.965C381.891 451.965 381.269 452.139 380.736 452.485C380.204 452.832 379.792 453.313 379.499 453.928C379.21 454.543 379.066 455.259 379.066 456.074V456.082C379.066 456.907 379.21 457.625 379.499 458.235C379.792 458.84 380.207 459.309 380.744 459.641C381.286 459.973 381.933 460.139 382.685 460.139ZM395.055 460.059C395.182 460.059 395.307 460.051 395.429 460.037C395.551 460.022 395.673 460.005 395.795 459.985V458.901C395.678 458.911 395.578 458.918 395.495 458.923C395.417 458.928 395.321 458.931 395.209 458.931C394.799 458.931 394.506 458.831 394.33 458.63C394.154 458.425 394.066 458.091 394.066 457.627V453.159H395.795V452.104H394.066V450.061H392.748V452.104H391.503V453.159H392.748V457.949C392.748 458.701 392.929 459.241 393.29 459.568C393.656 459.895 394.245 460.059 395.055 460.059ZM400.841 460.139C401.593 460.139 402.24 459.976 402.782 459.648C403.324 459.316 403.742 458.845 404.035 458.235C404.333 457.625 404.481 456.899 404.481 456.06V456.045C404.481 455.2 404.333 454.473 404.035 453.862C403.742 453.252 403.324 452.783 402.782 452.456C402.24 452.129 401.593 451.965 400.841 451.965C400.094 451.965 399.447 452.129 398.9 452.456C398.358 452.783 397.938 453.252 397.641 453.862C397.348 454.473 397.201 455.2 397.201 456.045V456.06C397.201 456.899 397.348 457.625 397.641 458.235C397.938 458.845 398.358 459.316 398.9 459.648C399.447 459.976 400.094 460.139 400.841 460.139ZM400.841 459.011C400.343 459.011 399.921 458.894 399.574 458.66C399.228 458.425 398.961 458.088 398.776 457.649C398.595 457.209 398.505 456.68 398.505 456.06V456.045C398.505 455.42 398.595 454.888 398.776 454.448C398.961 454.009 399.228 453.674 399.574 453.445C399.921 453.21 400.343 453.093 400.841 453.093C401.339 453.093 401.762 453.21 402.108 453.445C402.455 453.674 402.719 454.009 402.899 454.448C403.085 454.888 403.178 455.42 403.178 456.045V456.06C403.178 456.68 403.085 457.209 402.899 457.649C402.719 458.088 402.455 458.425 402.108 458.66C401.762 458.894 401.339 459.011 400.841 459.011ZM406.459 462.637H407.733V458.755H407.851C407.997 459.038 408.192 459.282 408.437 459.487C408.686 459.692 408.969 459.854 409.286 459.971C409.608 460.083 409.95 460.139 410.312 460.139C410.98 460.139 411.562 459.971 412.055 459.634C412.553 459.297 412.938 458.823 413.212 458.213C413.485 457.603 413.622 456.885 413.622 456.06V456.045C413.622 455.225 413.485 454.509 413.212 453.899C412.938 453.289 412.553 452.815 412.055 452.478C411.562 452.136 410.98 451.965 410.312 451.965C409.945 451.965 409.606 452.021 409.293 452.134C408.981 452.246 408.703 452.407 408.458 452.617C408.214 452.822 408.012 453.071 407.851 453.364H407.733V452.104H406.459V462.637ZM410.019 459.011C409.54 459.011 409.127 458.892 408.781 458.652C408.434 458.413 408.168 458.074 407.982 457.634C407.797 457.19 407.704 456.665 407.704 456.06V456.045C407.704 455.435 407.797 454.91 407.982 454.47C408.168 454.031 408.434 453.691 408.781 453.452C409.127 453.213 409.54 453.093 410.019 453.093C410.502 453.093 410.915 453.213 411.256 453.452C411.598 453.687 411.859 454.023 412.04 454.463C412.226 454.902 412.318 455.43 412.318 456.045V456.06C412.318 456.67 412.226 457.197 412.04 457.642C411.859 458.081 411.598 458.42 411.256 458.66C410.915 458.894 410.502 459.011 410.019 459.011ZM415.644 460H416.918V452.104H415.644V460ZM416.288 450.581C416.532 450.581 416.74 450.496 416.911 450.325C417.082 450.149 417.167 449.941 417.167 449.702C417.167 449.458 417.082 449.25 416.911 449.08C416.74 448.909 416.532 448.823 416.288 448.823C416.049 448.823 415.841 448.909 415.666 449.08C415.495 449.25 415.409 449.458 415.409 449.702C415.409 449.941 415.495 450.149 415.666 450.325C415.841 450.496 416.049 450.581 416.288 450.581ZM422.55 460.139C423.185 460.139 423.727 460.034 424.176 459.824C424.625 459.614 424.987 459.326 425.26 458.96C425.534 458.589 425.724 458.167 425.832 457.693L425.846 457.612L424.586 457.62L424.572 457.664C424.425 458.103 424.184 458.438 423.847 458.667C423.51 458.896 423.075 459.011 422.543 459.011C422.074 459.011 421.667 458.889 421.32 458.645C420.973 458.401 420.705 458.057 420.514 457.612C420.324 457.163 420.229 456.636 420.229 456.03V456.016C420.229 455.42 420.321 454.905 420.507 454.47C420.697 454.031 420.966 453.691 421.312 453.452C421.659 453.213 422.069 453.093 422.543 453.093C423.109 453.093 423.566 453.23 423.913 453.503C424.259 453.777 424.481 454.109 424.579 454.5L424.586 454.521H425.854L425.846 454.478C425.768 454.009 425.59 453.586 425.312 453.21C425.033 452.83 424.662 452.527 424.198 452.302C423.734 452.078 423.183 451.965 422.543 451.965C421.806 451.965 421.166 452.134 420.624 452.471C420.082 452.803 419.662 453.271 419.364 453.877C419.071 454.482 418.925 455.195 418.925 456.016V456.03C418.925 456.865 419.074 457.59 419.372 458.206C419.669 458.821 420.089 459.297 420.631 459.634C421.173 459.971 421.813 460.139 422.55 460.139ZM233.644 478H234.918V470.104H233.644V478ZM234.289 468.581C234.533 468.581 234.74 468.496 234.911 468.325C235.082 468.149 235.167 467.941 235.167 467.702C235.167 467.458 235.082 467.25 234.911 467.08C234.74 466.909 234.533 466.823 234.289 466.823C234.049 466.823 233.842 466.909 233.666 467.08C233.495 467.25 233.41 467.458 233.41 467.702C233.41 467.941 233.495 468.149 233.666 468.325C233.842 468.496 234.049 468.581 234.289 468.581ZM237.321 478H238.595V473.327C238.595 472.863 238.678 472.465 238.844 472.133C239.015 471.801 239.254 471.545 239.562 471.364C239.87 471.184 240.233 471.093 240.653 471.093C241.283 471.093 241.747 471.267 242.045 471.613C242.348 471.955 242.499 472.482 242.499 473.195V478H243.773V472.888C243.773 471.95 243.534 471.23 243.056 470.727C242.582 470.219 241.901 469.965 241.012 469.965C240.431 469.965 239.953 470.083 239.577 470.317C239.201 470.546 238.913 470.871 238.712 471.291H238.595V470.104H237.321V478ZM249.311 478.139C249.945 478.139 250.487 478.034 250.937 477.824C251.386 477.614 251.747 477.326 252.021 476.96C252.294 476.589 252.484 476.167 252.592 475.693L252.606 475.612L251.347 475.62L251.332 475.664C251.186 476.103 250.944 476.438 250.607 476.667C250.27 476.896 249.835 477.011 249.303 477.011C248.834 477.011 248.427 476.889 248.08 476.645C247.733 476.401 247.465 476.057 247.274 475.612C247.084 475.163 246.989 474.636 246.989 474.03V474.016C246.989 473.42 247.082 472.905 247.267 472.47C247.458 472.031 247.726 471.691 248.073 471.452C248.419 471.213 248.83 471.093 249.303 471.093C249.87 471.093 250.326 471.23 250.673 471.503C251.02 471.777 251.242 472.109 251.339 472.5L251.347 472.521H252.614L252.606 472.478C252.528 472.009 252.35 471.586 252.072 471.21C251.793 470.83 251.422 470.527 250.958 470.302C250.495 470.078 249.943 469.965 249.303 469.965C248.566 469.965 247.926 470.134 247.384 470.471C246.842 470.803 246.422 471.271 246.125 471.877C245.832 472.482 245.685 473.195 245.685 474.016V474.03C245.685 474.865 245.834 475.59 246.132 476.206C246.43 476.821 246.85 477.297 247.392 477.634C247.934 477.971 248.573 478.139 249.311 478.139ZM254.547 478H255.822V466.97H254.547V478ZM260.912 478.139C261.493 478.139 261.979 478.024 262.37 477.795C262.765 477.565 263.061 477.241 263.256 476.821H263.373V478H264.647V470.104H263.373V474.777C263.373 475.236 263.292 475.634 263.131 475.971C262.97 476.303 262.731 476.56 262.414 476.74C262.096 476.921 261.706 477.011 261.242 477.011C260.612 477.011 260.158 476.838 259.879 476.491C259.606 476.145 259.469 475.617 259.469 474.909V470.104H258.195V475.217C258.195 475.837 258.295 476.367 258.495 476.806C258.7 477.241 259.005 477.573 259.411 477.802C259.816 478.027 260.316 478.139 260.912 478.139ZM269.943 478.139C270.495 478.139 270.983 478.017 271.408 477.773C271.833 477.524 272.165 477.18 272.404 476.74H272.521V478H273.795V466.97H272.521V471.35H272.404C272.189 470.93 271.859 470.595 271.415 470.346C270.976 470.092 270.485 469.965 269.943 469.965C269.274 469.965 268.69 470.134 268.192 470.471C267.699 470.808 267.316 471.281 267.042 471.892C266.769 472.502 266.632 473.22 266.632 474.045V474.06C266.632 474.88 266.769 475.598 267.042 476.213C267.316 476.823 267.702 477.297 268.2 477.634C268.698 477.971 269.279 478.139 269.943 478.139ZM270.236 477.011C269.757 477.011 269.345 476.894 268.998 476.66C268.656 476.42 268.393 476.081 268.207 475.642C268.026 475.197 267.936 474.67 267.936 474.06V474.045C267.936 473.43 268.026 472.902 268.207 472.463C268.393 472.023 268.656 471.687 268.998 471.452C269.345 471.213 269.757 471.093 270.236 471.093C270.714 471.093 271.127 471.213 271.474 471.452C271.82 471.691 272.086 472.031 272.272 472.47C272.458 472.91 272.55 473.435 272.55 474.045V474.06C272.55 474.665 272.458 475.19 272.272 475.634C272.086 476.074 271.82 476.413 271.474 476.652C271.127 476.892 270.714 477.011 270.236 477.011ZM276.271 478H277.545V470.104H276.271V478ZM276.916 468.581C277.16 468.581 277.367 468.496 277.538 468.325C277.709 468.149 277.794 467.941 277.794 467.702C277.794 467.458 277.709 467.25 277.538 467.08C277.367 466.909 277.16 466.823 276.916 466.823C276.676 466.823 276.469 466.909 276.293 467.08C276.122 467.25 276.037 467.458 276.037 467.702C276.037 467.941 276.122 468.149 276.293 468.325C276.469 468.496 276.676 468.581 276.916 468.581ZM279.948 478H281.222V473.327C281.222 472.863 281.305 472.465 281.471 472.133C281.642 471.801 281.881 471.545 282.189 471.364C282.497 471.184 282.86 471.093 283.28 471.093C283.91 471.093 284.374 471.267 284.672 471.613C284.975 471.955 285.126 472.482 285.126 473.195V478H286.4V472.888C286.4 471.95 286.161 471.23 285.683 470.727C285.209 470.219 284.528 469.965 283.639 469.965C283.058 469.965 282.58 470.083 282.204 470.317C281.828 470.546 281.54 470.871 281.339 471.291H281.222V470.104H279.948V478ZM291.959 480.783C292.677 480.783 293.3 480.664 293.827 480.424C294.354 480.19 294.76 479.855 295.043 479.421C295.331 478.986 295.475 478.476 295.475 477.89V470.104H294.201V471.408H294.113C293.952 471.11 293.749 470.854 293.505 470.639C293.266 470.424 292.99 470.258 292.677 470.141C292.365 470.024 292.023 469.965 291.652 469.965C290.963 469.965 290.37 470.131 289.872 470.463C289.374 470.791 288.988 471.242 288.715 471.818C288.446 472.39 288.312 473.044 288.312 473.781V473.796C288.312 474.533 288.446 475.188 288.715 475.759C288.983 476.33 289.364 476.779 289.857 477.106C290.355 477.429 290.944 477.59 291.623 477.59C291.984 477.59 292.321 477.539 292.633 477.436C292.946 477.329 293.227 477.172 293.476 476.967C293.725 476.762 293.932 476.516 294.098 476.228H294.215V477.824C294.215 478.405 294.015 478.854 293.615 479.172C293.219 479.494 292.667 479.655 291.959 479.655C291.393 479.655 290.939 479.558 290.597 479.362C290.255 479.172 290.05 478.928 289.982 478.63L289.975 478.623H288.656L288.642 478.63C288.71 479.06 288.883 479.436 289.162 479.758C289.445 480.085 289.823 480.336 290.297 480.512C290.771 480.693 291.325 480.783 291.959 480.783ZM291.901 476.462C291.413 476.462 290.998 476.35 290.656 476.125C290.319 475.896 290.06 475.581 289.879 475.18C289.704 474.78 289.616 474.318 289.616 473.796V473.781C289.616 473.259 289.704 472.795 289.879 472.39C290.06 471.984 290.319 471.667 290.656 471.438C290.998 471.208 291.413 471.093 291.901 471.093C292.389 471.093 292.807 471.208 293.153 471.438C293.505 471.667 293.773 471.984 293.959 472.39C294.149 472.795 294.245 473.259 294.245 473.781V473.796C294.245 474.318 294.149 474.78 293.959 475.18C293.773 475.581 293.505 475.896 293.153 476.125C292.807 476.35 292.389 476.462 291.901 476.462ZM302.067 480.637H303.341V476.755H303.458C303.605 477.038 303.8 477.282 304.044 477.487C304.293 477.692 304.577 477.854 304.894 477.971C305.216 478.083 305.558 478.139 305.919 478.139C306.588 478.139 307.169 477.971 307.663 477.634C308.161 477.297 308.546 476.823 308.82 476.213C309.093 475.603 309.23 474.885 309.23 474.06V474.045C309.23 473.225 309.093 472.509 308.82 471.899C308.546 471.289 308.161 470.815 307.663 470.478C307.169 470.136 306.588 469.965 305.919 469.965C305.553 469.965 305.214 470.021 304.901 470.134C304.589 470.246 304.311 470.407 304.066 470.617C303.822 470.822 303.62 471.071 303.458 471.364H303.341V470.104H302.067V480.637ZM305.626 477.011C305.148 477.011 304.735 476.892 304.389 476.652C304.042 476.413 303.776 476.074 303.59 475.634C303.405 475.19 303.312 474.665 303.312 474.06V474.045C303.312 473.435 303.405 472.91 303.59 472.47C303.776 472.031 304.042 471.691 304.389 471.452C304.735 471.213 305.148 471.093 305.626 471.093C306.11 471.093 306.522 471.213 306.864 471.452C307.206 471.687 307.467 472.023 307.648 472.463C307.833 472.902 307.926 473.43 307.926 474.045V474.06C307.926 474.67 307.833 475.197 307.648 475.642C307.467 476.081 307.206 476.42 306.864 476.66C306.522 476.894 306.11 477.011 305.626 477.011ZM314.467 478.139C315.219 478.139 315.866 477.976 316.408 477.648C316.95 477.316 317.367 476.845 317.66 476.235C317.958 475.625 318.107 474.899 318.107 474.06V474.045C318.107 473.2 317.958 472.473 317.66 471.862C317.367 471.252 316.95 470.783 316.408 470.456C315.866 470.129 315.219 469.965 314.467 469.965C313.72 469.965 313.073 470.129 312.526 470.456C311.984 470.783 311.564 471.252 311.266 471.862C310.973 472.473 310.827 473.2 310.827 474.045V474.06C310.827 474.899 310.973 475.625 311.266 476.235C311.564 476.845 311.984 477.316 312.526 477.648C313.073 477.976 313.72 478.139 314.467 478.139ZM314.467 477.011C313.969 477.011 313.546 476.894 313.2 476.66C312.853 476.425 312.587 476.088 312.401 475.649C312.221 475.209 312.13 474.68 312.13 474.06V474.045C312.13 473.42 312.221 472.888 312.401 472.448C312.587 472.009 312.853 471.674 313.2 471.445C313.546 471.21 313.969 471.093 314.467 471.093C314.965 471.093 315.387 471.21 315.734 471.445C316.081 471.674 316.344 472.009 316.525 472.448C316.71 472.888 316.803 473.42 316.803 474.045V474.06C316.803 474.68 316.71 475.209 316.525 475.649C316.344 476.088 316.081 476.425 315.734 476.66C315.387 476.894 314.965 477.011 314.467 477.011ZM320.158 478H321.432V466.97H320.158V478ZM326.684 478.059C326.811 478.059 326.935 478.051 327.057 478.037C327.179 478.022 327.301 478.005 327.423 477.985V476.901C327.306 476.911 327.206 476.918 327.123 476.923C327.045 476.928 326.95 476.931 326.837 476.931C326.427 476.931 326.134 476.831 325.958 476.63C325.783 476.425 325.695 476.091 325.695 475.627V471.159H327.423V470.104H325.695V468.061H324.376V470.104H323.131V471.159H324.376V475.949C324.376 476.701 324.557 477.241 324.918 477.568C325.285 477.895 325.873 478.059 326.684 478.059ZM329.357 478H330.631V470.104H329.357V478ZM330.001 468.581C330.246 468.581 330.453 468.496 330.624 468.325C330.795 468.149 330.88 467.941 330.88 467.702C330.88 467.458 330.795 467.25 330.624 467.08C330.453 466.909 330.246 466.823 330.001 466.823C329.762 466.823 329.555 466.909 329.379 467.08C329.208 467.25 329.123 467.458 329.123 467.702C329.123 467.941 329.208 468.149 329.379 468.325C329.555 468.496 329.762 468.581 330.001 468.581ZM336.264 478.139C336.898 478.139 337.44 478.034 337.89 477.824C338.339 477.614 338.7 477.326 338.974 476.96C339.247 476.589 339.438 476.167 339.545 475.693L339.56 475.612L338.3 475.62L338.285 475.664C338.139 476.103 337.897 476.438 337.56 476.667C337.223 476.896 336.789 477.011 336.256 477.011C335.788 477.011 335.38 476.889 335.033 476.645C334.687 476.401 334.418 476.057 334.228 475.612C334.037 475.163 333.942 474.636 333.942 474.03V474.016C333.942 473.42 334.035 472.905 334.22 472.47C334.411 472.031 334.679 471.691 335.026 471.452C335.373 471.213 335.783 471.093 336.256 471.093C336.823 471.093 337.279 471.23 337.626 471.503C337.973 471.777 338.195 472.109 338.292 472.5L338.3 472.521H339.567L339.56 472.478C339.481 472.009 339.303 471.586 339.025 471.21C338.747 470.83 338.375 470.527 337.912 470.302C337.448 470.078 336.896 469.965 336.256 469.965C335.519 469.965 334.879 470.134 334.337 470.471C333.795 470.803 333.375 471.271 333.078 471.877C332.785 472.482 332.638 473.195 332.638 474.016V474.03C332.638 474.865 332.787 475.59 333.085 476.206C333.383 476.821 333.803 477.297 334.345 477.634C334.887 477.971 335.526 478.139 336.264 478.139ZM343.595 478.139C343.952 478.139 344.279 478.09 344.577 477.993C344.875 477.89 345.141 477.741 345.375 477.546C345.614 477.351 345.817 477.114 345.983 476.835H346.1V478H347.375V472.595C347.375 472.048 347.257 471.579 347.023 471.188C346.793 470.793 346.454 470.49 346.005 470.28C345.561 470.07 345.016 469.965 344.372 469.965C343.81 469.965 343.31 470.053 342.87 470.229C342.431 470.4 342.072 470.642 341.793 470.954C341.52 471.262 341.349 471.623 341.281 472.038L341.273 472.082H342.548L342.555 472.06C342.658 471.752 342.86 471.516 343.163 471.35C343.466 471.179 343.854 471.093 344.328 471.093C344.918 471.093 345.36 471.223 345.653 471.481C345.951 471.735 346.1 472.106 346.1 472.595V475.056C346.1 475.432 346.002 475.769 345.807 476.066C345.617 476.364 345.353 476.601 345.016 476.777C344.679 476.948 344.293 477.033 343.859 477.033C343.4 477.033 343.019 476.923 342.716 476.704C342.414 476.479 342.262 476.167 342.262 475.766V475.751C342.262 475.361 342.399 475.058 342.672 474.843C342.951 474.628 343.39 474.504 343.991 474.47L346.737 474.294V473.276L343.837 473.452C342.919 473.505 342.208 473.732 341.706 474.133C341.208 474.528 340.958 475.078 340.958 475.781V475.795C340.958 476.274 341.073 476.689 341.303 477.041C341.537 477.392 341.852 477.663 342.248 477.854C342.648 478.044 343.097 478.139 343.595 478.139ZM349.777 478H351.051V466.97H349.777V478ZM357.716 480.637H358.991V476.755H359.108C359.254 477.038 359.45 477.282 359.694 477.487C359.943 477.692 360.226 477.854 360.543 477.971C360.866 478.083 361.208 478.139 361.569 478.139C362.238 478.139 362.819 477.971 363.312 477.634C363.81 477.297 364.196 476.823 364.469 476.213C364.743 475.603 364.879 474.885 364.879 474.06V474.045C364.879 473.225 364.743 472.509 364.469 471.899C364.196 471.289 363.81 470.815 363.312 470.478C362.819 470.136 362.238 469.965 361.569 469.965C361.203 469.965 360.863 470.021 360.551 470.134C360.238 470.246 359.96 470.407 359.716 470.617C359.472 470.822 359.269 471.071 359.108 471.364H358.991V470.104H357.716V480.637ZM361.276 477.011C360.797 477.011 360.385 476.892 360.038 476.652C359.691 476.413 359.425 476.074 359.24 475.634C359.054 475.19 358.961 474.665 358.961 474.06V474.045C358.961 473.435 359.054 472.91 359.24 472.47C359.425 472.031 359.691 471.691 360.038 471.452C360.385 471.213 360.797 471.093 361.276 471.093C361.759 471.093 362.172 471.213 362.514 471.452C362.855 471.687 363.117 472.023 363.297 472.463C363.483 472.902 363.576 473.43 363.576 474.045V474.06C363.576 474.67 363.483 475.197 363.297 475.642C363.117 476.081 362.855 476.42 362.514 476.66C362.172 476.894 361.759 477.011 361.276 477.011ZM366.945 478H368.219V473.327C368.219 472.863 368.302 472.465 368.468 472.133C368.639 471.801 368.878 471.545 369.186 471.364C369.494 471.184 369.857 471.093 370.277 471.093C370.907 471.093 371.371 471.267 371.669 471.613C371.972 471.955 372.123 472.482 372.123 473.195V478H373.397V472.888C373.397 472.263 373.29 471.733 373.075 471.298C372.86 470.864 372.548 470.534 372.138 470.31C371.728 470.08 371.227 469.965 370.636 469.965C370.055 469.965 369.577 470.083 369.201 470.317C368.825 470.546 368.537 470.871 368.336 471.291H368.219V466.97H366.945V478ZM375.734 478H377.008V470.104H375.734V478ZM376.378 468.581C376.623 468.581 376.83 468.496 377.001 468.325C377.172 468.149 377.257 467.941 377.257 467.702C377.257 467.458 377.172 467.25 377.001 467.08C376.83 466.909 376.623 466.823 376.378 466.823C376.139 466.823 375.932 466.909 375.756 467.08C375.585 467.25 375.5 467.458 375.5 467.702C375.5 467.941 375.585 468.149 375.756 468.325C375.932 468.496 376.139 468.581 376.378 468.581ZM379.484 478H380.758V466.97H379.484V478ZM386.449 478.139C387.201 478.139 387.848 477.976 388.39 477.648C388.932 477.316 389.35 476.845 389.643 476.235C389.94 475.625 390.089 474.899 390.089 474.06V474.045C390.089 473.2 389.94 472.473 389.643 471.862C389.35 471.252 388.932 470.783 388.39 470.456C387.848 470.129 387.201 469.965 386.449 469.965C385.702 469.965 385.055 470.129 384.508 470.456C383.966 470.783 383.546 471.252 383.249 471.862C382.956 472.473 382.809 473.2 382.809 474.045V474.06C382.809 474.899 382.956 475.625 383.249 476.235C383.546 476.845 383.966 477.316 384.508 477.648C385.055 477.976 385.702 478.139 386.449 478.139ZM386.449 477.011C385.951 477.011 385.529 476.894 385.182 476.66C384.835 476.425 384.569 476.088 384.384 475.649C384.203 475.209 384.113 474.68 384.113 474.06V474.045C384.113 473.42 384.203 472.888 384.384 472.448C384.569 472.009 384.835 471.674 385.182 471.445C385.529 471.21 385.951 471.093 386.449 471.093C386.947 471.093 387.37 471.21 387.716 471.445C388.063 471.674 388.327 472.009 388.507 472.448C388.693 472.888 388.786 473.42 388.786 474.045V474.06C388.786 474.68 388.693 475.209 388.507 475.649C388.327 476.088 388.063 476.425 387.716 476.66C387.37 476.894 386.947 477.011 386.449 477.011ZM394.777 478.139C395.377 478.139 395.915 478.039 396.388 477.839C396.867 477.639 397.245 477.36 397.523 477.004C397.802 476.643 397.941 476.228 397.941 475.759V475.744C397.941 475.178 397.758 474.726 397.392 474.389C397.03 474.052 396.479 473.793 395.736 473.613L394.521 473.32C394.057 473.208 393.72 473.063 393.51 472.888C393.3 472.712 393.195 472.49 393.195 472.221V472.207C393.195 471.972 393.266 471.767 393.407 471.591C393.549 471.416 393.742 471.279 393.986 471.181C394.23 471.079 394.508 471.027 394.821 471.027C395.299 471.027 395.688 471.125 395.985 471.32C396.283 471.516 396.474 471.77 396.557 472.082H397.809C397.75 471.652 397.589 471.279 397.326 470.961C397.067 470.644 396.723 470.4 396.293 470.229C395.868 470.053 395.38 469.965 394.828 469.965C394.271 469.965 393.771 470.065 393.327 470.266C392.882 470.466 392.531 470.739 392.272 471.086C392.018 471.433 391.891 471.826 391.891 472.265V472.272C391.891 472.839 392.064 473.293 392.411 473.635C392.758 473.972 393.3 474.228 394.037 474.404L395.26 474.697C395.749 474.814 396.1 474.968 396.315 475.158C396.53 475.344 396.637 475.571 396.637 475.839V475.854C396.637 476.093 396.559 476.306 396.403 476.491C396.247 476.672 396.032 476.816 395.758 476.923C395.49 477.026 395.177 477.077 394.821 477.077C394.318 477.077 393.91 476.977 393.598 476.777C393.285 476.577 393.075 476.313 392.968 475.986H391.664C391.713 476.42 391.872 476.799 392.14 477.121C392.414 477.443 392.775 477.695 393.224 477.875C393.673 478.051 394.191 478.139 394.777 478.139ZM399.918 480.637H401.193V476.755H401.31C401.457 477.038 401.652 477.282 401.896 477.487C402.145 477.692 402.428 477.854 402.746 477.971C403.068 478.083 403.41 478.139 403.771 478.139C404.44 478.139 405.021 477.971 405.514 477.634C406.012 477.297 406.398 476.823 406.671 476.213C406.945 475.603 407.082 474.885 407.082 474.06V474.045C407.082 473.225 406.945 472.509 406.671 471.899C406.398 471.289 406.012 470.815 405.514 470.478C405.021 470.136 404.44 469.965 403.771 469.965C403.405 469.965 403.065 470.021 402.753 470.134C402.44 470.246 402.162 470.407 401.918 470.617C401.674 470.822 401.471 471.071 401.31 471.364H401.193V470.104H399.918V480.637ZM403.478 477.011C403 477.011 402.587 476.892 402.24 476.652C401.894 476.413 401.627 476.074 401.442 475.634C401.256 475.19 401.164 474.665 401.164 474.06V474.045C401.164 473.435 401.256 472.91 401.442 472.47C401.627 472.031 401.894 471.691 402.24 471.452C402.587 471.213 403 471.093 403.478 471.093C403.961 471.093 404.374 471.213 404.716 471.452C405.058 471.687 405.319 472.023 405.5 472.463C405.685 472.902 405.778 473.43 405.778 474.045V474.06C405.778 474.67 405.685 475.197 405.5 475.642C405.319 476.081 405.058 476.42 404.716 476.66C404.374 476.894 403.961 477.011 403.478 477.011ZM409.147 478H410.421V473.327C410.421 472.863 410.504 472.465 410.67 472.133C410.841 471.801 411.081 471.545 411.388 471.364C411.696 471.184 412.06 471.093 412.479 471.093C413.109 471.093 413.573 471.267 413.871 471.613C414.174 471.955 414.325 472.482 414.325 473.195V478H415.6V472.888C415.6 472.263 415.492 471.733 415.277 471.298C415.062 470.864 414.75 470.534 414.34 470.31C413.93 470.08 413.429 469.965 412.838 469.965C412.257 469.965 411.779 470.083 411.403 470.317C411.027 470.546 410.739 470.871 410.539 471.291H410.421V466.97H409.147V478ZM418.288 480.769C418.756 480.769 419.149 480.7 419.467 480.563C419.789 480.432 420.067 480.2 420.302 479.868C420.541 479.536 420.771 479.074 420.99 478.483L424.074 470.104H422.733L420.309 477.399L420.814 476.601H420.214L420.719 477.399L418.288 470.104H416.925L419.848 478.007L419.701 478.476C419.56 478.93 419.372 479.25 419.137 479.436C418.908 479.621 418.612 479.714 418.251 479.714C418.163 479.714 418.073 479.711 417.98 479.707C417.887 479.702 417.802 479.692 417.724 479.677V480.725C417.812 480.739 417.907 480.749 418.009 480.754C418.112 480.764 418.205 480.769 418.288 480.769ZM229.074 498.688H230.019L231.168 494.521H229.711L229.074 498.688ZM233.849 496H235.124V491.107C235.124 490.736 235.202 490.399 235.358 490.097C235.519 489.789 235.736 489.545 236.01 489.364C236.288 489.184 236.598 489.093 236.94 489.093C237.438 489.093 237.836 489.235 238.134 489.518C238.432 489.796 238.581 490.17 238.581 490.639V496H239.855V490.924C239.855 490.587 239.931 490.282 240.082 490.009C240.233 489.73 240.446 489.508 240.719 489.342C240.993 489.176 241.312 489.093 241.679 489.093C242.235 489.093 242.648 489.24 242.917 489.533C243.19 489.821 243.327 490.255 243.327 490.836V496H244.601V490.543C244.601 489.992 244.503 489.525 244.308 489.145C244.113 488.759 243.827 488.466 243.451 488.266C243.08 488.065 242.626 487.965 242.089 487.965C241.728 487.965 241.388 488.024 241.071 488.141C240.758 488.253 240.482 488.415 240.243 488.625C240.004 488.83 239.813 489.071 239.672 489.35H239.555C239.433 489.076 239.269 488.837 239.064 488.632C238.859 488.422 238.615 488.258 238.332 488.141C238.048 488.024 237.729 487.965 237.372 487.965C236.854 487.965 236.413 488.083 236.046 488.317C235.685 488.551 235.417 488.881 235.241 489.306H235.124V488.104H233.849V496ZM249.069 496.139C249.425 496.139 249.752 496.09 250.05 495.993C250.348 495.89 250.614 495.741 250.849 495.546C251.088 495.351 251.291 495.114 251.457 494.835H251.574V496H252.848V490.595C252.848 490.048 252.731 489.579 252.497 489.188C252.267 488.793 251.928 488.49 251.479 488.28C251.034 488.07 250.49 487.965 249.845 487.965C249.284 487.965 248.783 488.053 248.344 488.229C247.904 488.4 247.545 488.642 247.267 488.954C246.994 489.262 246.823 489.623 246.754 490.038L246.747 490.082H248.021L248.029 490.06C248.131 489.752 248.334 489.516 248.637 489.35C248.939 489.179 249.328 489.093 249.801 489.093C250.392 489.093 250.834 489.223 251.127 489.481C251.425 489.735 251.574 490.106 251.574 490.595V493.056C251.574 493.432 251.476 493.769 251.281 494.066C251.09 494.364 250.827 494.601 250.49 494.777C250.153 494.948 249.767 495.033 249.333 495.033C248.874 495.033 248.493 494.923 248.19 494.704C247.887 494.479 247.736 494.167 247.736 493.766V493.751C247.736 493.361 247.873 493.058 248.146 492.843C248.424 492.628 248.864 492.504 249.464 492.47L252.211 492.294V491.276L249.311 491.452C248.393 491.505 247.682 491.732 247.179 492.133C246.681 492.528 246.432 493.078 246.432 493.781V493.795C246.432 494.274 246.547 494.689 246.776 495.041C247.011 495.392 247.326 495.663 247.721 495.854C248.122 496.044 248.571 496.139 249.069 496.139ZM257.982 496.059C258.109 496.059 258.234 496.051 258.356 496.037C258.478 496.022 258.6 496.005 258.722 495.985V494.901C258.605 494.911 258.505 494.918 258.422 494.923C258.344 494.928 258.249 494.931 258.136 494.931C257.726 494.931 257.433 494.831 257.257 494.63C257.082 494.425 256.994 494.091 256.994 493.627V489.159H258.722V488.104H256.994V486.061H255.675V488.104H254.43V489.159H255.675V493.949C255.675 494.701 255.856 495.241 256.217 495.568C256.583 495.895 257.172 496.059 257.982 496.059ZM260.7 496H261.974V491.327C261.974 490.863 262.057 490.465 262.223 490.133C262.394 489.801 262.633 489.545 262.941 489.364C263.249 489.184 263.612 489.093 264.032 489.093C264.662 489.093 265.126 489.267 265.424 489.613C265.727 489.955 265.878 490.482 265.878 491.195V496H267.152V490.888C267.152 490.263 267.045 489.733 266.83 489.298C266.615 488.864 266.303 488.534 265.893 488.31C265.482 488.08 264.982 487.965 264.391 487.965C263.81 487.965 263.332 488.083 262.956 488.317C262.58 488.546 262.292 488.871 262.091 489.291H261.974V484.97H260.7V496ZM271.627 496.139C271.984 496.139 272.311 496.09 272.609 495.993C272.907 495.89 273.173 495.741 273.407 495.546C273.646 495.351 273.849 495.114 274.015 494.835H274.132V496H275.407V490.595C275.407 490.048 275.29 489.579 275.055 489.188C274.826 488.793 274.486 488.49 274.037 488.28C273.593 488.07 273.048 487.965 272.404 487.965C271.842 487.965 271.342 488.053 270.902 488.229C270.463 488.4 270.104 488.642 269.826 488.954C269.552 489.262 269.381 489.623 269.313 490.038L269.306 490.082H270.58L270.587 490.06C270.69 489.752 270.893 489.516 271.195 489.35C271.498 489.179 271.886 489.093 272.36 489.093C272.951 489.093 273.393 489.223 273.686 489.481C273.983 489.735 274.132 490.106 274.132 490.595V493.056C274.132 493.432 274.035 493.769 273.839 494.066C273.649 494.364 273.385 494.601 273.048 494.777C272.711 494.948 272.326 495.033 271.891 495.033C271.432 495.033 271.051 494.923 270.749 494.704C270.446 494.479 270.294 494.167 270.294 493.766V493.751C270.294 493.361 270.431 493.058 270.705 492.843C270.983 492.628 271.422 492.504 272.023 492.47L274.77 492.294V491.276L271.869 491.452C270.951 491.505 270.241 491.732 269.738 492.133C269.24 492.528 268.991 493.078 268.991 493.781V493.795C268.991 494.274 269.105 494.689 269.335 495.041C269.569 495.392 269.884 495.663 270.28 495.854C270.68 496.044 271.129 496.139 271.627 496.139ZM277.736 496H279.01V491.107C279.01 490.736 279.088 490.399 279.245 490.097C279.406 489.789 279.623 489.545 279.896 489.364C280.175 489.184 280.485 489.093 280.827 489.093C281.325 489.093 281.723 489.235 282.021 489.518C282.318 489.796 282.467 490.17 282.467 490.639V496H283.742V490.924C283.742 490.587 283.817 490.282 283.969 490.009C284.12 489.73 284.333 489.508 284.606 489.342C284.879 489.176 285.199 489.093 285.565 489.093C286.122 489.093 286.535 489.24 286.803 489.533C287.077 489.821 287.213 490.255 287.213 490.836V496H288.488V490.543C288.488 489.992 288.39 489.525 288.195 489.145C288 488.759 287.714 488.466 287.338 488.266C286.967 488.065 286.513 487.965 285.976 487.965C285.614 487.965 285.275 488.024 284.958 488.141C284.645 488.253 284.369 488.415 284.13 488.625C283.891 488.83 283.7 489.071 283.559 489.35H283.441C283.319 489.076 283.156 488.837 282.951 488.632C282.746 488.422 282.501 488.258 282.218 488.141C281.935 488.024 281.615 487.965 281.259 487.965C280.741 487.965 280.299 488.083 279.933 488.317C279.572 488.551 279.303 488.881 279.127 489.306H279.01V488.104H277.736V496ZM292.956 496.139C293.312 496.139 293.639 496.09 293.937 495.993C294.235 495.89 294.501 495.741 294.735 495.546C294.975 495.351 295.177 495.114 295.343 494.835H295.46V496H296.735V490.595C296.735 490.048 296.618 489.579 296.383 489.188C296.154 488.793 295.814 488.49 295.365 488.28C294.921 488.07 294.376 487.965 293.732 487.965C293.17 487.965 292.67 488.053 292.23 488.229C291.791 488.4 291.432 488.642 291.154 488.954C290.88 489.262 290.709 489.623 290.641 490.038L290.634 490.082H291.908L291.916 490.06C292.018 489.752 292.221 489.516 292.523 489.35C292.826 489.179 293.214 489.093 293.688 489.093C294.279 489.093 294.721 489.223 295.014 489.481C295.312 489.735 295.46 490.106 295.46 490.595V493.056C295.46 493.432 295.363 493.769 295.167 494.066C294.977 494.364 294.713 494.601 294.376 494.777C294.04 494.948 293.654 495.033 293.219 495.033C292.76 495.033 292.379 494.923 292.077 494.704C291.774 494.479 291.623 494.167 291.623 493.766V493.751C291.623 493.361 291.759 493.058 292.033 492.843C292.311 492.628 292.75 492.504 293.351 492.47L296.098 492.294V491.276L293.197 491.452C292.279 491.505 291.569 491.732 291.066 492.133C290.568 492.528 290.319 493.078 290.319 493.781V493.795C290.319 494.274 290.434 494.689 290.663 495.041C290.897 495.392 291.212 495.663 291.608 495.854C292.008 496.044 292.458 496.139 292.956 496.139ZM301.869 496.059C301.996 496.059 302.121 496.051 302.243 496.037C302.365 496.022 302.487 496.005 302.609 495.985V494.901C302.492 494.911 302.392 494.918 302.309 494.923C302.23 494.928 302.135 494.931 302.023 494.931C301.613 494.931 301.32 494.831 301.144 494.63C300.968 494.425 300.88 494.091 300.88 493.627V489.159H302.609V488.104H300.88V486.061H299.562V488.104H298.317V489.159H299.562V493.949C299.562 494.701 299.743 495.241 300.104 495.568C300.47 495.895 301.059 496.059 301.869 496.059ZM304.542 496H305.817V488.104H304.542V496ZM305.187 486.581C305.431 486.581 305.639 486.496 305.81 486.325C305.98 486.149 306.066 485.941 306.066 485.702C306.066 485.458 305.98 485.25 305.81 485.08C305.639 484.909 305.431 484.823 305.187 484.823C304.948 484.823 304.74 484.909 304.564 485.08C304.394 485.25 304.308 485.458 304.308 485.702C304.308 485.941 304.394 486.149 304.564 486.325C304.74 486.496 304.948 486.581 305.187 486.581ZM311.449 496.139C312.084 496.139 312.626 496.034 313.075 495.824C313.524 495.614 313.886 495.326 314.159 494.96C314.433 494.589 314.623 494.167 314.73 493.693L314.745 493.612L313.485 493.62L313.471 493.664C313.324 494.103 313.083 494.438 312.746 494.667C312.409 494.896 311.974 495.011 311.442 495.011C310.973 495.011 310.565 494.889 310.219 494.645C309.872 494.401 309.604 494.057 309.413 493.612C309.223 493.163 309.127 492.636 309.127 492.03V492.016C309.127 491.42 309.22 490.905 309.406 490.47C309.596 490.031 309.865 489.691 310.211 489.452C310.558 489.213 310.968 489.093 311.442 489.093C312.008 489.093 312.465 489.23 312.812 489.503C313.158 489.777 313.38 490.109 313.478 490.5L313.485 490.521H314.752L314.745 490.478C314.667 490.009 314.489 489.586 314.21 489.21C313.932 488.83 313.561 488.527 313.097 488.302C312.633 488.078 312.082 487.965 311.442 487.965C310.705 487.965 310.065 488.134 309.523 488.471C308.981 488.803 308.561 489.271 308.263 489.877C307.97 490.482 307.824 491.195 307.824 492.016V492.03C307.824 492.865 307.973 493.59 308.271 494.206C308.568 494.821 308.988 495.297 309.53 495.634C310.072 495.971 310.712 496.139 311.449 496.139ZM319.323 496.139C319.923 496.139 320.46 496.039 320.934 495.839C321.413 495.639 321.791 495.36 322.069 495.004C322.348 494.643 322.487 494.228 322.487 493.759V493.744C322.487 493.178 322.304 492.726 321.938 492.389C321.576 492.052 321.024 491.793 320.282 491.613L319.066 491.32C318.603 491.208 318.266 491.063 318.056 490.888C317.846 490.712 317.741 490.49 317.741 490.221V490.207C317.741 489.972 317.812 489.767 317.953 489.591C318.095 489.416 318.288 489.279 318.532 489.181C318.776 489.079 319.054 489.027 319.367 489.027C319.845 489.027 320.233 489.125 320.531 489.32C320.829 489.516 321.02 489.77 321.103 490.082H322.355C322.296 489.652 322.135 489.279 321.872 488.961C321.613 488.644 321.269 488.4 320.839 488.229C320.414 488.053 319.926 487.965 319.374 487.965C318.817 487.965 318.317 488.065 317.873 488.266C317.428 488.466 317.077 488.739 316.818 489.086C316.564 489.433 316.437 489.826 316.437 490.265V490.272C316.437 490.839 316.61 491.293 316.957 491.635C317.304 491.972 317.846 492.228 318.583 492.404L319.806 492.697C320.294 492.814 320.646 492.968 320.861 493.158C321.076 493.344 321.183 493.571 321.183 493.839V493.854C321.183 494.093 321.105 494.306 320.949 494.491C320.792 494.672 320.578 494.816 320.304 494.923C320.036 495.026 319.723 495.077 319.367 495.077C318.864 495.077 318.456 494.977 318.144 494.777C317.831 494.577 317.621 494.313 317.514 493.986H316.21C316.259 494.42 316.417 494.799 316.686 495.121C316.959 495.443 317.321 495.695 317.77 495.875C318.219 496.051 318.737 496.139 319.323 496.139ZM330.851 496.139C331.208 496.139 331.535 496.09 331.833 495.993C332.13 495.89 332.396 495.741 332.631 495.546C332.87 495.351 333.073 495.114 333.239 494.835H333.356V496H334.63V490.595C334.63 490.048 334.513 489.579 334.279 489.188C334.049 488.793 333.71 488.49 333.261 488.28C332.816 488.07 332.272 487.965 331.627 487.965C331.066 487.965 330.565 488.053 330.126 488.229C329.687 488.4 329.328 488.642 329.049 488.954C328.776 489.262 328.605 489.623 328.537 490.038L328.529 490.082H329.804L329.811 490.06C329.914 489.752 330.116 489.516 330.419 489.35C330.722 489.179 331.11 489.093 331.583 489.093C332.174 489.093 332.616 489.223 332.909 489.481C333.207 489.735 333.356 490.106 333.356 490.595V493.056C333.356 493.432 333.258 493.769 333.063 494.066C332.873 494.364 332.609 494.601 332.272 494.777C331.935 494.948 331.549 495.033 331.115 495.033C330.656 495.033 330.275 494.923 329.972 494.704C329.669 494.479 329.518 494.167 329.518 493.766V493.751C329.518 493.361 329.655 493.058 329.928 492.843C330.207 492.628 330.646 492.504 331.247 492.47L333.993 492.294V491.276L331.093 491.452C330.175 491.505 329.464 491.732 328.961 492.133C328.463 492.528 328.214 493.078 328.214 493.781V493.795C328.214 494.274 328.329 494.689 328.559 495.041C328.793 495.392 329.108 495.663 329.503 495.854C329.904 496.044 330.353 496.139 330.851 496.139ZM336.959 496H338.234V491.327C338.234 490.863 338.317 490.465 338.483 490.133C338.654 489.801 338.893 489.545 339.201 489.364C339.508 489.184 339.872 489.093 340.292 489.093C340.922 489.093 341.386 489.267 341.684 489.613C341.986 489.955 342.138 490.482 342.138 491.195V496H343.412V490.888C343.412 489.95 343.173 489.23 342.694 488.727C342.221 488.219 341.54 487.965 340.651 487.965C340.07 487.965 339.591 488.083 339.215 488.317C338.839 488.546 338.551 488.871 338.351 489.291H338.234V488.104H336.959V496ZM348.634 496.139C349.186 496.139 349.674 496.017 350.099 495.773C350.524 495.524 350.856 495.18 351.095 494.74H351.212V496H352.487V484.97H351.212V489.35H351.095C350.88 488.93 350.551 488.595 350.106 488.346C349.667 488.092 349.176 487.965 348.634 487.965C347.965 487.965 347.382 488.134 346.884 488.471C346.391 488.808 346.007 489.281 345.734 489.892C345.46 490.502 345.324 491.22 345.324 492.045V492.06C345.324 492.88 345.46 493.598 345.734 494.213C346.007 494.823 346.393 495.297 346.891 495.634C347.389 495.971 347.97 496.139 348.634 496.139ZM348.927 495.011C348.449 495.011 348.036 494.894 347.689 494.66C347.348 494.42 347.084 494.081 346.898 493.642C346.718 493.197 346.627 492.67 346.627 492.06V492.045C346.627 491.43 346.718 490.902 346.898 490.463C347.084 490.023 347.348 489.687 347.689 489.452C348.036 489.213 348.449 489.093 348.927 489.093C349.406 489.093 349.818 489.213 350.165 489.452C350.512 489.691 350.778 490.031 350.963 490.47C351.149 490.91 351.242 491.435 351.242 492.045V492.06C351.242 492.665 351.149 493.19 350.963 493.634C350.778 494.074 350.512 494.413 350.165 494.652C349.818 494.892 349.406 495.011 348.927 495.011ZM361.862 496.139C362.462 496.139 363 496.039 363.473 495.839C363.952 495.639 364.33 495.36 364.608 495.004C364.887 494.643 365.026 494.228 365.026 493.759V493.744C365.026 493.178 364.843 492.726 364.477 492.389C364.115 492.052 363.563 491.793 362.821 491.613L361.605 491.32C361.142 491.208 360.805 491.063 360.595 490.888C360.385 490.712 360.28 490.49 360.28 490.221V490.207C360.28 489.972 360.351 489.767 360.492 489.591C360.634 489.416 360.827 489.279 361.071 489.181C361.315 489.079 361.593 489.027 361.906 489.027C362.384 489.027 362.772 489.125 363.07 489.32C363.368 489.516 363.559 489.77 363.642 490.082H364.894C364.835 489.652 364.674 489.279 364.411 488.961C364.152 488.644 363.808 488.4 363.378 488.229C362.953 488.053 362.465 487.965 361.913 487.965C361.356 487.965 360.856 488.065 360.412 488.266C359.967 488.466 359.616 488.739 359.357 489.086C359.103 489.433 358.976 489.826 358.976 490.265V490.272C358.976 490.839 359.149 491.293 359.496 491.635C359.843 491.972 360.385 492.228 361.122 492.404L362.345 492.697C362.833 492.814 363.185 492.968 363.4 493.158C363.615 493.344 363.722 493.571 363.722 493.839V493.854C363.722 494.093 363.644 494.306 363.488 494.491C363.332 494.672 363.117 494.816 362.843 494.923C362.575 495.026 362.262 495.077 361.906 495.077C361.403 495.077 360.995 494.977 360.683 494.777C360.37 494.577 360.16 494.313 360.053 493.986H358.749C358.798 494.42 358.957 494.799 359.225 495.121C359.499 495.443 359.86 495.695 360.309 495.875C360.758 496.051 361.276 496.139 361.862 496.139ZM370.248 496.139C371 496.139 371.647 495.976 372.189 495.648C372.731 495.316 373.148 494.845 373.441 494.235C373.739 493.625 373.888 492.899 373.888 492.06V492.045C373.888 491.2 373.739 490.473 373.441 489.862C373.148 489.252 372.731 488.783 372.189 488.456C371.647 488.129 371 487.965 370.248 487.965C369.501 487.965 368.854 488.129 368.307 488.456C367.765 488.783 367.345 489.252 367.047 489.862C366.754 490.473 366.608 491.2 366.608 492.045V492.06C366.608 492.899 366.754 493.625 367.047 494.235C367.345 494.845 367.765 495.316 368.307 495.648C368.854 495.976 369.501 496.139 370.248 496.139ZM370.248 495.011C369.75 495.011 369.328 494.894 368.981 494.66C368.634 494.425 368.368 494.088 368.183 493.649C368.002 493.209 367.912 492.68 367.912 492.06V492.045C367.912 491.42 368.002 490.888 368.183 490.448C368.368 490.009 368.634 489.674 368.981 489.445C369.328 489.21 369.75 489.093 370.248 489.093C370.746 489.093 371.168 489.21 371.515 489.445C371.862 489.674 372.125 490.009 372.306 490.448C372.492 490.888 372.584 491.42 372.584 492.045V492.06C372.584 492.68 372.492 493.209 372.306 493.649C372.125 494.088 371.862 494.425 371.515 494.66C371.168 494.894 370.746 495.011 370.248 495.011ZM379.096 496.139C379.73 496.139 380.272 496.034 380.722 495.824C381.171 495.614 381.532 495.326 381.806 494.96C382.079 494.589 382.27 494.167 382.377 493.693L382.392 493.612L381.132 493.62L381.117 493.664C380.971 494.103 380.729 494.438 380.392 494.667C380.055 494.896 379.621 495.011 379.088 495.011C378.62 495.011 378.212 494.889 377.865 494.645C377.519 494.401 377.25 494.057 377.06 493.612C376.869 493.163 376.774 492.636 376.774 492.03V492.016C376.774 491.42 376.867 490.905 377.052 490.47C377.243 490.031 377.511 489.691 377.858 489.452C378.205 489.213 378.615 489.093 379.088 489.093C379.655 489.093 380.111 489.23 380.458 489.503C380.805 489.777 381.027 490.109 381.125 490.5L381.132 490.521H382.399L382.392 490.478C382.313 490.009 382.135 489.586 381.857 489.21C381.579 488.83 381.208 488.527 380.744 488.302C380.28 488.078 379.728 487.965 379.088 487.965C378.351 487.965 377.711 488.134 377.169 488.471C376.627 488.803 376.208 489.271 375.91 489.877C375.617 490.482 375.47 491.195 375.47 492.016V492.03C375.47 492.865 375.619 493.59 375.917 494.206C376.215 494.821 376.635 495.297 377.177 495.634C377.719 495.971 378.358 496.139 379.096 496.139ZM384.289 496H385.563V488.104H384.289V496ZM384.933 486.581C385.177 486.581 385.385 486.496 385.556 486.325C385.727 486.149 385.812 485.941 385.812 485.702C385.812 485.458 385.727 485.25 385.556 485.08C385.385 484.909 385.177 484.823 384.933 484.823C384.694 484.823 384.486 484.909 384.311 485.08C384.14 485.25 384.054 485.458 384.054 485.702C384.054 485.941 384.14 486.149 384.311 486.325C384.486 486.496 384.694 486.581 384.933 486.581ZM390.133 496.139C390.49 496.139 390.817 496.09 391.115 495.993C391.413 495.89 391.679 495.741 391.913 495.546C392.152 495.351 392.355 495.114 392.521 494.835H392.638V496H393.913V490.595C393.913 490.048 393.795 489.579 393.561 489.188C393.332 488.793 392.992 488.49 392.543 488.28C392.099 488.07 391.554 487.965 390.91 487.965C390.348 487.965 389.848 488.053 389.408 488.229C388.969 488.4 388.61 488.642 388.332 488.954C388.058 489.262 387.887 489.623 387.819 490.038L387.812 490.082H389.086L389.093 490.06C389.196 489.752 389.398 489.516 389.701 489.35C390.004 489.179 390.392 489.093 390.866 489.093C391.457 489.093 391.898 489.223 392.191 489.481C392.489 489.735 392.638 490.106 392.638 490.595V493.056C392.638 493.432 392.541 493.769 392.345 494.066C392.155 494.364 391.891 494.601 391.554 494.777C391.217 494.948 390.832 495.033 390.397 495.033C389.938 495.033 389.557 494.923 389.254 494.704C388.952 494.479 388.8 494.167 388.8 493.766V493.751C388.8 493.361 388.937 493.058 389.21 492.843C389.489 492.628 389.928 492.504 390.529 492.47L393.275 492.294V491.276L390.375 491.452C389.457 491.505 388.747 491.732 388.244 492.133C387.746 492.528 387.497 493.078 387.497 493.781V493.795C387.497 494.274 387.611 494.689 387.841 495.041C388.075 495.392 388.39 495.663 388.786 495.854C389.186 496.044 389.635 496.139 390.133 496.139ZM396.315 496H397.589V484.97H396.315V496ZM403.28 496.139C404.032 496.139 404.679 495.976 405.221 495.648C405.763 495.316 406.181 494.845 406.474 494.235C406.771 493.625 406.92 492.899 406.92 492.06V492.045C406.92 491.2 406.771 490.473 406.474 489.862C406.181 489.252 405.763 488.783 405.221 488.456C404.679 488.129 404.032 487.965 403.28 487.965C402.533 487.965 401.886 488.129 401.339 488.456C400.797 488.783 400.377 489.252 400.08 489.862C399.787 490.473 399.64 491.2 399.64 492.045V492.06C399.64 492.899 399.787 493.625 400.08 494.235C400.377 494.845 400.797 495.316 401.339 495.648C401.886 495.976 402.533 496.139 403.28 496.139ZM403.28 495.011C402.782 495.011 402.36 494.894 402.013 494.66C401.667 494.425 401.4 494.088 401.215 493.649C401.034 493.209 400.944 492.68 400.944 492.06V492.045C400.944 491.42 401.034 490.888 401.215 490.448C401.4 490.009 401.667 489.674 402.013 489.445C402.36 489.21 402.782 489.093 403.28 489.093C403.778 489.093 404.201 489.21 404.547 489.445C404.894 489.674 405.158 490.009 405.338 490.448C405.524 490.888 405.617 491.42 405.617 492.045V492.06C405.617 492.68 405.524 493.209 405.338 493.649C405.158 494.088 404.894 494.425 404.547 494.66C404.201 494.894 403.778 495.011 403.28 495.011ZM408.971 496H410.246V484.97H408.971V496ZM415.944 498.783C416.662 498.783 417.284 498.664 417.812 498.424C418.339 498.19 418.744 497.855 419.027 497.421C419.315 496.986 419.459 496.476 419.459 495.89V488.104H418.185V489.408H418.097C417.936 489.11 417.733 488.854 417.489 488.639C417.25 488.424 416.974 488.258 416.662 488.141C416.349 488.024 416.007 487.965 415.636 487.965C414.948 487.965 414.354 488.131 413.856 488.463C413.358 488.791 412.973 489.242 412.699 489.818C412.431 490.39 412.296 491.044 412.296 491.781V491.796C412.296 492.533 412.431 493.188 412.699 493.759C412.968 494.33 413.349 494.779 413.842 495.106C414.34 495.429 414.928 495.59 415.607 495.59C415.968 495.59 416.305 495.539 416.618 495.436C416.93 495.329 417.211 495.172 417.46 494.967C417.709 494.762 417.917 494.516 418.083 494.228H418.2V495.824C418.2 496.405 418 496.854 417.599 497.172C417.204 497.494 416.652 497.655 415.944 497.655C415.377 497.655 414.923 497.558 414.582 497.362C414.24 497.172 414.035 496.928 413.966 496.63L413.959 496.623H412.641L412.626 496.63C412.694 497.06 412.868 497.436 413.146 497.758C413.429 498.085 413.808 498.336 414.281 498.512C414.755 498.693 415.309 498.783 415.944 498.783ZM415.885 494.462C415.397 494.462 414.982 494.35 414.64 494.125C414.303 493.896 414.044 493.581 413.864 493.18C413.688 492.78 413.6 492.318 413.6 491.796V491.781C413.6 491.259 413.688 490.795 413.864 490.39C414.044 489.984 414.303 489.667 414.64 489.438C414.982 489.208 415.397 489.093 415.885 489.093C416.374 489.093 416.791 489.208 417.138 489.438C417.489 489.667 417.758 489.984 417.943 490.39C418.134 490.795 418.229 491.259 418.229 491.781V491.796C418.229 492.318 418.134 492.78 417.943 493.18C417.758 493.581 417.489 493.896 417.138 494.125C416.791 494.35 416.374 494.462 415.885 494.462ZM422.506 498.769C422.975 498.769 423.368 498.7 423.686 498.563C424.008 498.432 424.286 498.2 424.521 497.868C424.76 497.536 424.989 497.074 425.209 496.483L428.292 488.104H426.952L424.528 495.399L425.033 494.601H424.433L424.938 495.399L422.506 488.104H421.144L424.066 496.007L423.92 496.476C423.778 496.93 423.59 497.25 423.356 497.436C423.126 497.621 422.831 497.714 422.47 497.714C422.382 497.714 422.292 497.711 422.199 497.707C422.106 497.702 422.021 497.692 421.942 497.677V498.725C422.03 498.739 422.125 498.749 422.228 498.754C422.331 498.764 422.423 498.769 422.506 498.769Z" fill="black"/>
<path d="M273.312 413H291.555V408.762H278.352V400.715H290.832V396.652H278.352V389.055H291.555V384.816H273.312V413ZM303.527 413.41C305.22 413.41 306.717 413.143 308.02 412.609C309.335 412.062 310.363 411.301 311.105 410.324C311.848 409.335 312.219 408.189 312.219 406.887V406.867C312.219 405.37 311.763 404.178 310.852 403.293C309.94 402.395 308.41 401.704 306.262 401.223L302.824 400.461C301.757 400.214 300.995 399.888 300.539 399.484C300.096 399.081 299.875 398.586 299.875 398V397.98C299.875 397.473 300.012 397.03 300.285 396.652C300.572 396.275 300.975 395.982 301.496 395.773C302.03 395.565 302.655 395.461 303.371 395.461C304.504 395.461 305.396 395.734 306.047 396.281C306.698 396.815 307.076 397.499 307.18 398.332L307.199 398.488H311.73L311.711 398.273C311.659 397.076 311.294 395.995 310.617 395.031C309.953 394.068 309.009 393.299 307.785 392.727C306.561 392.154 305.09 391.867 303.371 391.867C301.717 391.867 300.266 392.134 299.016 392.668C297.766 393.202 296.796 393.944 296.105 394.895C295.415 395.845 295.07 396.952 295.07 398.215V398.234C295.07 399.771 295.565 401.027 296.555 402.004C297.557 402.98 299.048 403.684 301.027 404.113L304.465 404.875C305.546 405.122 306.294 405.441 306.711 405.832C307.128 406.21 307.336 406.704 307.336 407.316V407.336C307.336 407.844 307.18 408.286 306.867 408.664C306.568 409.042 306.138 409.328 305.578 409.523C305.018 409.719 304.341 409.816 303.547 409.816C302.31 409.816 301.346 409.569 300.656 409.074C299.979 408.579 299.549 407.883 299.367 406.984L299.328 406.809H294.543L294.562 406.984C294.719 408.26 295.155 409.387 295.871 410.363C296.6 411.327 297.603 412.076 298.879 412.609C300.168 413.143 301.717 413.41 303.527 413.41ZM323.41 413.41C325.103 413.41 326.6 413.143 327.902 412.609C329.217 412.062 330.246 411.301 330.988 410.324C331.73 409.335 332.102 408.189 332.102 406.887V406.867C332.102 405.37 331.646 404.178 330.734 403.293C329.823 402.395 328.293 401.704 326.145 401.223L322.707 400.461C321.639 400.214 320.878 399.888 320.422 399.484C319.979 399.081 319.758 398.586 319.758 398V397.98C319.758 397.473 319.895 397.03 320.168 396.652C320.454 396.275 320.858 395.982 321.379 395.773C321.913 395.565 322.538 395.461 323.254 395.461C324.387 395.461 325.279 395.734 325.93 396.281C326.581 396.815 326.958 397.499 327.062 398.332L327.082 398.488H331.613L331.594 398.273C331.542 397.076 331.177 395.995 330.5 395.031C329.836 394.068 328.892 393.299 327.668 392.727C326.444 392.154 324.973 391.867 323.254 391.867C321.6 391.867 320.148 392.134 318.898 392.668C317.648 393.202 316.678 393.944 315.988 394.895C315.298 395.845 314.953 396.952 314.953 398.215V398.234C314.953 399.771 315.448 401.027 316.438 402.004C317.44 402.98 318.931 403.684 320.91 404.113L324.348 404.875C325.428 405.122 326.177 405.441 326.594 405.832C327.01 406.21 327.219 406.704 327.219 407.316V407.336C327.219 407.844 327.062 408.286 326.75 408.664C326.451 409.042 326.021 409.328 325.461 409.523C324.901 409.719 324.224 409.816 323.43 409.816C322.193 409.816 321.229 409.569 320.539 409.074C319.862 408.579 319.432 407.883 319.25 406.984L319.211 406.809H314.426L314.445 406.984C314.602 408.26 315.038 409.387 315.754 410.363C316.483 411.327 317.486 412.076 318.762 412.609C320.051 413.143 321.6 413.41 323.41 413.41ZM341.32 413.352C342.232 413.352 343.085 413.208 343.879 412.922C344.686 412.635 345.402 412.225 346.027 411.691C346.652 411.158 347.16 410.533 347.551 409.816H347.668V413H352.512V398.762C352.512 397.368 352.16 396.158 351.457 395.129C350.767 394.1 349.784 393.299 348.508 392.727C347.245 392.154 345.747 391.867 344.016 391.867C342.271 391.867 340.76 392.147 339.484 392.707C338.221 393.267 337.232 394.035 336.516 395.012C335.799 395.975 335.389 397.069 335.285 398.293L335.266 398.527H339.758L339.797 398.352C339.966 397.583 340.396 396.958 341.086 396.477C341.776 395.982 342.694 395.734 343.84 395.734C345.077 395.734 346.021 396.04 346.672 396.652C347.336 397.251 347.668 398.072 347.668 399.113V405.324C347.668 406.145 347.453 406.88 347.023 407.531C346.594 408.182 346.008 408.697 345.266 409.074C344.536 409.452 343.703 409.641 342.766 409.641C341.698 409.641 340.839 409.4 340.188 408.918C339.549 408.423 339.23 407.753 339.23 406.906V406.887C339.23 406.066 339.549 405.409 340.188 404.914C340.826 404.419 341.743 404.133 342.941 404.055L350.168 403.605V400.383L342.258 400.871C339.758 401.014 337.818 401.626 336.438 402.707C335.07 403.775 334.387 405.227 334.387 407.062V407.102C334.387 408.326 334.673 409.413 335.246 410.363C335.832 411.301 336.646 412.036 337.688 412.57C338.742 413.091 339.953 413.352 341.32 413.352ZM359.152 419.875C360.585 419.875 361.822 419.673 362.863 419.27C363.918 418.879 364.816 418.228 365.559 417.316C366.301 416.418 366.932 415.214 367.453 413.703L374.914 392.297H369.797L364.641 409.875L365.383 408.859H364.348L365.09 409.875L359.934 392.297H354.641L362.082 413.02L361.789 413.859C361.477 414.732 361.047 415.324 360.5 415.637C359.953 415.962 359.211 416.125 358.273 416.125C357.922 416.125 357.609 416.105 357.336 416.066C357.062 416.027 356.835 415.995 356.652 415.969V419.66C356.952 419.712 357.323 419.758 357.766 419.797C358.221 419.849 358.684 419.875 359.152 419.875Z" fill="black"/>
<defs>
<filter id="filter0_dii_304_13" x="0.346634" y="0.903675" width="545.8" height="709.8" filterUnits="userSpaceOnUse" color-interpolation-filters="sRGB">
<feFlood flood-opacity="0" result="BackgroundImageFix"/>
<feColorMatrix in="SourceAlpha" type="matrix" values="0 0 0 0 0 0 0 0 0 0 0 0 0 0 0 0 0 0 127 0" result="hardAlpha"/>
<feOffset dx="-50.2534" dy="20.3037"/>
<feGaussianBlur stdDeviation="54.2"/>
<feColorMatrix type="matrix" values="0 0 0 0 0.185833 0 0 0 0 0.179639 0 0 0 0 0.174219 0 0 0 0.2015 0"/>
<feBlend mode="normal" in2="BackgroundImageFix" result="effect1_dropShadow_304_13"/>
<feBlend mode="normal" in="SourceGraphic" in2="effect1_dropShadow_304_13" result="shape"/>
<feColorMatrix in="SourceAlpha" type="matrix" values="0 0 0 0 0 0 0 0 0 0 0 0 0 0 0 0 0 0 127 0" result="hardAlpha"/>
<feOffset dx="-14.406" dy="5.82039"/>
<feGaussianBlur stdDeviation="7.76867"/>
<feComposite in2="hardAlpha" operator="arithmetic" k2="-1" k3="1"/>
<feColorMatrix type="matrix" values="0 0 0 0 1 0 0 0 0 1 0 0 0 0 0.991305 0 0 0 1 0"/>
<feBlend mode="normal" in2="shape" result="effect2_innerShadow_304_13"/>
<feColorMatrix in="SourceAlpha" type="matrix" values="0 0 0 0 0 0 0 0 0 0 0 0 0 0 0 0 0 0 127 0" result="hardAlpha"/>
<feOffset dx="14.406" dy="-5.82039"/>
<feGaussianBlur stdDeviation="7.76867"/>
<feComposite in2="hardAlpha" operator="arithmetic" k2="-1" k3="1"/>
<feColorMatrix type="matrix" values="0 0 0 0 0.768885 0 0 0 0 0.743256 0 0 0 0 0.72083 0 0 0 1 0"/>
<feBlend mode="normal" in2="effect2_innerShadow_304_13" result="effect3_innerShadow_304_13"/>
</filter>
<linearGradient id="paint0_linear_304_13" x1="344.454" y1="57.3175" x2="13.6638" y2="146.507" gradientUnits="userSpaceOnUse">
<stop stop-color="#FFFDF5"/>
<stop offset="1" stop-color="#CCC5BF"/>
</linearGradient>
</defs>
</svg>
