<svg width="465" height="711" viewBox="0 0 465 711" fill="none" xmlns="http://www.w3.org/2000/svg">
<g filter="url(#filter0_dii_301_13)">
<rect width="329" height="493" rx="20" transform="matrix(-1 0 0 1 406 89)" fill="url(#paint0_linear_301_13)"/>
</g>
<path d="M116.159 442H117.389V433.929H118.034L116.562 431.724L120.81 442H121.923L126.178 431.724L124.699 433.929H125.343V442H126.574V431.431H125.043L121.425 440.25H121.308L117.689 431.431H116.159V442ZM129.782 444.769C130.25 444.769 130.644 444.7 130.961 444.563C131.283 444.432 131.562 444.2 131.796 443.868C132.035 443.536 132.265 443.074 132.484 442.483L135.568 434.104H134.228L131.803 441.399L132.309 440.601H131.708L132.213 441.399L129.782 434.104H128.419L131.342 442.007L131.195 442.476C131.054 442.93 130.866 443.25 130.631 443.436C130.402 443.621 130.106 443.714 129.745 443.714C129.657 443.714 129.567 443.711 129.474 443.707C129.381 443.702 129.296 443.692 129.218 443.677V444.725C129.306 444.739 129.401 444.749 129.503 444.754C129.606 444.764 129.699 444.769 129.782 444.769ZM144.701 442.139C145.336 442.139 145.878 442.034 146.327 441.824C146.776 441.614 147.138 441.326 147.411 440.96C147.685 440.589 147.875 440.167 147.982 439.693L147.997 439.612L146.737 439.62L146.723 439.664C146.576 440.103 146.334 440.438 145.998 440.667C145.661 440.896 145.226 441.011 144.694 441.011C144.225 441.011 143.817 440.889 143.471 440.645C143.124 440.401 142.855 440.057 142.665 439.612C142.475 439.163 142.379 438.636 142.379 438.03V438.016C142.379 437.42 142.472 436.905 142.658 436.47C142.848 436.031 143.117 435.691 143.463 435.452C143.81 435.213 144.22 435.093 144.694 435.093C145.26 435.093 145.717 435.23 146.063 435.503C146.41 435.777 146.632 436.109 146.73 436.5L146.737 436.521H148.004L147.997 436.478C147.919 436.009 147.741 435.586 147.462 435.21C147.184 434.83 146.813 434.527 146.349 434.302C145.885 434.078 145.333 433.965 144.694 433.965C143.957 433.965 143.317 434.134 142.775 434.471C142.233 434.803 141.813 435.271 141.515 435.877C141.222 436.482 141.076 437.195 141.076 438.016V438.03C141.076 438.865 141.225 439.59 141.522 440.206C141.82 440.821 142.24 441.297 142.782 441.634C143.324 441.971 143.964 442.139 144.701 442.139ZM149.894 442H151.168V434.104H149.894V442ZM150.539 432.581C150.783 432.581 150.99 432.496 151.161 432.325C151.332 432.149 151.417 431.941 151.417 431.702C151.417 431.458 151.332 431.25 151.161 431.08C150.99 430.909 150.783 430.823 150.539 430.823C150.299 430.823 150.092 430.909 149.916 431.08C149.745 431.25 149.66 431.458 149.66 431.702C149.66 431.941 149.745 432.149 149.916 432.325C150.092 432.496 150.299 432.581 150.539 432.581ZM153.644 442H154.918V430.97H153.644V442ZM160.587 442.139C161.051 442.139 161.469 442.081 161.84 441.963C162.216 441.841 162.541 441.68 162.814 441.48C163.087 441.275 163.31 441.048 163.48 440.799C163.656 440.545 163.778 440.284 163.847 440.015L163.861 439.957H162.587L162.558 440.022C162.489 440.179 162.37 440.333 162.199 440.484C162.028 440.635 161.811 440.76 161.547 440.857C161.283 440.955 160.973 441.004 160.617 441.004C160.138 441.004 159.723 440.899 159.372 440.689C159.02 440.474 158.749 440.169 158.559 439.773C158.368 439.373 158.273 438.892 158.273 438.331V437.825C158.273 437.234 158.371 436.736 158.566 436.331C158.761 435.926 159.025 435.621 159.357 435.416C159.694 435.206 160.075 435.101 160.5 435.101C160.924 435.101 161.3 435.201 161.627 435.401C161.955 435.596 162.211 435.894 162.396 436.294C162.582 436.695 162.675 437.205 162.675 437.825V438.331L163.305 437.4H157.628V438.418H163.957V437.92C163.957 437.134 163.817 436.446 163.539 435.855C163.266 435.259 162.87 434.795 162.353 434.463C161.84 434.131 161.225 433.965 160.507 433.965C159.794 433.965 159.171 434.139 158.639 434.485C158.107 434.832 157.694 435.313 157.401 435.928C157.113 436.543 156.969 437.259 156.969 438.074V438.082C156.969 438.907 157.113 439.625 157.401 440.235C157.694 440.84 158.109 441.309 158.646 441.641C159.188 441.973 159.835 442.139 160.587 442.139ZM165.934 442H167.208V437.327C167.208 436.863 167.292 436.465 167.458 436.133C167.628 435.801 167.868 435.545 168.175 435.364C168.483 435.184 168.847 435.093 169.267 435.093C169.896 435.093 170.36 435.267 170.658 435.613C170.961 435.955 171.112 436.482 171.112 437.195V442H172.387V436.888C172.387 435.95 172.147 435.23 171.669 434.727C171.195 434.219 170.514 433.965 169.625 433.965C169.044 433.965 168.566 434.083 168.19 434.317C167.814 434.546 167.526 434.871 167.326 435.291H167.208V434.104H165.934V442ZM177.499 442.059C177.626 442.059 177.75 442.051 177.873 442.037C177.995 442.022 178.117 442.005 178.239 441.985V440.901C178.122 440.911 178.021 440.918 177.938 440.923C177.86 440.928 177.765 440.931 177.653 440.931C177.243 440.931 176.95 440.831 176.774 440.63C176.598 440.425 176.51 440.091 176.51 439.627V435.159H178.239V434.104H176.51V432.061H175.192V434.104H173.947V435.159H175.192V439.949C175.192 440.701 175.373 441.241 175.734 441.568C176.1 441.895 176.688 442.059 177.499 442.059ZM182.707 442.139C183.307 442.139 183.844 442.039 184.318 441.839C184.796 441.639 185.175 441.36 185.453 441.004C185.731 440.643 185.871 440.228 185.871 439.759V439.744C185.871 439.178 185.688 438.726 185.321 438.389C184.96 438.052 184.408 437.793 183.666 437.613L182.45 437.32C181.986 437.208 181.649 437.063 181.439 436.888C181.229 436.712 181.125 436.49 181.125 436.221V436.207C181.125 435.972 181.195 435.767 181.337 435.591C181.479 435.416 181.671 435.279 181.916 435.181C182.16 435.079 182.438 435.027 182.75 435.027C183.229 435.027 183.617 435.125 183.915 435.32C184.213 435.516 184.403 435.77 184.486 436.082H185.739C185.68 435.652 185.519 435.279 185.255 434.961C184.997 434.644 184.652 434.4 184.223 434.229C183.798 434.053 183.31 433.965 182.758 433.965C182.201 433.965 181.701 434.065 181.256 434.266C180.812 434.466 180.46 434.739 180.202 435.086C179.948 435.433 179.821 435.826 179.821 436.265V436.272C179.821 436.839 179.994 437.293 180.341 437.635C180.688 437.972 181.229 438.228 181.967 438.404L183.19 438.697C183.678 438.814 184.03 438.968 184.245 439.158C184.459 439.344 184.567 439.571 184.567 439.839V439.854C184.567 440.093 184.489 440.306 184.333 440.491C184.176 440.672 183.961 440.816 183.688 440.923C183.419 441.026 183.107 441.077 182.75 441.077C182.248 441.077 181.84 440.977 181.527 440.777C181.215 440.577 181.005 440.313 180.897 439.986H179.594C179.643 440.42 179.801 440.799 180.07 441.121C180.343 441.443 180.705 441.695 181.154 441.875C181.603 442.051 182.121 442.139 182.707 442.139ZM193.59 442H194.865L196.623 435.892H196.74L198.505 442H199.787L201.999 434.104H200.731L199.179 440.418H199.062L197.296 434.104H196.088L194.323 440.418H194.206L192.653 434.104H191.378L193.59 442ZM206.635 442.139C207.387 442.139 208.034 441.976 208.576 441.648C209.118 441.316 209.535 440.845 209.828 440.235C210.126 439.625 210.275 438.899 210.275 438.06V438.045C210.275 437.2 210.126 436.473 209.828 435.862C209.535 435.252 209.118 434.783 208.576 434.456C208.034 434.129 207.387 433.965 206.635 433.965C205.888 433.965 205.241 434.129 204.694 434.456C204.152 434.783 203.732 435.252 203.434 435.862C203.141 436.473 202.995 437.2 202.995 438.045V438.06C202.995 438.899 203.141 439.625 203.434 440.235C203.732 440.845 204.152 441.316 204.694 441.648C205.241 441.976 205.888 442.139 206.635 442.139ZM206.635 441.011C206.137 441.011 205.714 440.894 205.368 440.66C205.021 440.425 204.755 440.088 204.569 439.649C204.389 439.209 204.298 438.68 204.298 438.06V438.045C204.298 437.42 204.389 436.888 204.569 436.448C204.755 436.009 205.021 435.674 205.368 435.445C205.714 435.21 206.137 435.093 206.635 435.093C207.133 435.093 207.555 435.21 207.902 435.445C208.249 435.674 208.512 436.009 208.693 436.448C208.878 436.888 208.971 437.42 208.971 438.045V438.06C208.971 438.68 208.878 439.209 208.693 439.649C208.512 440.088 208.249 440.425 207.902 440.66C207.555 440.894 207.133 441.011 206.635 441.011ZM212.252 442H213.527V437.107C213.527 436.722 213.615 436.385 213.791 436.097C213.971 435.809 214.218 435.584 214.53 435.423C214.843 435.262 215.202 435.181 215.607 435.181C215.749 435.181 215.88 435.188 216.002 435.203C216.129 435.213 216.259 435.23 216.391 435.254V434.017C216.327 434.007 216.234 433.997 216.112 433.987C215.995 433.973 215.875 433.965 215.753 433.965C215.221 433.965 214.774 434.08 214.413 434.31C214.052 434.539 213.795 434.861 213.644 435.276H213.527V434.104H212.252V442ZM218.039 442H219.313V430.97H218.039V442ZM223.012 442H224.616L220.866 437.32L219.928 438.133L223.012 442ZM219.152 439.158L220.331 438.023L220.639 437.723L224.389 434.104H222.843L219.43 437.554H219.093L219.152 439.158ZM232.497 442.139C232.853 442.139 233.18 442.09 233.478 441.993C233.776 441.89 234.042 441.741 234.276 441.546C234.516 441.351 234.718 441.114 234.884 440.835H235.001V442H236.276V436.595C236.276 436.048 236.159 435.579 235.924 435.188C235.695 434.793 235.355 434.49 234.906 434.28C234.462 434.07 233.917 433.965 233.273 433.965C232.711 433.965 232.211 434.053 231.771 434.229C231.332 434.4 230.973 434.642 230.695 434.954C230.421 435.262 230.25 435.623 230.182 436.038L230.175 436.082H231.449L231.457 436.06C231.559 435.752 231.762 435.516 232.064 435.35C232.367 435.179 232.755 435.093 233.229 435.093C233.82 435.093 234.262 435.223 234.555 435.481C234.853 435.735 235.001 436.106 235.001 436.595V439.056C235.001 439.432 234.904 439.769 234.708 440.066C234.518 440.364 234.254 440.601 233.917 440.777C233.581 440.948 233.195 441.033 232.76 441.033C232.301 441.033 231.92 440.923 231.618 440.704C231.315 440.479 231.164 440.167 231.164 439.766V439.751C231.164 439.361 231.3 439.058 231.574 438.843C231.852 438.628 232.292 438.504 232.892 438.47L235.639 438.294V437.276L232.738 437.452C231.82 437.505 231.11 437.732 230.607 438.133C230.109 438.528 229.86 439.078 229.86 439.781V439.795C229.86 440.274 229.975 440.689 230.204 441.041C230.438 441.392 230.753 441.663 231.149 441.854C231.549 442.044 231.999 442.139 232.497 442.139ZM238.605 442H239.879V437.327C239.879 436.863 239.962 436.465 240.128 436.133C240.299 435.801 240.539 435.545 240.846 435.364C241.154 435.184 241.518 435.093 241.938 435.093C242.567 435.093 243.031 435.267 243.329 435.613C243.632 435.955 243.783 436.482 243.783 437.195V442H245.058V436.888C245.058 435.95 244.818 435.23 244.34 434.727C243.866 434.219 243.185 433.965 242.296 433.965C241.715 433.965 241.237 434.083 240.861 434.317C240.485 434.546 240.197 434.871 239.997 435.291H239.879V434.104H238.605V442ZM250.28 442.139C250.832 442.139 251.32 442.017 251.745 441.773C252.169 441.524 252.501 441.18 252.741 440.74H252.858V442H254.132V430.97H252.858V435.35H252.741C252.526 434.93 252.196 434.595 251.752 434.346C251.312 434.092 250.822 433.965 250.28 433.965C249.611 433.965 249.027 434.134 248.529 434.471C248.036 434.808 247.653 435.281 247.379 435.892C247.106 436.502 246.969 437.22 246.969 438.045V438.06C246.969 438.88 247.106 439.598 247.379 440.213C247.653 440.823 248.039 441.297 248.537 441.634C249.035 441.971 249.616 442.139 250.28 442.139ZM250.573 441.011C250.094 441.011 249.682 440.894 249.335 440.66C248.993 440.42 248.729 440.081 248.544 439.642C248.363 439.197 248.273 438.67 248.273 438.06V438.045C248.273 437.43 248.363 436.902 248.544 436.463C248.729 436.023 248.993 435.687 249.335 435.452C249.682 435.213 250.094 435.093 250.573 435.093C251.051 435.093 251.464 435.213 251.811 435.452C252.157 435.691 252.423 436.031 252.609 436.47C252.794 436.91 252.887 437.435 252.887 438.045V438.06C252.887 438.665 252.794 439.19 252.609 439.634C252.423 440.074 252.157 440.413 251.811 440.652C251.464 440.892 251.051 441.011 250.573 441.011ZM263.603 442.059C263.729 442.059 263.854 442.051 263.976 442.037C264.098 442.022 264.22 442.005 264.342 441.985V440.901C264.225 440.911 264.125 440.918 264.042 440.923C263.964 440.928 263.869 440.931 263.756 440.931C263.346 440.931 263.053 440.831 262.877 440.63C262.702 440.425 262.614 440.091 262.614 439.627V435.159H264.342V434.104H262.614V432.061H261.295V434.104H260.05V435.159H261.295V439.949C261.295 440.701 261.476 441.241 261.837 441.568C262.204 441.895 262.792 442.059 263.603 442.059ZM266.32 442H267.594V437.327C267.594 436.863 267.677 436.465 267.843 436.133C268.014 435.801 268.253 435.545 268.561 435.364C268.869 435.184 269.232 435.093 269.652 435.093C270.282 435.093 270.746 435.267 271.044 435.613C271.347 435.955 271.498 436.482 271.498 437.195V442H272.772V436.888C272.772 436.263 272.665 435.733 272.45 435.298C272.235 434.864 271.923 434.534 271.513 434.31C271.103 434.08 270.602 433.965 270.011 433.965C269.43 433.965 268.952 434.083 268.576 434.317C268.2 434.546 267.912 434.871 267.711 435.291H267.594V430.97H266.32V442ZM278.302 442.139C278.766 442.139 279.184 442.081 279.555 441.963C279.931 441.841 280.255 441.68 280.529 441.48C280.802 441.275 281.024 441.048 281.195 440.799C281.371 440.545 281.493 440.284 281.562 440.015L281.576 439.957H280.302L280.272 440.022C280.204 440.179 280.084 440.333 279.914 440.484C279.743 440.635 279.525 440.76 279.262 440.857C278.998 440.955 278.688 441.004 278.332 441.004C277.853 441.004 277.438 440.899 277.086 440.689C276.735 440.474 276.464 440.169 276.273 439.773C276.083 439.373 275.988 438.892 275.988 438.331V437.825C275.988 437.234 276.085 436.736 276.281 436.331C276.476 435.926 276.74 435.621 277.072 435.416C277.409 435.206 277.79 435.101 278.214 435.101C278.639 435.101 279.015 435.201 279.342 435.401C279.669 435.596 279.926 435.894 280.111 436.294C280.297 436.695 280.39 437.205 280.39 437.825V438.331L281.02 437.4H275.343V438.418H281.671V437.92C281.671 437.134 281.532 436.446 281.254 435.855C280.98 435.259 280.585 434.795 280.067 434.463C279.555 434.131 278.939 433.965 278.222 433.965C277.509 433.965 276.886 434.139 276.354 434.485C275.822 434.832 275.409 435.313 275.116 435.928C274.828 436.543 274.684 437.259 274.684 438.074V438.082C274.684 438.907 274.828 439.625 275.116 440.235C275.409 440.84 275.824 441.309 276.361 441.641C276.903 441.973 277.55 442.139 278.302 442.139ZM290.578 442.139C291.178 442.139 291.715 442.039 292.189 441.839C292.667 441.639 293.046 441.36 293.324 441.004C293.603 440.643 293.742 440.228 293.742 439.759V439.744C293.742 439.178 293.559 438.726 293.192 438.389C292.831 438.052 292.279 437.793 291.537 437.613L290.321 437.32C289.857 437.208 289.521 437.063 289.311 436.888C289.101 436.712 288.996 436.49 288.996 436.221V436.207C288.996 435.972 289.066 435.767 289.208 435.591C289.35 435.416 289.542 435.279 289.787 435.181C290.031 435.079 290.309 435.027 290.622 435.027C291.1 435.027 291.488 435.125 291.786 435.32C292.084 435.516 292.274 435.77 292.357 436.082H293.61C293.551 435.652 293.39 435.279 293.126 434.961C292.868 434.644 292.523 434.4 292.094 434.229C291.669 434.053 291.181 433.965 290.629 433.965C290.072 433.965 289.572 434.065 289.127 434.266C288.683 434.466 288.332 434.739 288.073 435.086C287.819 435.433 287.692 435.826 287.692 436.265V436.272C287.692 436.839 287.865 437.293 288.212 437.635C288.559 437.972 289.101 438.228 289.838 438.404L291.061 438.697C291.549 438.814 291.901 438.968 292.116 439.158C292.331 439.344 292.438 439.571 292.438 439.839V439.854C292.438 440.093 292.36 440.306 292.204 440.491C292.047 440.672 291.833 440.816 291.559 440.923C291.291 441.026 290.978 441.077 290.622 441.077C290.119 441.077 289.711 440.977 289.398 440.777C289.086 440.577 288.876 440.313 288.769 439.986H287.465C287.514 440.42 287.672 440.799 287.941 441.121C288.214 441.443 288.576 441.695 289.025 441.875C289.474 442.051 289.992 442.139 290.578 442.139ZM295.792 442H297.067V430.97H295.792V442ZM300.766 442H302.37L298.62 437.32L297.682 438.133L300.766 442ZM296.906 439.158L298.085 438.023L298.393 437.723L302.143 434.104H300.597L297.184 437.554H296.847L296.906 439.158ZM303.893 442H305.167V434.104H303.893V442ZM304.538 432.581C304.782 432.581 304.989 432.496 305.16 432.325C305.331 432.149 305.417 431.941 305.417 431.702C305.417 431.458 305.331 431.25 305.16 431.08C304.989 430.909 304.782 430.823 304.538 430.823C304.298 430.823 304.091 430.909 303.915 431.08C303.744 431.25 303.659 431.458 303.659 431.702C303.659 431.941 303.744 432.149 303.915 432.325C304.091 432.496 304.298 432.581 304.538 432.581ZM307.643 442H308.917V430.97H307.643V442ZM311.437 442H312.711V430.97H311.437V442ZM317.868 442.139C318.468 442.139 319.005 442.039 319.479 441.839C319.958 441.639 320.336 441.36 320.614 441.004C320.893 440.643 321.032 440.228 321.032 439.759V439.744C321.032 439.178 320.849 438.726 320.482 438.389C320.121 438.052 319.569 437.793 318.827 437.613L317.611 437.32C317.147 437.208 316.811 437.063 316.601 436.888C316.391 436.712 316.286 436.49 316.286 436.221V436.207C316.286 435.972 316.356 435.767 316.498 435.591C316.64 435.416 316.833 435.279 317.077 435.181C317.321 435.079 317.599 435.027 317.912 435.027C318.39 435.027 318.778 435.125 319.076 435.32C319.374 435.516 319.564 435.77 319.647 436.082H320.9C320.841 435.652 320.68 435.279 320.417 434.961C320.158 434.644 319.813 434.4 319.384 434.229C318.959 434.053 318.471 433.965 317.919 433.965C317.362 433.965 316.862 434.065 316.417 434.266C315.973 434.466 315.622 434.739 315.363 435.086C315.109 435.433 314.982 435.826 314.982 436.265V436.272C314.982 436.839 315.155 437.293 315.502 437.635C315.849 437.972 316.391 438.228 317.128 438.404L318.351 438.697C318.839 438.814 319.191 438.968 319.406 439.158C319.621 439.344 319.728 439.571 319.728 439.839V439.854C319.728 440.093 319.65 440.306 319.494 440.491C319.337 440.672 319.123 440.816 318.849 440.923C318.581 441.026 318.268 441.077 317.912 441.077C317.409 441.077 317.001 440.977 316.688 440.777C316.376 440.577 316.166 440.313 316.059 439.986H314.755C314.804 440.42 314.962 440.799 315.231 441.121C315.504 441.443 315.866 441.695 316.315 441.875C316.764 442.051 317.282 442.139 317.868 442.139ZM327.257 442H328.532V434.104H327.257V442ZM327.902 432.581C328.146 432.581 328.354 432.496 328.524 432.325C328.695 432.149 328.781 431.941 328.781 431.702C328.781 431.458 328.695 431.25 328.524 431.08C328.354 430.909 328.146 430.823 327.902 430.823C327.663 430.823 327.455 430.909 327.279 431.08C327.108 431.25 327.023 431.458 327.023 431.702C327.023 431.941 327.108 432.149 327.279 432.325C327.455 432.496 327.663 432.581 327.902 432.581ZM335.226 442H336.5V437.327C336.5 436.863 336.583 436.465 336.75 436.133C336.92 435.801 337.16 435.545 337.467 435.364C337.775 435.184 338.139 435.093 338.559 435.093C339.188 435.093 339.652 435.267 339.95 435.613C340.253 435.955 340.404 436.482 340.404 437.195V442H341.679V436.888C341.679 436.263 341.571 435.733 341.356 435.298C341.142 434.864 340.829 434.534 340.419 434.31C340.009 434.08 339.508 433.965 338.917 433.965C338.336 433.965 337.858 434.083 337.482 434.317C337.106 434.546 336.818 434.871 336.618 435.291H336.5V430.97H335.226V442ZM346.154 442.139C346.51 442.139 346.837 442.09 347.135 441.993C347.433 441.89 347.699 441.741 347.934 441.546C348.173 441.351 348.375 441.114 348.542 440.835H348.659V442H349.933V436.595C349.933 436.048 349.816 435.579 349.582 435.188C349.352 434.793 349.013 434.49 348.563 434.28C348.119 434.07 347.575 433.965 346.93 433.965C346.369 433.965 345.868 434.053 345.429 434.229C344.989 434.4 344.63 434.642 344.352 434.954C344.079 435.262 343.908 435.623 343.839 436.038L343.832 436.082H345.106L345.114 436.06C345.216 435.752 345.419 435.516 345.722 435.35C346.024 435.179 346.413 435.093 346.886 435.093C347.477 435.093 347.919 435.223 348.212 435.481C348.51 435.735 348.659 436.106 348.659 436.595V439.056C348.659 439.432 348.561 439.769 348.366 440.066C348.175 440.364 347.912 440.601 347.575 440.777C347.238 440.948 346.852 441.033 346.417 441.033C345.958 441.033 345.578 440.923 345.275 440.704C344.972 440.479 344.821 440.167 344.821 439.766V439.751C344.821 439.361 344.958 439.058 345.231 438.843C345.509 438.628 345.949 438.504 346.549 438.47L349.296 438.294V437.276L346.396 437.452C345.478 437.505 344.767 437.732 344.264 438.133C343.766 438.528 343.517 439.078 343.517 439.781V439.795C343.517 440.274 343.632 440.689 343.861 441.041C344.096 441.392 344.411 441.663 344.806 441.854C345.207 442.044 345.656 442.139 346.154 442.139ZM354.203 442H355.492L358.415 434.104H357.067L354.906 440.608H354.789L352.628 434.104H351.281L354.203 442ZM363.029 442.139C363.493 442.139 363.91 442.081 364.281 441.963C364.657 441.841 364.982 441.68 365.255 441.48C365.529 441.275 365.751 441.048 365.922 440.799C366.098 440.545 366.22 440.284 366.288 440.015L366.303 439.957H365.028L364.999 440.022C364.931 440.179 364.811 440.333 364.64 440.484C364.469 440.635 364.252 440.76 363.988 440.857C363.725 440.955 363.415 441.004 363.058 441.004C362.58 441.004 362.165 440.899 361.813 440.689C361.461 440.474 361.19 440.169 361 439.773C360.81 439.373 360.714 438.892 360.714 438.331V437.825C360.714 437.234 360.812 436.736 361.007 436.331C361.203 435.926 361.466 435.621 361.798 435.416C362.135 435.206 362.516 435.101 362.941 435.101C363.366 435.101 363.742 435.201 364.069 435.401C364.396 435.596 364.652 435.894 364.838 436.294C365.023 436.695 365.116 437.205 365.116 437.825V438.331L365.746 437.4H360.07V438.418H366.398V437.92C366.398 437.134 366.259 436.446 365.98 435.855C365.707 435.259 365.312 434.795 364.794 434.463C364.281 434.131 363.666 433.965 362.948 433.965C362.235 433.965 361.613 434.139 361.081 434.485C360.548 434.832 360.136 435.313 359.843 435.928C359.555 436.543 359.411 437.259 359.411 438.074V438.082C359.411 438.907 359.555 439.625 359.843 440.235C360.136 440.84 360.551 441.309 361.088 441.641C361.63 441.973 362.277 442.139 363.029 442.139ZM161.532 460.139C162.284 460.139 162.931 459.976 163.473 459.648C164.015 459.316 164.433 458.845 164.726 458.235C165.023 457.625 165.172 456.899 165.172 456.06V456.045C165.172 455.2 165.023 454.473 164.726 453.862C164.433 453.252 164.015 452.783 163.473 452.456C162.931 452.129 162.284 451.965 161.532 451.965C160.785 451.965 160.138 452.129 159.591 452.456C159.049 452.783 158.629 453.252 158.332 453.862C158.039 454.473 157.892 455.2 157.892 456.045V456.06C157.892 456.899 158.039 457.625 158.332 458.235C158.629 458.845 159.049 459.316 159.591 459.648C160.138 459.976 160.785 460.139 161.532 460.139ZM161.532 459.011C161.034 459.011 160.612 458.894 160.265 458.66C159.918 458.425 159.652 458.088 159.467 457.649C159.286 457.209 159.196 456.68 159.196 456.06V456.045C159.196 455.42 159.286 454.888 159.467 454.448C159.652 454.009 159.918 453.674 160.265 453.445C160.612 453.21 161.034 453.093 161.532 453.093C162.03 453.093 162.453 453.21 162.799 453.445C163.146 453.674 163.41 454.009 163.59 454.448C163.776 454.888 163.869 455.42 163.869 456.045V456.06C163.869 456.68 163.776 457.209 163.59 457.649C163.41 458.088 163.146 458.425 162.799 458.66C162.453 458.894 162.03 459.011 161.532 459.011ZM167.677 460H168.952V453.159H170.746V452.104H168.952V451.262C168.952 450.828 169.049 450.5 169.245 450.281C169.445 450.061 169.772 449.951 170.226 449.951C170.338 449.951 170.446 449.954 170.548 449.958C170.651 449.963 170.741 449.973 170.819 449.988V448.97C170.688 448.945 170.551 448.928 170.409 448.918C170.272 448.904 170.126 448.896 169.97 448.896C169.223 448.896 168.654 449.089 168.263 449.475C167.873 449.856 167.677 450.439 167.677 451.226V452.104H166.366V453.159H167.677V460ZM179.513 460.139C180.114 460.139 180.651 460.039 181.125 459.839C181.603 459.639 181.981 459.36 182.26 459.004C182.538 458.643 182.677 458.228 182.677 457.759V457.744C182.677 457.178 182.494 456.726 182.128 456.389C181.767 456.052 181.215 455.793 180.473 455.613L179.257 455.32C178.793 455.208 178.456 455.063 178.246 454.888C178.036 454.712 177.931 454.49 177.931 454.221V454.207C177.931 453.972 178.002 453.767 178.144 453.591C178.285 453.416 178.478 453.279 178.722 453.181C178.966 453.079 179.245 453.027 179.557 453.027C180.036 453.027 180.424 453.125 180.722 453.32C181.02 453.516 181.21 453.77 181.293 454.082H182.545C182.487 453.652 182.326 453.279 182.062 452.961C181.803 452.644 181.459 452.4 181.029 452.229C180.604 452.053 180.116 451.965 179.564 451.965C179.008 451.965 178.507 452.065 178.063 452.266C177.619 452.466 177.267 452.739 177.008 453.086C176.754 453.433 176.627 453.826 176.627 454.265V454.272C176.627 454.839 176.801 455.293 177.147 455.635C177.494 455.972 178.036 456.228 178.773 456.404L179.997 456.697C180.485 456.814 180.836 456.968 181.051 457.158C181.266 457.344 181.374 457.571 181.374 457.839V457.854C181.374 458.093 181.295 458.306 181.139 458.491C180.983 458.672 180.768 458.816 180.495 458.923C180.226 459.026 179.914 459.077 179.557 459.077C179.054 459.077 178.646 458.977 178.334 458.777C178.021 458.577 177.812 458.313 177.704 457.986H176.4C176.449 458.42 176.608 458.799 176.876 459.121C177.15 459.443 177.511 459.695 177.96 459.875C178.41 460.051 178.927 460.139 179.513 460.139ZM187.899 460.139C188.651 460.139 189.298 459.976 189.84 459.648C190.382 459.316 190.8 458.845 191.093 458.235C191.391 457.625 191.54 456.899 191.54 456.06V456.045C191.54 455.2 191.391 454.473 191.093 453.862C190.8 453.252 190.382 452.783 189.84 452.456C189.298 452.129 188.651 451.965 187.899 451.965C187.152 451.965 186.505 452.129 185.958 452.456C185.417 452.783 184.997 453.252 184.699 453.862C184.406 454.473 184.259 455.2 184.259 456.045V456.06C184.259 456.899 184.406 457.625 184.699 458.235C184.997 458.845 185.417 459.316 185.958 459.648C186.505 459.976 187.152 460.139 187.899 460.139ZM187.899 459.011C187.401 459.011 186.979 458.894 186.632 458.66C186.286 458.425 186.02 458.088 185.834 457.649C185.653 457.209 185.563 456.68 185.563 456.06V456.045C185.563 455.42 185.653 454.888 185.834 454.448C186.02 454.009 186.286 453.674 186.632 453.445C186.979 453.21 187.401 453.093 187.899 453.093C188.397 453.093 188.82 453.21 189.167 453.445C189.513 453.674 189.777 454.009 189.958 454.448C190.143 454.888 190.236 455.42 190.236 456.045V456.06C190.236 456.68 190.143 457.209 189.958 457.649C189.777 458.088 189.513 458.425 189.167 458.66C188.82 458.894 188.397 459.011 187.899 459.011ZM194.044 460H195.319V453.159H197.113V452.104H195.319V451.262C195.319 450.828 195.417 450.5 195.612 450.281C195.812 450.061 196.139 449.951 196.593 449.951C196.706 449.951 196.813 449.954 196.916 449.958C197.018 449.963 197.108 449.973 197.187 449.988V448.97C197.055 448.945 196.918 448.928 196.776 448.918C196.64 448.904 196.493 448.896 196.337 448.896C195.59 448.896 195.021 449.089 194.63 449.475C194.24 449.856 194.044 450.439 194.044 451.226V452.104H192.733V453.159H194.044V460ZM201.757 460.059C201.884 460.059 202.008 460.051 202.13 460.037C202.252 460.022 202.375 460.005 202.497 459.985V458.901C202.379 458.911 202.279 458.918 202.196 458.923C202.118 458.928 202.023 458.931 201.911 458.931C201.5 458.931 201.208 458.831 201.032 458.63C200.856 458.425 200.768 458.091 200.768 457.627V453.159H202.497V452.104H200.768V450.061H199.45V452.104H198.205V453.159H199.45V457.949C199.45 458.701 199.63 459.241 199.992 459.568C200.358 459.895 200.946 460.059 201.757 460.059ZM205.924 460H207.199L208.957 453.892H209.074L210.839 460H212.121L214.333 452.104H213.065L211.513 458.418H211.396L209.63 452.104H208.422L206.657 458.418H206.54L204.987 452.104H203.712L205.924 460ZM217.965 460.139C218.322 460.139 218.649 460.09 218.947 459.993C219.245 459.89 219.511 459.741 219.745 459.546C219.984 459.351 220.187 459.114 220.353 458.835H220.47V460H221.745V454.595C221.745 454.048 221.627 453.579 221.393 453.188C221.164 452.793 220.824 452.49 220.375 452.28C219.931 452.07 219.386 451.965 218.742 451.965C218.18 451.965 217.68 452.053 217.24 452.229C216.801 452.4 216.442 452.642 216.164 452.954C215.89 453.262 215.719 453.623 215.651 454.038L215.644 454.082H216.918L216.925 454.06C217.028 453.752 217.23 453.516 217.533 453.35C217.836 453.179 218.224 453.093 218.698 453.093C219.289 453.093 219.73 453.223 220.023 453.481C220.321 453.735 220.47 454.106 220.47 454.595V457.056C220.47 457.432 220.373 457.769 220.177 458.066C219.987 458.364 219.723 458.601 219.386 458.777C219.049 458.948 218.664 459.033 218.229 459.033C217.77 459.033 217.389 458.923 217.086 458.704C216.784 458.479 216.632 458.167 216.632 457.766V457.751C216.632 457.361 216.769 457.058 217.042 456.843C217.321 456.628 217.76 456.504 218.361 456.47L221.107 456.294V455.276L218.207 455.452C217.289 455.505 216.579 455.732 216.076 456.133C215.578 456.528 215.329 457.078 215.329 457.781V457.795C215.329 458.274 215.443 458.689 215.673 459.041C215.907 459.392 216.222 459.663 216.618 459.854C217.018 460.044 217.467 460.139 217.965 460.139ZM224.074 460H225.348V455.107C225.348 454.722 225.436 454.385 225.612 454.097C225.792 453.809 226.039 453.584 226.352 453.423C226.664 453.262 227.023 453.181 227.428 453.181C227.57 453.181 227.702 453.188 227.824 453.203C227.951 453.213 228.08 453.23 228.212 453.254V452.017C228.148 452.007 228.056 451.997 227.934 451.987C227.816 451.973 227.697 451.965 227.575 451.965C227.042 451.965 226.596 452.08 226.234 452.31C225.873 452.539 225.617 452.861 225.465 453.276H225.348V452.104H224.074V460ZM232.79 460.139C233.253 460.139 233.671 460.081 234.042 459.963C234.418 459.841 234.743 459.68 235.016 459.48C235.29 459.275 235.512 459.048 235.683 458.799C235.858 458.545 235.98 458.284 236.049 458.015L236.063 457.957H234.789L234.76 458.022C234.691 458.179 234.572 458.333 234.401 458.484C234.23 458.635 234.013 458.76 233.749 458.857C233.485 458.955 233.175 459.004 232.819 459.004C232.34 459.004 231.925 458.899 231.574 458.689C231.222 458.474 230.951 458.169 230.761 457.773C230.57 457.373 230.475 456.892 230.475 456.331V455.825C230.475 455.234 230.573 454.736 230.768 454.331C230.963 453.926 231.227 453.621 231.559 453.416C231.896 453.206 232.277 453.101 232.702 453.101C233.126 453.101 233.502 453.201 233.83 453.401C234.157 453.596 234.413 453.894 234.599 454.294C234.784 454.695 234.877 455.205 234.877 455.825V456.331L235.507 455.4H229.831V456.418H236.159V455.92C236.159 455.134 236.02 454.446 235.741 453.855C235.468 453.259 235.072 452.795 234.555 452.463C234.042 452.131 233.427 451.965 232.709 451.965C231.996 451.965 231.374 452.139 230.841 452.485C230.309 452.832 229.896 453.313 229.604 453.928C229.315 454.543 229.171 455.259 229.171 456.074V456.082C229.171 456.907 229.315 457.625 229.604 458.235C229.896 458.84 230.312 459.309 230.849 459.641C231.391 459.973 232.038 460.139 232.79 460.139ZM245.578 460.139C246.042 460.139 246.459 460.081 246.83 459.963C247.206 459.841 247.531 459.68 247.804 459.48C248.078 459.275 248.3 459.048 248.471 458.799C248.646 458.545 248.769 458.284 248.837 458.015L248.852 457.957H247.577L247.548 458.022C247.479 458.179 247.36 458.333 247.189 458.484C247.018 458.635 246.801 458.76 246.537 458.857C246.273 458.955 245.963 459.004 245.607 459.004C245.128 459.004 244.713 458.899 244.362 458.689C244.01 458.474 243.739 458.169 243.549 457.773C243.358 457.373 243.263 456.892 243.263 456.331V455.825C243.263 455.234 243.361 454.736 243.556 454.331C243.751 453.926 244.015 453.621 244.347 453.416C244.684 453.206 245.065 453.101 245.49 453.101C245.915 453.101 246.291 453.201 246.618 453.401C246.945 453.596 247.201 453.894 247.387 454.294C247.572 454.695 247.665 455.205 247.665 455.825V456.331L248.295 455.4H242.619V456.418H248.947V455.92C248.947 455.134 248.808 454.446 248.529 453.855C248.256 453.259 247.86 452.795 247.343 452.463C246.83 452.131 246.215 451.965 245.497 451.965C244.784 451.965 244.162 452.139 243.629 452.485C243.097 452.832 242.685 453.313 242.392 453.928C242.104 454.543 241.959 455.259 241.959 456.074V456.082C241.959 456.907 242.104 457.625 242.392 458.235C242.685 458.84 243.1 459.309 243.637 459.641C244.179 459.973 244.826 460.139 245.578 460.139ZM250.924 460H252.199V455.327C252.199 454.863 252.282 454.465 252.448 454.133C252.619 453.801 252.858 453.545 253.166 453.364C253.473 453.184 253.837 453.093 254.257 453.093C254.887 453.093 255.351 453.267 255.648 453.613C255.951 453.955 256.103 454.482 256.103 455.195V460H257.377V454.888C257.377 453.95 257.138 453.23 256.659 452.727C256.186 452.219 255.504 451.965 254.616 451.965C254.035 451.965 253.556 452.083 253.18 452.317C252.804 452.546 252.516 452.871 252.316 453.291H252.199V452.104H250.924V460ZM262.936 462.783C263.654 462.783 264.276 462.664 264.804 462.424C265.331 462.19 265.736 461.855 266.02 461.421C266.308 460.986 266.452 460.476 266.452 459.89V452.104H265.177V453.408H265.089C264.928 453.11 264.726 452.854 264.481 452.639C264.242 452.424 263.966 452.258 263.654 452.141C263.341 452.024 263 451.965 262.628 451.965C261.94 451.965 261.347 452.131 260.849 452.463C260.351 452.791 259.965 453.242 259.691 453.818C259.423 454.39 259.289 455.044 259.289 455.781V455.796C259.289 456.533 259.423 457.188 259.691 457.759C259.96 458.33 260.341 458.779 260.834 459.106C261.332 459.429 261.92 459.59 262.599 459.59C262.96 459.59 263.297 459.539 263.61 459.436C263.922 459.329 264.203 459.172 264.452 458.967C264.701 458.762 264.909 458.516 265.075 458.228H265.192V459.824C265.192 460.405 264.992 460.854 264.591 461.172C264.196 461.494 263.644 461.655 262.936 461.655C262.37 461.655 261.916 461.558 261.574 461.362C261.232 461.172 261.027 460.928 260.958 460.63L260.951 460.623H259.633L259.618 460.63C259.687 461.06 259.86 461.436 260.138 461.758C260.421 462.085 260.8 462.336 261.273 462.512C261.747 462.693 262.301 462.783 262.936 462.783ZM262.877 458.462C262.389 458.462 261.974 458.35 261.632 458.125C261.295 457.896 261.037 457.581 260.856 457.18C260.68 456.78 260.592 456.318 260.592 455.796V455.781C260.592 455.259 260.68 454.795 260.856 454.39C261.037 453.984 261.295 453.667 261.632 453.438C261.974 453.208 262.389 453.093 262.877 453.093C263.366 453.093 263.783 453.208 264.13 453.438C264.481 453.667 264.75 453.984 264.936 454.39C265.126 454.795 265.221 455.259 265.221 455.781V455.796C265.221 456.318 265.126 456.78 264.936 457.18C264.75 457.581 264.481 457.896 264.13 458.125C263.783 458.35 263.366 458.462 262.877 458.462ZM268.854 460H270.128V452.104H268.854V460ZM269.499 450.581C269.743 450.581 269.95 450.496 270.121 450.325C270.292 450.149 270.377 449.941 270.377 449.702C270.377 449.458 270.292 449.25 270.121 449.08C269.95 448.909 269.743 448.823 269.499 448.823C269.259 448.823 269.052 448.909 268.876 449.08C268.705 449.25 268.62 449.458 268.62 449.702C268.62 449.941 268.705 450.149 268.876 450.325C269.052 450.496 269.259 450.581 269.499 450.581ZM272.531 460H273.805V455.327C273.805 454.863 273.888 454.465 274.054 454.133C274.225 453.801 274.464 453.545 274.772 453.364C275.08 453.184 275.443 453.093 275.863 453.093C276.493 453.093 276.957 453.267 277.255 453.613C277.558 453.955 277.709 454.482 277.709 455.195V460H278.983V454.888C278.983 453.95 278.744 453.23 278.266 452.727C277.792 452.219 277.111 451.965 276.222 451.965C275.641 451.965 275.163 452.083 274.787 452.317C274.411 452.546 274.123 452.871 273.922 453.291H273.805V452.104H272.531V460ZM281.291 460H282.565V455.327C282.565 454.863 282.648 454.465 282.814 454.133C282.985 453.801 283.224 453.545 283.532 453.364C283.839 453.184 284.203 453.093 284.623 453.093C285.253 453.093 285.717 453.267 286.015 453.613C286.317 453.955 286.469 454.482 286.469 455.195V460H287.743V454.888C287.743 453.95 287.504 453.23 287.025 452.727C286.552 452.219 285.871 451.965 284.982 451.965C284.401 451.965 283.922 452.083 283.546 452.317C283.17 452.546 282.882 452.871 282.682 453.291H282.565V452.104H281.291V460ZM293.273 460.139C293.737 460.139 294.154 460.081 294.525 459.963C294.901 459.841 295.226 459.68 295.5 459.48C295.773 459.275 295.995 459.048 296.166 458.799C296.342 458.545 296.464 458.284 296.532 458.015L296.547 457.957H295.272L295.243 458.022C295.175 458.179 295.055 458.333 294.884 458.484C294.713 458.635 294.496 458.76 294.232 458.857C293.969 458.955 293.659 459.004 293.302 459.004C292.824 459.004 292.409 458.899 292.057 458.689C291.706 458.474 291.435 458.169 291.244 457.773C291.054 457.373 290.958 456.892 290.958 456.331V455.825C290.958 455.234 291.056 454.736 291.251 454.331C291.447 453.926 291.71 453.621 292.042 453.416C292.379 453.206 292.76 453.101 293.185 453.101C293.61 453.101 293.986 453.201 294.313 453.401C294.64 453.596 294.896 453.894 295.082 454.294C295.268 454.695 295.36 455.205 295.36 455.825V456.331L295.99 455.4H290.314V456.418H296.642V455.92C296.642 455.134 296.503 454.446 296.225 453.855C295.951 453.259 295.556 452.795 295.038 452.463C294.525 452.131 293.91 451.965 293.192 451.965C292.479 451.965 291.857 452.139 291.325 452.485C290.792 452.832 290.38 453.313 290.087 453.928C289.799 454.543 289.655 455.259 289.655 456.074V456.082C289.655 456.907 289.799 457.625 290.087 458.235C290.38 458.84 290.795 459.309 291.332 459.641C291.874 459.973 292.521 460.139 293.273 460.139ZM298.649 460H299.923V452.104H298.649V460ZM299.293 450.581C299.538 450.581 299.745 450.496 299.916 450.325C300.087 450.149 300.172 449.941 300.172 449.702C300.172 449.458 300.087 449.25 299.916 449.08C299.745 448.909 299.538 448.823 299.293 448.823C299.054 448.823 298.847 448.909 298.671 449.08C298.5 449.25 298.415 449.458 298.415 449.702C298.415 449.941 298.5 450.149 298.671 450.325C298.847 450.496 299.054 450.581 299.293 450.581ZM302.326 460H303.6V455.107C303.6 454.722 303.688 454.385 303.864 454.097C304.044 453.809 304.291 453.584 304.604 453.423C304.916 453.262 305.275 453.181 305.68 453.181C305.822 453.181 305.954 453.188 306.076 453.203C306.203 453.213 306.332 453.23 306.464 453.254V452.017C306.4 452.007 306.308 451.997 306.186 451.987C306.068 451.973 305.949 451.965 305.827 451.965C305.294 451.965 304.848 452.08 304.486 452.31C304.125 452.539 303.869 452.861 303.717 453.276H303.6V452.104H302.326V460ZM308.185 460H309.459V455.327C309.459 454.863 309.542 454.465 309.708 454.133C309.879 453.801 310.119 453.545 310.426 453.364C310.734 453.184 311.098 453.093 311.518 453.093C312.147 453.093 312.611 453.267 312.909 453.613C313.212 453.955 313.363 454.482 313.363 455.195V460H314.638V454.888C314.638 453.95 314.398 453.23 313.92 452.727C313.446 452.219 312.765 451.965 311.876 451.965C311.295 451.965 310.817 452.083 310.441 452.317C310.065 452.546 309.777 452.871 309.577 453.291H309.459V452.104H308.185V460ZM320.197 462.783C320.915 462.783 321.537 462.664 322.064 462.424C322.592 462.19 322.997 461.855 323.28 461.421C323.568 460.986 323.712 460.476 323.712 459.89V452.104H322.438V453.408H322.35C322.189 453.11 321.986 452.854 321.742 452.639C321.503 452.424 321.227 452.258 320.915 452.141C320.602 452.024 320.26 451.965 319.889 451.965C319.201 451.965 318.607 452.131 318.109 452.463C317.611 452.791 317.226 453.242 316.952 453.818C316.684 454.39 316.549 455.044 316.549 455.781V455.796C316.549 456.533 316.684 457.188 316.952 457.759C317.221 458.33 317.602 458.779 318.095 459.106C318.593 459.429 319.181 459.59 319.86 459.59C320.221 459.59 320.558 459.539 320.871 459.436C321.183 459.329 321.464 459.172 321.713 458.967C321.962 458.762 322.169 458.516 322.335 458.228H322.453V459.824C322.453 460.405 322.252 460.854 321.852 461.172C321.457 461.494 320.905 461.655 320.197 461.655C319.63 461.655 319.176 461.558 318.834 461.362C318.493 461.172 318.288 460.928 318.219 460.63L318.212 460.623H316.894L316.879 460.63C316.947 461.06 317.121 461.436 317.399 461.758C317.682 462.085 318.061 462.336 318.534 462.512C319.008 462.693 319.562 462.783 320.197 462.783ZM320.138 458.462C319.65 458.462 319.235 458.35 318.893 458.125C318.556 457.896 318.297 457.581 318.117 457.18C317.941 456.78 317.853 456.318 317.853 455.796V455.781C317.853 455.259 317.941 454.795 318.117 454.39C318.297 453.984 318.556 453.667 318.893 453.438C319.235 453.208 319.65 453.093 320.138 453.093C320.626 453.093 321.044 453.208 321.391 453.438C321.742 453.667 322.011 453.984 322.196 454.39C322.387 454.795 322.482 455.259 322.482 455.781V455.796C322.482 456.318 322.387 456.78 322.196 457.18C322.011 457.581 321.742 457.896 321.391 458.125C321.044 458.35 320.626 458.462 320.138 458.462Z" fill="black"/>
<path d="M172.715 402.684H181.055C182.956 402.684 184.622 402.293 186.055 401.512C187.5 400.717 188.626 399.617 189.434 398.211C190.241 396.792 190.645 395.145 190.645 393.27V393.23C190.645 391.342 190.241 389.695 189.434 388.289C188.626 386.87 187.5 385.77 186.055 384.988C184.622 384.207 182.956 383.816 181.055 383.816H172.715V387.918H179.805C181.628 387.918 183.034 388.38 184.023 389.305C185.026 390.229 185.527 391.544 185.527 393.25V393.289C185.527 394.982 185.026 396.297 184.023 397.234C183.034 398.159 181.628 398.621 179.805 398.621H172.715V402.684ZM170.195 412H175.234V383.816H170.195V412ZM193.848 412H198.691V399.988C198.691 398.96 198.867 398.087 199.219 397.371C199.57 396.655 200.078 396.115 200.742 395.75C201.406 395.372 202.194 395.184 203.105 395.184C203.522 395.184 203.906 395.21 204.258 395.262C204.622 395.314 204.902 395.379 205.098 395.457V391.062C204.915 391.01 204.688 390.965 204.414 390.926C204.141 390.887 203.854 390.867 203.555 390.867C202.357 390.867 201.341 391.225 200.508 391.941C199.688 392.645 199.121 393.621 198.809 394.871H198.691V391.297H193.848V412ZM215.977 412.41C218.008 412.41 219.772 411.98 221.27 411.121C222.767 410.262 223.926 409.031 224.746 407.43C225.579 405.815 225.996 403.888 225.996 401.648V401.609C225.996 399.383 225.579 397.469 224.746 395.867C223.913 394.266 222.741 393.035 221.23 392.176C219.733 391.303 217.975 390.867 215.957 390.867C213.952 390.867 212.201 391.303 210.703 392.176C209.206 393.035 208.04 394.272 207.207 395.887C206.374 397.488 205.957 399.396 205.957 401.609V401.648C205.957 403.875 206.367 405.796 207.188 407.41C208.021 409.012 209.186 410.249 210.684 411.121C212.181 411.98 213.945 412.41 215.977 412.41ZM215.996 408.484C214.967 408.484 214.069 408.217 213.301 407.684C212.546 407.15 211.953 406.375 211.523 405.359C211.107 404.331 210.898 403.094 210.898 401.648V401.609C210.898 400.177 211.107 398.953 211.523 397.938C211.953 396.922 212.546 396.147 213.301 395.613C214.069 395.079 214.954 394.812 215.957 394.812C216.986 394.812 217.878 395.079 218.633 395.613C219.401 396.147 219.993 396.922 220.41 397.938C220.827 398.953 221.035 400.177 221.035 401.609V401.648C221.035 403.094 220.827 404.331 220.41 405.359C220.007 406.375 219.427 407.15 218.672 407.684C217.917 408.217 217.025 408.484 215.996 408.484ZM227.031 418.895C229.388 418.895 231.152 418.367 232.324 417.312C233.496 416.271 234.082 414.695 234.082 412.586V391.297H229.238V412.508C229.238 413.458 229.023 414.116 228.594 414.48C228.177 414.858 227.467 415.047 226.465 415.047C226.348 415.047 226.237 415.04 226.133 415.027C226.016 415.027 225.911 415.027 225.82 415.027V418.836C225.964 418.849 226.152 418.862 226.387 418.875C226.621 418.888 226.836 418.895 227.031 418.895ZM231.66 388.328C232.428 388.328 233.073 388.068 233.594 387.547C234.115 387.026 234.375 386.401 234.375 385.672C234.375 384.93 234.115 384.305 233.594 383.797C233.073 383.276 232.428 383.016 231.66 383.016C230.905 383.016 230.26 383.276 229.727 383.797C229.206 384.305 228.945 384.93 228.945 385.672C228.945 386.401 229.206 387.026 229.727 387.547C230.26 388.068 230.905 388.328 231.66 388.328ZM247.324 412.41C248.665 412.41 249.863 412.234 250.918 411.883C251.973 411.518 252.884 411.03 253.652 410.418C254.421 409.806 255.033 409.122 255.488 408.367C255.944 407.599 256.257 406.818 256.426 406.023L256.465 405.809H251.934L251.895 405.945C251.738 406.414 251.458 406.85 251.055 407.254C250.664 407.658 250.163 407.99 249.551 408.25C248.939 408.497 248.229 408.621 247.422 408.621C246.341 408.621 245.41 408.387 244.629 407.918C243.848 407.436 243.242 406.753 242.812 405.867C242.396 404.969 242.188 403.888 242.188 402.625V400.75C242.188 399.448 242.396 398.341 242.812 397.43C243.242 396.518 243.828 395.835 244.57 395.379C245.326 394.91 246.185 394.676 247.148 394.676C248.099 394.676 248.939 394.904 249.668 395.359C250.397 395.802 250.97 396.473 251.387 397.371C251.803 398.27 252.012 399.396 252.012 400.75V402.625L254.355 399.598H239.766V402.84H256.68V401.277C256.68 399.194 256.289 397.371 255.508 395.809C254.74 394.246 253.633 393.035 252.188 392.176C250.755 391.303 249.056 390.867 247.09 390.867C245.111 390.867 243.392 391.316 241.934 392.215C240.488 393.113 239.362 394.376 238.555 396.004C237.76 397.618 237.363 399.513 237.363 401.688V401.707C237.363 403.895 237.76 405.789 238.555 407.391C239.349 408.992 240.488 410.229 241.973 411.102C243.47 411.974 245.254 412.41 247.324 412.41ZM268.926 412.41C270.671 412.41 272.201 412.078 273.516 411.414C274.831 410.737 275.879 409.826 276.66 408.68C277.441 407.534 277.897 406.245 278.027 404.812L278.047 404.676H273.457L273.418 404.852C273.197 405.932 272.702 406.811 271.934 407.488C271.178 408.152 270.182 408.484 268.945 408.484C267.93 408.484 267.038 408.217 266.27 407.684C265.514 407.137 264.922 406.355 264.492 405.34C264.076 404.324 263.867 403.1 263.867 401.668V401.648C263.867 400.229 264.076 399.012 264.492 397.996C264.909 396.98 265.495 396.199 266.25 395.652C267.018 395.092 267.91 394.812 268.926 394.812C270.215 394.812 271.23 395.171 271.973 395.887C272.728 396.59 273.203 397.443 273.398 398.445L273.438 398.602H278.008V398.465C277.904 397.085 277.474 395.822 276.719 394.676C275.964 393.53 274.922 392.612 273.594 391.922C272.266 391.219 270.69 390.867 268.867 390.867C266.862 390.867 265.111 391.303 263.613 392.176C262.129 393.048 260.977 394.292 260.156 395.906C259.336 397.508 258.926 399.409 258.926 401.609V401.629C258.926 403.842 259.329 405.757 260.137 407.371C260.957 408.986 262.116 410.229 263.613 411.102C265.111 411.974 266.882 412.41 268.926 412.41ZM288.633 412.41C289.141 412.41 289.596 412.391 290 412.352C290.417 412.312 290.768 412.273 291.055 412.234V408.582C290.885 408.595 290.703 408.615 290.508 408.641C290.326 408.654 290.111 408.66 289.863 408.66C288.991 408.66 288.327 408.471 287.871 408.094C287.428 407.703 287.207 407.007 287.207 406.004V395.047H291.055V391.297H287.207V386.043H282.266V391.297H279.336V395.047H282.266V406.395C282.266 408.53 282.786 410.066 283.828 411.004C284.883 411.941 286.484 412.41 288.633 412.41ZM302.48 412.41C304.173 412.41 305.671 412.143 306.973 411.609C308.288 411.062 309.316 410.301 310.059 409.324C310.801 408.335 311.172 407.189 311.172 405.887V405.867C311.172 404.37 310.716 403.178 309.805 402.293C308.893 401.395 307.363 400.704 305.215 400.223L301.777 399.461C300.71 399.214 299.948 398.888 299.492 398.484C299.049 398.081 298.828 397.586 298.828 397V396.98C298.828 396.473 298.965 396.03 299.238 395.652C299.525 395.275 299.928 394.982 300.449 394.773C300.983 394.565 301.608 394.461 302.324 394.461C303.457 394.461 304.349 394.734 305 395.281C305.651 395.815 306.029 396.499 306.133 397.332L306.152 397.488H310.684L310.664 397.273C310.612 396.076 310.247 394.995 309.57 394.031C308.906 393.068 307.962 392.299 306.738 391.727C305.514 391.154 304.043 390.867 302.324 390.867C300.671 390.867 299.219 391.134 297.969 391.668C296.719 392.202 295.749 392.944 295.059 393.895C294.368 394.845 294.023 395.952 294.023 397.215V397.234C294.023 398.771 294.518 400.027 295.508 401.004C296.51 401.98 298.001 402.684 299.98 403.113L303.418 403.875C304.499 404.122 305.247 404.441 305.664 404.832C306.081 405.21 306.289 405.704 306.289 406.316V406.336C306.289 406.844 306.133 407.286 305.82 407.664C305.521 408.042 305.091 408.328 304.531 408.523C303.971 408.719 303.294 408.816 302.5 408.816C301.263 408.816 300.299 408.569 299.609 408.074C298.932 407.579 298.503 406.883 298.32 405.984L298.281 405.809H293.496L293.516 405.984C293.672 407.26 294.108 408.387 294.824 409.363C295.553 410.327 296.556 411.076 297.832 411.609C299.121 412.143 300.671 412.41 302.48 412.41Z" fill="black"/>
<defs>
<filter id="filter0_dii_301_13" x="-81.6534" y="0.903675" width="545.8" height="709.8" filterUnits="userSpaceOnUse" color-interpolation-filters="sRGB">
<feFlood flood-opacity="0" result="BackgroundImageFix"/>
<feColorMatrix in="SourceAlpha" type="matrix" values="0 0 0 0 0 0 0 0 0 0 0 0 0 0 0 0 0 0 127 0" result="hardAlpha"/>
<feOffset dx="-50.2534" dy="20.3037"/>
<feGaussianBlur stdDeviation="54.2"/>
<feColorMatrix type="matrix" values="0 0 0 0 0.185833 0 0 0 0 0.179639 0 0 0 0 0.174219 0 0 0 0.2015 0"/>
<feBlend mode="normal" in2="BackgroundImageFix" result="effect1_dropShadow_301_13"/>
<feBlend mode="normal" in="SourceGraphic" in2="effect1_dropShadow_301_13" result="shape"/>
<feColorMatrix in="SourceAlpha" type="matrix" values="0 0 0 0 0 0 0 0 0 0 0 0 0 0 0 0 0 0 127 0" result="hardAlpha"/>
<feOffset dx="-14.406" dy="5.82039"/>
<feGaussianBlur stdDeviation="7.76867"/>
<feComposite in2="hardAlpha" operator="arithmetic" k2="-1" k3="1"/>
<feColorMatrix type="matrix" values="0 0 0 0 1 0 0 0 0 1 0 0 0 0 0.991305 0 0 0 1 0"/>
<feBlend mode="normal" in2="shape" result="effect2_innerShadow_301_13"/>
<feColorMatrix in="SourceAlpha" type="matrix" values="0 0 0 0 0 0 0 0 0 0 0 0 0 0 0 0 0 0 127 0" result="hardAlpha"/>
<feOffset dx="14.406" dy="-5.82039"/>
<feGaussianBlur stdDeviation="7.76867"/>
<feComposite in2="hardAlpha" operator="arithmetic" k2="-1" k3="1"/>
<feColorMatrix type="matrix" values="0 0 0 0 0.768885 0 0 0 0 0.743256 0 0 0 0 0.72083 0 0 0 1 0"/>
<feBlend mode="normal" in2="effect2_innerShadow_301_13" result="effect3_innerShadow_301_13"/>
</filter>
<linearGradient id="paint0_linear_301_13" x1="344.454" y1="57.3175" x2="13.6638" y2="146.507" gradientUnits="userSpaceOnUse">
<stop stop-color="#FFFDF5"/>
<stop offset="1" stop-color="#CCC5BF"/>
</linearGradient>
</defs>
</svg>
