<svg width="137" height="32" viewBox="0 0 137 32" fill="none" xmlns="http://www.w3.org/2000/svg">
<rect width="137" height="32" rx="16" fill="#141722" fill-opacity="0.79"/>
<path d="M13.3477 21H14.666V16.188H20.4668V21H21.7852V10.4312H20.4668V15.0015H14.666V10.4312H13.3477V21ZM24.3486 21H25.623V13.1045H24.3486V21ZM24.9932 11.5811C25.2373 11.5811 25.4448 11.4956 25.6157 11.3247C25.7866 11.1489 25.8721 10.9414 25.8721 10.7021C25.8721 10.458 25.7866 10.2505 25.6157 10.0796C25.4448 9.90869 25.2373 9.82324 24.9932 9.82324C24.7539 9.82324 24.5464 9.90869 24.3706 10.0796C24.1997 10.2505 24.1143 10.458 24.1143 10.7021C24.1143 10.9414 24.1997 11.1489 24.3706 11.3247C24.5464 11.4956 24.7539 11.5811 24.9932 11.5811ZM28.0254 21H29.2998V16.1074C29.2998 15.7217 29.3877 15.3848 29.5635 15.0967C29.7441 14.8086 29.9907 14.584 30.3032 14.4229C30.6157 14.2617 30.9746 14.1812 31.3799 14.1812C31.5215 14.1812 31.6533 14.1885 31.7754 14.2031C31.9023 14.2129 32.0317 14.23 32.1636 14.2544V13.0166C32.1001 13.0068 32.0073 12.9971 31.8853 12.9873C31.7681 12.9727 31.6484 12.9653 31.5264 12.9653C30.9941 12.9653 30.5474 13.0801 30.186 13.3096C29.8247 13.5391 29.5684 13.8613 29.417 14.2764H29.2998V13.1045H28.0254V21ZM36.7412 21.1392C37.2051 21.1392 37.6226 21.0806 37.9937 20.9634C38.3696 20.8413 38.6943 20.6802 38.9678 20.48C39.2412 20.2749 39.4634 20.0479 39.6343 19.7988C39.8101 19.5449 39.9321 19.2837 40.0005 19.0151L40.0151 18.9565H38.7407L38.7114 19.0225C38.6431 19.1787 38.5234 19.3325 38.3525 19.4839C38.1816 19.6353 37.9644 19.7598 37.7007 19.8574C37.437 19.9551 37.127 20.0039 36.7705 20.0039C36.292 20.0039 35.877 19.8989 35.5254 19.689C35.1738 19.4741 34.9028 19.1689 34.7124 18.7734C34.522 18.373 34.4268 17.8921 34.4268 17.3306V16.8252C34.4268 16.2344 34.5244 15.7363 34.7197 15.3311C34.915 14.9258 35.1787 14.6206 35.5107 14.4155C35.8477 14.2056 36.2285 14.1006 36.6533 14.1006C37.0781 14.1006 37.4541 14.2007 37.7812 14.4009C38.1084 14.5962 38.3647 14.894 38.5503 15.2944C38.7358 15.6948 38.8286 16.2051 38.8286 16.8252V17.3306L39.4585 16.4004H33.7822V17.4185H40.1104V16.9204C40.1104 16.1343 39.9712 15.4458 39.6929 14.855C39.4194 14.2593 39.0239 13.7954 38.5063 13.4634C37.9937 13.1313 37.3784 12.9653 36.6606 12.9653C35.9478 12.9653 35.3252 13.1387 34.793 13.4854C34.2607 13.832 33.8481 14.313 33.5552 14.9282C33.2671 15.5435 33.123 16.2588 33.123 17.0742V17.0815C33.123 17.9067 33.2671 18.6245 33.5552 19.2349C33.8481 19.8403 34.2632 20.3091 34.8003 20.6411C35.3423 20.9731 35.9893 21.1392 36.7412 21.1392ZM46.4678 21H47.6982V12.9287H48.3428L46.8706 10.7241L51.1187 21H52.2319L56.4873 10.7241L55.0078 12.9287H55.6523V21H56.8828V10.4312H55.3521L51.7339 19.2495H51.6167L47.9985 10.4312H46.4678V21ZM62.6396 21.1392C63.1035 21.1392 63.521 21.0806 63.8921 20.9634C64.2681 20.8413 64.5928 20.6802 64.8662 20.48C65.1396 20.2749 65.3618 20.0479 65.5327 19.7988C65.7085 19.5449 65.8306 19.2837 65.8989 19.0151L65.9136 18.9565H64.6392L64.6099 19.0225C64.5415 19.1787 64.4219 19.3325 64.251 19.4839C64.0801 19.6353 63.8628 19.7598 63.5991 19.8574C63.3354 19.9551 63.0254 20.0039 62.6689 20.0039C62.1904 20.0039 61.7754 19.8989 61.4238 19.689C61.0723 19.4741 60.8013 19.1689 60.6108 18.7734C60.4204 18.373 60.3252 17.8921 60.3252 17.3306V16.8252C60.3252 16.2344 60.4229 15.7363 60.6182 15.3311C60.8135 14.9258 61.0771 14.6206 61.4092 14.4155C61.7461 14.2056 62.127 14.1006 62.5518 14.1006C62.9766 14.1006 63.3525 14.2007 63.6797 14.4009C64.0068 14.5962 64.2632 14.894 64.4487 15.2944C64.6343 15.6948 64.7271 16.2051 64.7271 16.8252V17.3306L65.3569 16.4004H59.6807V17.4185H66.0088V16.9204C66.0088 16.1343 65.8696 15.4458 65.5913 14.855C65.3179 14.2593 64.9224 13.7954 64.4048 13.4634C63.8921 13.1313 63.2769 12.9653 62.5591 12.9653C61.8462 12.9653 61.2236 13.1387 60.6914 13.4854C60.1592 13.832 59.7466 14.313 59.4536 14.9282C59.1655 15.5435 59.0215 16.2588 59.0215 17.0742V17.0815C59.0215 17.9067 59.1655 18.6245 59.4536 19.2349C59.7466 19.8403 60.1616 20.3091 60.6987 20.6411C61.2407 20.9731 61.8877 21.1392 62.6396 21.1392ZM71.5239 21H72.9082L76.0137 12.1377H76.4312V10.4312H75.4204L71.5239 21ZM73.2891 17.9751H78.8848L78.4746 16.8545H73.6992L73.2891 17.9751ZM79.2363 21H80.6206L76.7241 10.4312H76.1309V12.1377L79.2363 21ZM82.3857 21H83.6602V9.96973H82.3857V21ZM86.1064 21H87.3809V16.1074C87.3809 15.7217 87.4688 15.3848 87.6445 15.0967C87.8252 14.8086 88.0718 14.584 88.3843 14.4229C88.6968 14.2617 89.0557 14.1812 89.4609 14.1812C89.6025 14.1812 89.7344 14.1885 89.8564 14.2031C89.9834 14.2129 90.1128 14.23 90.2446 14.2544V13.0166C90.1812 13.0068 90.0884 12.9971 89.9663 12.9873C89.8491 12.9727 89.7295 12.9653 89.6074 12.9653C89.0752 12.9653 88.6284 13.0801 88.2671 13.3096C87.9058 13.5391 87.6494 13.8613 87.498 14.2764H87.3809V13.1045H86.1064V21ZM94.8223 21.1392C95.2861 21.1392 95.7036 21.0806 96.0747 20.9634C96.4507 20.8413 96.7754 20.6802 97.0488 20.48C97.3223 20.2749 97.5444 20.0479 97.7153 19.7988C97.8911 19.5449 98.0132 19.2837 98.0815 19.0151L98.0962 18.9565H96.8218L96.7925 19.0225C96.7241 19.1787 96.6045 19.3325 96.4336 19.4839C96.2627 19.6353 96.0454 19.7598 95.7817 19.8574C95.5181 19.9551 95.208 20.0039 94.8516 20.0039C94.373 20.0039 93.958 19.8989 93.6064 19.689C93.2549 19.4741 92.9839 19.1689 92.7935 18.7734C92.603 18.373 92.5078 17.8921 92.5078 17.3306V16.8252C92.5078 16.2344 92.6055 15.7363 92.8008 15.3311C92.9961 14.9258 93.2598 14.6206 93.5918 14.4155C93.9287 14.2056 94.3096 14.1006 94.7344 14.1006C95.1592 14.1006 95.5352 14.2007 95.8623 14.4009C96.1895 14.5962 96.4458 14.894 96.6313 15.2944C96.8169 15.6948 96.9097 16.2051 96.9097 16.8252V17.3306L97.5396 16.4004H91.8633V17.4185H98.1914V16.9204C98.1914 16.1343 98.0522 15.4458 97.7739 14.855C97.5005 14.2593 97.105 13.7954 96.5874 13.4634C96.0747 13.1313 95.4595 12.9653 94.7417 12.9653C94.0288 12.9653 93.4062 13.1387 92.874 13.4854C92.3418 13.832 91.9292 14.313 91.6362 14.9282C91.3481 15.5435 91.2041 16.2588 91.2041 17.0742V17.0815C91.2041 17.9067 91.3481 18.6245 91.6362 19.2349C91.9292 19.8403 92.3442 20.3091 92.8813 20.6411C93.4233 20.9731 94.0703 21.1392 94.8223 21.1392ZM102.337 21.1392C102.693 21.1392 103.021 21.0903 103.318 20.9927C103.616 20.8901 103.882 20.7412 104.117 20.5459C104.356 20.3506 104.559 20.1138 104.725 19.8354H104.842V21H106.116V15.5947C106.116 15.0479 105.999 14.5791 105.765 14.1885C105.535 13.793 105.196 13.4902 104.747 13.2803C104.302 13.0703 103.758 12.9653 103.113 12.9653C102.552 12.9653 102.051 13.0532 101.612 13.229C101.172 13.3999 100.813 13.6416 100.535 13.9541C100.262 14.2617 100.091 14.623 100.022 15.0381L100.015 15.082H101.29L101.297 15.0601C101.399 14.7524 101.602 14.5156 101.905 14.3496C102.208 14.1787 102.596 14.0933 103.069 14.0933C103.66 14.0933 104.102 14.2227 104.395 14.4814C104.693 14.7354 104.842 15.1064 104.842 15.5947V18.0557C104.842 18.4316 104.744 18.7686 104.549 19.0664C104.358 19.3643 104.095 19.6011 103.758 19.7769C103.421 19.9478 103.035 20.0332 102.601 20.0332C102.142 20.0332 101.761 19.9233 101.458 19.7036C101.155 19.479 101.004 19.1665 101.004 18.7661V18.7515C101.004 18.3608 101.141 18.0581 101.414 17.8433C101.692 17.6284 102.132 17.5039 102.732 17.4697L105.479 17.2939V16.2759L102.579 16.4517C101.661 16.5054 100.95 16.7324 100.447 17.1328C99.9492 17.5283 99.7002 18.0776 99.7002 18.7808V18.7954C99.7002 19.2739 99.8149 19.689 100.044 20.0405C100.279 20.3921 100.594 20.6631 100.989 20.8535C101.39 21.0439 101.839 21.1392 102.337 21.1392ZM111.36 21.1392C111.912 21.1392 112.4 21.0171 112.825 20.7729C113.25 20.5239 113.582 20.1797 113.821 19.7402H113.938V21H115.213V9.96973H113.938V14.3496H113.821C113.606 13.9297 113.277 13.5952 112.833 13.3462C112.393 13.0923 111.902 12.9653 111.36 12.9653C110.691 12.9653 110.108 13.1338 109.61 13.4707C109.117 13.8076 108.733 14.2812 108.46 14.8916C108.187 15.502 108.05 16.2197 108.05 17.0449V17.0596C108.05 17.8799 108.187 18.5977 108.46 19.2129C108.733 19.8232 109.119 20.2969 109.617 20.6338C110.115 20.9707 110.696 21.1392 111.36 21.1392ZM111.653 20.0112C111.175 20.0112 110.762 19.894 110.416 19.6597C110.074 19.4204 109.81 19.0811 109.625 18.6416C109.444 18.1973 109.354 17.6699 109.354 17.0596V17.0449C109.354 16.4297 109.444 15.9023 109.625 15.4629C109.81 15.0234 110.074 14.6865 110.416 14.4521C110.762 14.2129 111.175 14.0933 111.653 14.0933C112.132 14.0933 112.544 14.2129 112.891 14.4521C113.238 14.6914 113.504 15.0308 113.689 15.4702C113.875 15.9097 113.968 16.4346 113.968 17.0449V17.0596C113.968 17.665 113.875 18.1899 113.689 18.6343C113.504 19.0737 113.238 19.4131 112.891 19.6523C112.544 19.8916 112.132 20.0112 111.653 20.0112ZM118.333 23.7686C118.802 23.7686 119.195 23.7002 119.512 23.5635C119.834 23.4316 120.113 23.1997 120.347 22.8677C120.586 22.5356 120.816 22.0742 121.036 21.4834L124.119 13.1045H122.779L120.354 20.3994L120.86 19.6011H120.259L120.765 20.3994L118.333 13.1045H116.971L119.893 21.0073L119.747 21.4761C119.605 21.9302 119.417 22.25 119.183 22.4355C118.953 22.6211 118.658 22.7139 118.296 22.7139C118.208 22.7139 118.118 22.7114 118.025 22.7065C117.933 22.7017 117.847 22.6919 117.769 22.6772V23.7246C117.857 23.7393 117.952 23.749 118.055 23.7539C118.157 23.7637 118.25 23.7686 118.333 23.7686Z" fill="#D9D9D9"/>
</svg>
